M48
;Layer_Color=9474304
;FILE_FORMAT=2:4
INCH,LZ
;TYPE=PLATED
T1F00S00C0.0120
T2F00S00C0.0150
T3F00S00C0.0236
T4F00S00C0.0280
T5F00S00C0.0350
T6F00S00C0.0354
;TYPE=NON_PLATED
T7F00S00C0.0350
T8F00S00C0.0670
%
T01
X0019Y0053
X00245Y00705
X00455Y0073
X004436Y004664
X00315Y00875
X00145Y0112
X004846Y011725
X0109Y01195
X01425Y01045
X019225Y010525
X02095Y01115
X02025Y006
X0198Y00505
X02005Y00435
X01825Y01275
Y01405
X01518Y01275
X01445Y0223
X014879Y023471
X015469Y023469
X0137Y023481
X013305
X01291
X012515
X01232Y024281
X012715
X013105
X0135
X01495Y02595
X01445Y0271
X01665Y02435
X012055Y022331
X0199Y0281
X0106
X01165Y02645
X0112Y0257
X01165Y0244
X01153Y023381
X009955
X0095Y025326
X008Y026
X00705Y028
X0066
X00555
X00485Y02425
X0045Y0233
X00425Y021725
X00345Y0219
X00245Y02155
X0019Y02115
X00145Y0206
X0086Y03015
X01055Y03025
X010885Y03075
X0112Y03085
X01152Y03075
X011836Y03095
X0114Y030015
X0115Y0297
X0114Y029385
X0115Y02907
X00705Y0319
X01215Y03255
X01405Y03275
Y03205
X01555Y03215
X0163Y03265
X01675Y0324
X0171Y0323
X01745Y0324
X0178Y0327
X0176Y03395
X0151Y03305
X0171Y031
X0185Y03005
Y02905
X01805Y028631
X02125Y0302
X0214Y0307
T02
X00425Y0009
X005
Y0017
X00425
X01015Y0125
X0108Y0229
X01Y02605
X009235Y026965
X00775Y0291
X0065Y03205
Y03315
X004672Y032855
T03
X025Y02875
Y02925
Y02975
Y03025
Y03075
T04
X0103Y03465
X023Y03165
T05
X007Y0028
Y0038
Y0048
Y0058
Y0068
Y0078
Y0088
Y0098
X016
Y0088
Y0078
Y0068
Y0058
Y0048
Y0038
Y0028
T06
X00305Y02805
Y02905
Y03005
Y03105
Y03205
Y03305
T07
X01835Y00701
Y00969
T08
X02509Y00315
X00091Y02235
M30
