G04*
G04 #@! TF.GenerationSoftware,Altium Limited,Altium Designer,19.1.8 (144)*
G04*
G04 Layer_Color=65535*
%FSLAX24Y24*%
%MOIN*%
G70*
G01*
G75*
%ADD10C,0.0079*%
%ADD11C,0.0100*%
%ADD12C,0.0080*%
%ADD13C,0.0090*%
G36*
X1350Y27650D02*
X550Y28050D01*
X1350Y28400D01*
Y27650D01*
D02*
G37*
G36*
X7500Y11800D02*
X6500D01*
X7000Y12800D01*
X7500Y11800D01*
D02*
G37*
G36*
X13350Y7000D02*
X12350Y6500D01*
Y7500D01*
X13350Y7000D01*
D02*
G37*
G36*
X1650Y6500D02*
X650Y7000D01*
X1650Y7500D01*
Y6500D01*
D02*
G37*
G36*
X7000Y1200D02*
X6500Y2200D01*
X7500D01*
X7000Y1200D01*
D02*
G37*
G36*
X15362Y34054D02*
X15183D01*
X15182Y34809D01*
X14993Y34054D01*
X14805D01*
X14617Y34809D01*
Y34054D01*
X14438D01*
Y35014D01*
X14728D01*
X14900Y34358D01*
X15070Y35014D01*
X15362D01*
Y34054D01*
D02*
G37*
G36*
X14336D02*
X14127D01*
X14043Y34272D01*
X13657D01*
X13578Y34054D01*
X13373D01*
X13745Y35014D01*
X13950D01*
X14336Y34054D01*
D02*
G37*
G36*
X12948Y35013D02*
X12963D01*
X12979Y35012D01*
X12997D01*
X13033Y35007D01*
X13070Y35003D01*
X13105Y34996D01*
X13120Y34992D01*
X13134Y34988D01*
X13136D01*
X13137Y34987D01*
X13145Y34982D01*
X13158Y34975D01*
X13174Y34967D01*
X13193Y34953D01*
X13211Y34938D01*
X13229Y34919D01*
X13245Y34895D01*
Y34894D01*
X13247Y34892D01*
X13249Y34888D01*
X13252Y34884D01*
X13259Y34870D01*
X13267Y34852D01*
X13274Y34830D01*
X13281Y34805D01*
X13287Y34776D01*
X13288Y34745D01*
Y34744D01*
Y34741D01*
Y34734D01*
X13287Y34727D01*
Y34717D01*
X13285Y34708D01*
X13280Y34683D01*
X13273Y34653D01*
X13262Y34624D01*
X13245Y34594D01*
X13236Y34580D01*
X13224Y34566D01*
X13223Y34565D01*
X13222Y34563D01*
X13217Y34559D01*
X13212Y34555D01*
X13206Y34549D01*
X13198Y34542D01*
X13188Y34535D01*
X13177Y34528D01*
X13165Y34520D01*
X13149Y34513D01*
X13134Y34506D01*
X13118Y34499D01*
X13098Y34492D01*
X13079Y34487D01*
X13058Y34481D01*
X13034Y34477D01*
X13036D01*
X13037Y34476D01*
X13045Y34470D01*
X13056Y34463D01*
X13070Y34454D01*
X13087Y34441D01*
X13104Y34429D01*
X13122Y34413D01*
X13137Y34397D01*
X13138Y34395D01*
X13145Y34388D01*
X13154Y34377D01*
X13166Y34361D01*
X13183Y34340D01*
X13191Y34326D01*
X13201Y34312D01*
X13212Y34297D01*
X13223Y34280D01*
X13236Y34261D01*
X13248Y34241D01*
X13366Y34054D01*
X13133D01*
X12994Y34262D01*
X12993Y34263D01*
X12991Y34268D01*
X12987Y34273D01*
X12982Y34280D01*
X12976Y34288D01*
X12969Y34299D01*
X12954Y34322D01*
X12936Y34347D01*
X12919Y34369D01*
X12904Y34390D01*
X12897Y34397D01*
X12891Y34404D01*
X12890Y34405D01*
X12887Y34408D01*
X12882Y34413D01*
X12875Y34420D01*
X12865Y34426D01*
X12855Y34433D01*
X12844Y34438D01*
X12833Y34444D01*
X12832D01*
X12827Y34445D01*
X12821Y34448D01*
X12809Y34449D01*
X12796Y34452D01*
X12779Y34454D01*
X12759Y34455D01*
X12697D01*
Y34054D01*
X12503D01*
Y35014D01*
X12936D01*
X12948Y35013D01*
D02*
G37*
G36*
X12319Y34852D02*
X11802D01*
Y34640D01*
X12283D01*
Y34477D01*
X11802D01*
Y34216D01*
X12337D01*
Y34054D01*
X11607D01*
Y35014D01*
X12319D01*
Y34852D01*
D02*
G37*
G36*
X11424D02*
X10906D01*
Y34640D01*
X11388D01*
Y34477D01*
X10906D01*
Y34216D01*
X11442D01*
Y34054D01*
X10712Y34054D01*
Y35014D01*
X11424Y35014D01*
Y34852D01*
D02*
G37*
G36*
X10497Y33673D02*
X10312D01*
Y33844D01*
X10497D01*
Y33673D01*
D02*
G37*
G36*
X9303D02*
X9119D01*
Y33844D01*
X9303D01*
Y33673D01*
D02*
G37*
G36*
X15115Y33860D02*
X15130Y33859D01*
X15148Y33858D01*
X15168Y33856D01*
X15188Y33852D01*
X15233Y33844D01*
X15279Y33830D01*
X15302Y33821D01*
X15324Y33812D01*
X15345Y33801D01*
X15365Y33787D01*
X15366Y33785D01*
X15369Y33784D01*
X15374Y33778D01*
X15381Y33773D01*
X15390Y33766D01*
X15398Y33756D01*
X15408Y33745D01*
X15419Y33733D01*
X15430Y33719D01*
X15441Y33703D01*
X15452Y33687D01*
X15462Y33667D01*
X15473Y33648D01*
X15481Y33627D01*
X15490Y33604D01*
X15495Y33580D01*
X15302Y33544D01*
Y33545D01*
X15301Y33547D01*
X15298Y33555D01*
X15293Y33567D01*
X15284Y33584D01*
X15275Y33602D01*
X15261Y33620D01*
X15244Y33638D01*
X15225Y33655D01*
X15222Y33656D01*
X15215Y33662D01*
X15202Y33669D01*
X15187Y33676D01*
X15166Y33684D01*
X15143Y33690D01*
X15116Y33695D01*
X15086Y33697D01*
X15073D01*
X15065Y33695D01*
X15054Y33694D01*
X15041Y33692D01*
X15027Y33690D01*
X15012Y33687D01*
X14980Y33677D01*
X14964Y33670D01*
X14947Y33662D01*
X14930Y33652D01*
X14914Y33642D01*
X14898Y33629D01*
X14883Y33615D01*
X14882Y33613D01*
X14880Y33610D01*
X14876Y33606D01*
X14872Y33599D01*
X14866Y33591D01*
X14859Y33581D01*
X14853Y33569D01*
X14847Y33555D01*
X14840Y33538D01*
X14833Y33520D01*
X14826Y33501D01*
X14821Y33480D01*
X14816Y33456D01*
X14812Y33430D01*
X14811Y33404D01*
X14810Y33375D01*
Y33373D01*
Y33368D01*
Y33358D01*
X14811Y33347D01*
X14812Y33331D01*
X14814Y33316D01*
X14816Y33297D01*
X14819Y33277D01*
X14828Y33236D01*
X14841Y33193D01*
X14850Y33172D01*
X14859Y33152D01*
X14872Y33133D01*
X14884Y33116D01*
X14886Y33115D01*
X14889Y33112D01*
X14893Y33108D01*
X14898Y33102D01*
X14907Y33097D01*
X14915Y33089D01*
X14926Y33082D01*
X14939Y33073D01*
X14952Y33065D01*
X14966Y33058D01*
X15001Y33044D01*
X15021Y33039D01*
X15040Y33034D01*
X15062Y33032D01*
X15084Y33030D01*
X15095D01*
X15107Y33032D01*
X15123Y33033D01*
X15141Y33036D01*
X15162Y33040D01*
X15184Y33046D01*
X15207Y33054D01*
X15208D01*
X15209Y33055D01*
X15216Y33058D01*
X15229Y33064D01*
X15243Y33071D01*
X15259Y33079D01*
X15277Y33089D01*
X15295Y33100D01*
X15312Y33112D01*
Y33236D01*
X15090D01*
Y33398D01*
X15508D01*
Y33012D01*
X15505Y33009D01*
X15501Y33007D01*
X15497Y33003D01*
X15490Y32997D01*
X15483Y32991D01*
X15463Y32978D01*
X15437Y32962D01*
X15406Y32944D01*
X15372Y32926D01*
X15330Y32910D01*
X15329D01*
X15324Y32908D01*
X15319Y32905D01*
X15311Y32903D01*
X15299Y32900D01*
X15287Y32896D01*
X15273Y32891D01*
X15258Y32887D01*
X15223Y32879D01*
X15183Y32872D01*
X15141Y32866D01*
X15097Y32865D01*
X15082D01*
X15072Y32866D01*
X15058D01*
X15043Y32868D01*
X15026Y32871D01*
X15007Y32873D01*
X14966Y32880D01*
X14922Y32891D01*
X14876Y32907D01*
X14855Y32916D01*
X14833Y32928D01*
X14832Y32929D01*
X14829Y32930D01*
X14822Y32935D01*
X14815Y32940D01*
X14805Y32946D01*
X14796Y32954D01*
X14783Y32964D01*
X14771Y32975D01*
X14743Y33000D01*
X14715Y33032D01*
X14689Y33068D01*
X14665Y33109D01*
Y33111D01*
X14662Y33115D01*
X14660Y33122D01*
X14657Y33130D01*
X14653Y33141D01*
X14647Y33154D01*
X14643Y33169D01*
X14637Y33186D01*
X14632Y33204D01*
X14628Y33225D01*
X14618Y33268D01*
X14612Y33315D01*
X14610Y33366D01*
Y33368D01*
Y33373D01*
Y33381D01*
X14611Y33391D01*
Y33405D01*
X14612Y33420D01*
X14615Y33437D01*
X14618Y33456D01*
X14625Y33497D01*
X14636Y33542D01*
X14651Y33588D01*
X14661Y33610D01*
X14672Y33633D01*
X14674Y33634D01*
X14675Y33638D01*
X14679Y33644D01*
X14683Y33652D01*
X14690Y33662D01*
X14698Y33673D01*
X14708Y33685D01*
X14718Y33699D01*
X14730Y33713D01*
X14744Y33728D01*
X14760Y33744D01*
X14776Y33759D01*
X14794Y33773D01*
X14812Y33788D01*
X14855Y33813D01*
X14857D01*
X14859Y33816D01*
X14865Y33817D01*
X14872Y33821D01*
X14882Y33824D01*
X14891Y33828D01*
X14905Y33833D01*
X14919Y33838D01*
X14934Y33842D01*
X14952Y33846D01*
X14972Y33851D01*
X14991Y33855D01*
X15036Y33860D01*
X15086Y33862D01*
X15102D01*
X15115Y33860D01*
D02*
G37*
G36*
X17241Y33594D02*
X17259Y33591D01*
X17280Y33587D01*
X17301Y33581D01*
X17323Y33574D01*
X17344Y33563D01*
X17347Y33562D01*
X17352Y33558D01*
X17362Y33551D01*
X17375Y33541D01*
X17387Y33527D01*
X17401Y33512D01*
X17413Y33494D01*
X17425Y33472D01*
X17426Y33470D01*
X17427Y33463D01*
X17430Y33452D01*
X17434Y33437D01*
X17438Y33418D01*
X17441Y33393D01*
X17443Y33362D01*
X17444Y33327D01*
Y32883D01*
X17259D01*
Y33280D01*
Y33282D01*
Y33284D01*
Y33290D01*
Y33297D01*
X17258Y33315D01*
X17257Y33336D01*
X17255Y33358D01*
X17251Y33380D01*
X17247Y33399D01*
X17243Y33406D01*
X17240Y33413D01*
X17239Y33415D01*
X17234Y33420D01*
X17229Y33426D01*
X17220Y33434D01*
X17209Y33441D01*
X17196Y33448D01*
X17179Y33452D01*
X17161Y33454D01*
X17154D01*
X17147Y33452D01*
X17137Y33451D01*
X17126Y33448D01*
X17114Y33444D01*
X17100Y33438D01*
X17087Y33430D01*
X17086Y33429D01*
X17082Y33426D01*
X17076Y33420D01*
X17069Y33412D01*
X17061Y33402D01*
X17053Y33391D01*
X17046Y33377D01*
X17039Y33361D01*
Y33358D01*
X17036Y33352D01*
X17034Y33341D01*
X17032Y33326D01*
X17029Y33305D01*
X17028Y33280D01*
X17025Y33251D01*
Y33216D01*
Y32883D01*
X16840D01*
Y33263D01*
Y33265D01*
Y33268D01*
Y33273D01*
Y33280D01*
Y33297D01*
X16839Y33318D01*
X16837Y33340D01*
X16836Y33361D01*
X16833Y33380D01*
X16830Y33388D01*
X16829Y33394D01*
Y33395D01*
X16828Y33399D01*
X16825Y33405D01*
X16822Y33411D01*
X16812Y33426D01*
X16805Y33433D01*
X16799Y33438D01*
X16797Y33440D01*
X16794Y33441D01*
X16790Y33444D01*
X16785Y33447D01*
X16776Y33449D01*
X16767Y33451D01*
X16755Y33454D01*
X16736D01*
X16728Y33452D01*
X16718Y33451D01*
X16706Y33448D01*
X16693Y33444D01*
X16681Y33438D01*
X16667Y33430D01*
X16665Y33429D01*
X16661Y33426D01*
X16656Y33420D01*
X16649Y33413D01*
X16640Y33404D01*
X16632Y33393D01*
X16625Y33379D01*
X16618Y33363D01*
Y33362D01*
X16615Y33355D01*
X16614Y33344D01*
X16611Y33330D01*
X16608Y33309D01*
X16607Y33286D01*
X16604Y33255D01*
Y33220D01*
Y32883D01*
X16420Y32883D01*
Y33580D01*
X16589Y33580D01*
Y33484D01*
X16590Y33486D01*
X16593Y33488D01*
X16599Y33494D01*
X16606Y33502D01*
X16614Y33511D01*
X16624Y33519D01*
X16636Y33530D01*
X16650Y33540D01*
X16665Y33549D01*
X16682Y33561D01*
X16718Y33579D01*
X16739Y33585D01*
X16760Y33591D01*
X16782Y33594D01*
X16805Y33595D01*
X16817D01*
X16829Y33594D01*
X16844Y33592D01*
X16862Y33588D01*
X16882Y33584D01*
X16901Y33577D01*
X16921Y33567D01*
X16923Y33566D01*
X16929Y33562D01*
X16939Y33556D01*
X16950Y33547D01*
X16962Y33534D01*
X16976Y33520D01*
X16990Y33502D01*
X17003Y33483D01*
X17005Y33486D01*
X17011Y33492D01*
X17019Y33502D01*
X17032Y33515D01*
X17047Y33529D01*
X17064Y33542D01*
X17082Y33556D01*
X17101Y33567D01*
X17104Y33569D01*
X17111Y33572D01*
X17122Y33576D01*
X17136Y33581D01*
X17152Y33587D01*
X17172Y33591D01*
X17193Y33594D01*
X17215Y33595D01*
X17227D01*
X17241Y33594D01*
D02*
G37*
G36*
X9913Y33594D02*
X9928Y33592D01*
X9945Y33590D01*
X9963Y33585D01*
X9982Y33580D01*
X10001Y33573D01*
X10004Y33572D01*
X10010Y33569D01*
X10020Y33565D01*
X10031Y33558D01*
X10043Y33549D01*
X10056Y33540D01*
X10068Y33529D01*
X10079Y33516D01*
X10081Y33515D01*
X10083Y33511D01*
X10088Y33504D01*
X10093Y33494D01*
X10100Y33483D01*
X10106Y33469D01*
X10111Y33455D01*
X10115Y33438D01*
Y33437D01*
X10117Y33430D01*
X10119Y33420D01*
X10121Y33406D01*
X10124Y33390D01*
X10125Y33368D01*
X10126Y33344D01*
Y33315D01*
Y32883D01*
X9942D01*
Y33237D01*
Y33238D01*
Y33243D01*
Y33248D01*
Y33255D01*
Y33265D01*
Y33275D01*
X9940Y33298D01*
X9939Y33322D01*
X9936Y33347D01*
X9933Y33368D01*
X9932Y33376D01*
X9929Y33383D01*
Y33384D01*
X9927Y33388D01*
X9924Y33394D01*
X9920Y33402D01*
X9907Y33419D01*
X9900Y33427D01*
X9890Y33434D01*
X9889Y33436D01*
X9886Y33437D01*
X9881Y33440D01*
X9872Y33444D01*
X9863Y33448D01*
X9853Y33451D01*
X9840Y33452D01*
X9827Y33454D01*
X9818D01*
X9810Y33452D01*
X9799Y33451D01*
X9785Y33447D01*
X9771Y33443D01*
X9756Y33436D01*
X9741Y33427D01*
X9739Y33426D01*
X9735Y33423D01*
X9728Y33416D01*
X9720Y33409D01*
X9711Y33398D01*
X9703Y33387D01*
X9695Y33372D01*
X9689Y33356D01*
Y33355D01*
X9686Y33348D01*
X9685Y33337D01*
X9682Y33320D01*
X9681Y33311D01*
X9679Y33298D01*
X9678Y33286D01*
Y33270D01*
X9677Y33255D01*
X9675Y33237D01*
Y33218D01*
Y33197D01*
Y32883D01*
X9491D01*
Y33580D01*
X9661D01*
Y33477D01*
X9663Y33479D01*
X9666Y33483D01*
X9671Y33488D01*
X9678Y33495D01*
X9686Y33505D01*
X9698Y33515D01*
X9710Y33526D01*
X9724Y33537D01*
X9739Y33547D01*
X9757Y33558D01*
X9775Y33567D01*
X9796Y33577D01*
X9818Y33584D01*
X9840Y33590D01*
X9865Y33594D01*
X9890Y33595D01*
X9900D01*
X9913Y33594D01*
D02*
G37*
G36*
X8924Y32883D02*
X8745D01*
X8744Y33638D01*
X8555Y32883D01*
X8368D01*
X8179Y33638D01*
Y32883D01*
X8000D01*
Y33844D01*
X8290D01*
X8462Y33187D01*
X8633Y33844D01*
X8924D01*
Y32883D01*
D02*
G37*
G36*
X13905Y32908D02*
X13860Y32789D01*
X13859Y32786D01*
X13856Y32779D01*
X13850Y32768D01*
X13845Y32754D01*
X13838Y32739D01*
X13830Y32724D01*
X13821Y32710D01*
X13813Y32696D01*
X13812Y32694D01*
X13809Y32690D01*
X13805Y32685D01*
X13799Y32676D01*
X13784Y32660D01*
X13763Y32643D01*
X13762Y32642D01*
X13757Y32640D01*
X13752Y32636D01*
X13744Y32632D01*
X13734Y32628D01*
X13723Y32622D01*
X13709Y32617D01*
X13694Y32612D01*
X13692D01*
X13687Y32611D01*
X13678Y32608D01*
X13666Y32607D01*
X13652Y32604D01*
X13637Y32601D01*
X13619Y32600D01*
X13591D01*
X13580Y32601D01*
X13567D01*
X13551Y32603D01*
X13534Y32606D01*
X13496Y32612D01*
X13480Y32757D01*
X13481D01*
X13487Y32755D01*
X13495Y32754D01*
X13506Y32753D01*
X13517Y32750D01*
X13531Y32749D01*
X13558Y32747D01*
X13569D01*
X13580Y32750D01*
X13594Y32753D01*
X13609Y32757D01*
X13624Y32764D01*
X13639Y32773D01*
X13652Y32786D01*
X13653Y32787D01*
X13657Y32793D01*
X13663Y32801D01*
X13670Y32812D01*
X13677Y32826D01*
X13685Y32843D01*
X13692Y32861D01*
X13699Y32882D01*
X13435Y33580D01*
X13631D01*
X13796Y33084D01*
X13960Y33580D01*
X14150D01*
X13905Y32908D01*
D02*
G37*
G36*
X15988Y33594D02*
X15999D01*
X16027Y33591D01*
X16056Y33588D01*
X16086Y33583D01*
X16116Y33574D01*
X16128Y33570D01*
X16141Y33565D01*
X16142D01*
X16143Y33563D01*
X16150Y33559D01*
X16161Y33554D01*
X16174Y33545D01*
X16189Y33534D01*
X16203Y33522D01*
X16216Y33506D01*
X16227Y33491D01*
X16228Y33488D01*
X16231Y33483D01*
X16235Y33470D01*
X16236Y33463D01*
X16239Y33454D01*
X16242Y33444D01*
X16243Y33431D01*
X16246Y33418D01*
X16248Y33402D01*
X16249Y33386D01*
X16250Y33368D01*
X16252Y33348D01*
Y33326D01*
X16249Y33111D01*
Y33109D01*
Y33107D01*
Y33102D01*
Y33096D01*
Y33079D01*
X16250Y33059D01*
Y33037D01*
X16253Y33015D01*
X16254Y32993D01*
X16257Y32975D01*
Y32973D01*
X16259Y32968D01*
X16261Y32958D01*
X16264Y32947D01*
X16270Y32933D01*
X16275Y32918D01*
X16282Y32901D01*
X16291Y32883D01*
X16109D01*
Y32885D01*
X16107Y32886D01*
X16106Y32891D01*
X16103Y32897D01*
X16100Y32904D01*
X16098Y32914D01*
X16095Y32925D01*
X16091Y32937D01*
Y32939D01*
X16089Y32940D01*
X16088Y32946D01*
X16085Y32953D01*
X16084Y32958D01*
X16081Y32957D01*
X16075Y32951D01*
X16066Y32943D01*
X16053Y32933D01*
X16038Y32922D01*
X16021Y32910D01*
X16002Y32900D01*
X15982Y32890D01*
X15980Y32889D01*
X15973Y32887D01*
X15962Y32883D01*
X15948Y32879D01*
X15931Y32875D01*
X15912Y32872D01*
X15889Y32869D01*
X15867Y32868D01*
X15857D01*
X15849Y32869D01*
X15841D01*
X15830Y32871D01*
X15806Y32875D01*
X15778Y32882D01*
X15751Y32891D01*
X15723Y32905D01*
X15698Y32925D01*
Y32926D01*
X15695Y32928D01*
X15688Y32936D01*
X15678Y32948D01*
X15667Y32965D01*
X15656Y32986D01*
X15646Y33011D01*
X15640Y33040D01*
X15638Y33055D01*
X15637Y33072D01*
Y33075D01*
Y33082D01*
X15638Y33093D01*
X15641Y33107D01*
X15644Y33123D01*
X15648Y33140D01*
X15655Y33158D01*
X15665Y33176D01*
X15666Y33179D01*
X15670Y33184D01*
X15676Y33193D01*
X15685Y33202D01*
X15695Y33214D01*
X15709Y33226D01*
X15724Y33237D01*
X15742Y33247D01*
X15745Y33248D01*
X15752Y33251D01*
X15763Y33255D01*
X15780Y33262D01*
X15801Y33269D01*
X15826Y33276D01*
X15856Y33283D01*
X15889Y33290D01*
X15891D01*
X15895Y33291D01*
X15902Y33293D01*
X15910Y33294D01*
X15921Y33295D01*
X15934Y33298D01*
X15962Y33305D01*
X15991Y33312D01*
X16021Y33319D01*
X16048Y33327D01*
X16060Y33331D01*
X16070Y33336D01*
Y33354D01*
Y33356D01*
Y33362D01*
X16068Y33372D01*
X16067Y33384D01*
X16063Y33397D01*
X16059Y33409D01*
X16052Y33420D01*
X16042Y33430D01*
X16041Y33431D01*
X16037Y33434D01*
X16030Y33437D01*
X16020Y33443D01*
X16006Y33447D01*
X15989Y33449D01*
X15969Y33452D01*
X15944Y33454D01*
X15935D01*
X15927Y33452D01*
X15916Y33451D01*
X15903Y33448D01*
X15889Y33445D01*
X15877Y33440D01*
X15866Y33433D01*
X15864Y33431D01*
X15862Y33429D01*
X15856Y33424D01*
X15851Y33418D01*
X15842Y33408D01*
X15835Y33395D01*
X15828Y33381D01*
X15821Y33365D01*
X15656Y33395D01*
Y33397D01*
X15658Y33399D01*
X15659Y33405D01*
X15662Y33412D01*
X15665Y33420D01*
X15669Y33430D01*
X15678Y33452D01*
X15692Y33476D01*
X15709Y33501D01*
X15728Y33524D01*
X15752Y33545D01*
X15753D01*
X15755Y33548D01*
X15759Y33549D01*
X15764Y33554D01*
X15773Y33556D01*
X15781Y33561D01*
X15792Y33566D01*
X15803Y33570D01*
X15817Y33574D01*
X15832Y33580D01*
X15849Y33584D01*
X15869Y33587D01*
X15888Y33591D01*
X15910Y33592D01*
X15932Y33595D01*
X15978D01*
X15988Y33594D01*
D02*
G37*
G36*
X13333Y32883D02*
X13148D01*
Y33844D01*
X13333D01*
Y32883D01*
D02*
G37*
G36*
X12959D02*
X12775D01*
Y33844D01*
X12959D01*
Y32883D01*
D02*
G37*
G36*
X12331Y33594D02*
X12342D01*
X12369Y33591D01*
X12399Y33588D01*
X12429Y33583D01*
X12458Y33574D01*
X12471Y33570D01*
X12483Y33565D01*
X12485D01*
X12486Y33563D01*
X12493Y33559D01*
X12504Y33554D01*
X12517Y33545D01*
X12532Y33534D01*
X12546Y33522D01*
X12558Y33506D01*
X12569Y33491D01*
X12571Y33488D01*
X12573Y33483D01*
X12578Y33470D01*
X12579Y33463D01*
X12582Y33454D01*
X12585Y33444D01*
X12586Y33431D01*
X12589Y33418D01*
X12590Y33402D01*
X12592Y33386D01*
X12593Y33368D01*
X12594Y33348D01*
Y33326D01*
X12592Y33111D01*
Y33109D01*
Y33107D01*
Y33102D01*
Y33096D01*
Y33079D01*
X12593Y33059D01*
Y33037D01*
X12596Y33015D01*
X12597Y32993D01*
X12600Y32975D01*
Y32973D01*
X12601Y32968D01*
X12604Y32958D01*
X12607Y32947D01*
X12612Y32933D01*
X12618Y32918D01*
X12625Y32901D01*
X12633Y32883D01*
X12451D01*
Y32885D01*
X12450Y32886D01*
X12449Y32891D01*
X12446Y32897D01*
X12443Y32904D01*
X12440Y32914D01*
X12437Y32925D01*
X12433Y32937D01*
Y32939D01*
X12432Y32940D01*
X12430Y32946D01*
X12428Y32953D01*
X12426Y32958D01*
X12424Y32957D01*
X12418Y32951D01*
X12408Y32943D01*
X12396Y32933D01*
X12381Y32922D01*
X12364Y32910D01*
X12344Y32900D01*
X12325Y32890D01*
X12322Y32889D01*
X12315Y32887D01*
X12304Y32883D01*
X12290Y32879D01*
X12274Y32875D01*
X12254Y32872D01*
X12232Y32869D01*
X12210Y32868D01*
X12200D01*
X12192Y32869D01*
X12183D01*
X12172Y32871D01*
X12149Y32875D01*
X12121Y32882D01*
X12093Y32891D01*
X12065Y32905D01*
X12040Y32925D01*
Y32926D01*
X12038Y32928D01*
X12031Y32936D01*
X12021Y32948D01*
X12010Y32965D01*
X11999Y32986D01*
X11989Y33011D01*
X11982Y33040D01*
X11981Y33055D01*
X11979Y33072D01*
Y33075D01*
Y33082D01*
X11981Y33093D01*
X11984Y33107D01*
X11986Y33123D01*
X11990Y33140D01*
X11997Y33158D01*
X12007Y33176D01*
X12009Y33179D01*
X12013Y33184D01*
X12018Y33193D01*
X12028Y33202D01*
X12038Y33214D01*
X12052Y33226D01*
X12067Y33237D01*
X12085Y33247D01*
X12088Y33248D01*
X12095Y33251D01*
X12106Y33255D01*
X12122Y33262D01*
X12143Y33269D01*
X12168Y33276D01*
X12199Y33283D01*
X12232Y33290D01*
X12233D01*
X12238Y33291D01*
X12244Y33293D01*
X12253Y33294D01*
X12264Y33295D01*
X12276Y33298D01*
X12304Y33305D01*
X12333Y33312D01*
X12364Y33319D01*
X12390Y33327D01*
X12403Y33331D01*
X12412Y33336D01*
Y33354D01*
Y33356D01*
Y33362D01*
X12411Y33372D01*
X12410Y33384D01*
X12406Y33397D01*
X12401Y33409D01*
X12394Y33420D01*
X12385Y33430D01*
X12383Y33431D01*
X12379Y33434D01*
X12372Y33437D01*
X12362Y33443D01*
X12349Y33447D01*
X12332Y33449D01*
X12311Y33452D01*
X12286Y33454D01*
X12278D01*
X12269Y33452D01*
X12258Y33451D01*
X12246Y33448D01*
X12232Y33445D01*
X12220Y33440D01*
X12208Y33433D01*
X12207Y33431D01*
X12204Y33429D01*
X12199Y33424D01*
X12193Y33418D01*
X12185Y33408D01*
X12178Y33395D01*
X12171Y33381D01*
X12164Y33365D01*
X11999Y33395D01*
Y33397D01*
X12000Y33399D01*
X12002Y33405D01*
X12004Y33412D01*
X12007Y33420D01*
X12011Y33430D01*
X12021Y33452D01*
X12035Y33476D01*
X12052Y33501D01*
X12071Y33524D01*
X12095Y33545D01*
X12096D01*
X12097Y33548D01*
X12102Y33549D01*
X12107Y33554D01*
X12115Y33556D01*
X12124Y33561D01*
X12135Y33566D01*
X12146Y33570D01*
X12160Y33574D01*
X12175Y33580D01*
X12192Y33584D01*
X12211Y33587D01*
X12231Y33591D01*
X12253Y33592D01*
X12275Y33595D01*
X12321D01*
X12331Y33594D01*
D02*
G37*
G36*
X11507Y33842D02*
X11523D01*
X11538Y33841D01*
X11556D01*
X11592Y33837D01*
X11630Y33833D01*
X11664Y33826D01*
X11680Y33821D01*
X11693Y33817D01*
X11695D01*
X11696Y33816D01*
X11705Y33812D01*
X11717Y33805D01*
X11734Y33796D01*
X11752Y33783D01*
X11770Y33767D01*
X11788Y33748D01*
X11805Y33724D01*
Y33723D01*
X11806Y33722D01*
X11809Y33717D01*
X11811Y33713D01*
X11818Y33699D01*
X11827Y33681D01*
X11834Y33659D01*
X11841Y33634D01*
X11846Y33605D01*
X11848Y33574D01*
Y33573D01*
Y33570D01*
Y33563D01*
X11846Y33556D01*
Y33547D01*
X11845Y33537D01*
X11839Y33512D01*
X11832Y33483D01*
X11821Y33454D01*
X11805Y33423D01*
X11795Y33409D01*
X11784Y33395D01*
X11782Y33394D01*
X11781Y33393D01*
X11777Y33388D01*
X11771Y33384D01*
X11766Y33379D01*
X11757Y33372D01*
X11748Y33365D01*
X11737Y33358D01*
X11724Y33350D01*
X11709Y33343D01*
X11693Y33336D01*
X11677Y33329D01*
X11657Y33322D01*
X11638Y33316D01*
X11617Y33311D01*
X11594Y33306D01*
X11595D01*
X11596Y33305D01*
X11605Y33300D01*
X11616Y33293D01*
X11630Y33283D01*
X11646Y33270D01*
X11663Y33258D01*
X11681Y33243D01*
X11696Y33226D01*
X11698Y33225D01*
X11705Y33218D01*
X11713Y33207D01*
X11725Y33190D01*
X11742Y33169D01*
X11750Y33155D01*
X11760Y33141D01*
X11771Y33126D01*
X11782Y33109D01*
X11795Y33090D01*
X11807Y33071D01*
X11925Y32883D01*
X11692D01*
X11553Y33091D01*
X11552Y33093D01*
X11551Y33097D01*
X11546Y33102D01*
X11541Y33109D01*
X11535Y33118D01*
X11528Y33129D01*
X11513Y33151D01*
X11495Y33176D01*
X11478Y33198D01*
X11463Y33219D01*
X11456Y33226D01*
X11451Y33233D01*
X11449Y33234D01*
X11446Y33237D01*
X11441Y33243D01*
X11434Y33250D01*
X11424Y33255D01*
X11414Y33262D01*
X11403Y33268D01*
X11392Y33273D01*
X11391D01*
X11387Y33275D01*
X11380Y33277D01*
X11369Y33279D01*
X11355Y33282D01*
X11338Y33283D01*
X11319Y33284D01*
X11256D01*
Y32883D01*
X11062D01*
Y33844D01*
X11495D01*
X11507Y33842D01*
D02*
G37*
G36*
X10497Y32883D02*
X10312D01*
Y33580D01*
X10497D01*
Y32883D01*
D02*
G37*
G36*
X9303D02*
X9119D01*
Y33580D01*
X9303D01*
Y32883D01*
D02*
G37*
G36*
X17917Y33594D02*
X17930Y33592D01*
X17945Y33590D01*
X17962Y33587D01*
X17980Y33583D01*
X17999Y33577D01*
X18019Y33570D01*
X18039Y33562D01*
X18060Y33551D01*
X18080Y33540D01*
X18099Y33526D01*
X18119Y33509D01*
X18135Y33491D01*
X18137Y33490D01*
X18139Y33487D01*
X18144Y33480D01*
X18149Y33472D01*
X18156Y33461D01*
X18163Y33448D01*
X18171Y33431D01*
X18180Y33413D01*
X18188Y33393D01*
X18196Y33369D01*
X18203Y33344D01*
X18210Y33315D01*
X18216Y33284D01*
X18220Y33251D01*
X18223Y33216D01*
Y33177D01*
X17762D01*
Y33176D01*
Y33173D01*
Y33169D01*
X17763Y33164D01*
X17765Y33150D01*
X17767Y33130D01*
X17773Y33111D01*
X17781Y33089D01*
X17791Y33068D01*
X17805Y33050D01*
X17806Y33048D01*
X17813Y33043D01*
X17821Y33036D01*
X17834Y33028D01*
X17849Y33019D01*
X17869Y33012D01*
X17889Y33007D01*
X17912Y33005D01*
X17919D01*
X17927Y33007D01*
X17937Y33008D01*
X17948Y33011D01*
X17960Y33015D01*
X17973Y33021D01*
X17984Y33029D01*
X17985Y33030D01*
X17989Y33033D01*
X17995Y33039D01*
X18001Y33047D01*
X18009Y33058D01*
X18016Y33071D01*
X18023Y33087D01*
X18030Y33105D01*
X18213Y33075D01*
Y33073D01*
X18212Y33071D01*
X18209Y33065D01*
X18206Y33058D01*
X18202Y33050D01*
X18198Y33040D01*
X18185Y33018D01*
X18170Y32993D01*
X18150Y32966D01*
X18127Y32943D01*
X18100Y32921D01*
X18099D01*
X18098Y32918D01*
X18092Y32916D01*
X18087Y32912D01*
X18080Y32908D01*
X18070Y32904D01*
X18060Y32900D01*
X18048Y32894D01*
X18020Y32885D01*
X17988Y32876D01*
X17951Y32871D01*
X17910Y32868D01*
X17902D01*
X17894Y32869D01*
X17881D01*
X17866Y32872D01*
X17848Y32875D01*
X17828Y32878D01*
X17809Y32883D01*
X17787Y32889D01*
X17765Y32897D01*
X17742Y32907D01*
X17720Y32918D01*
X17698Y32932D01*
X17677Y32947D01*
X17659Y32965D01*
X17641Y32986D01*
X17640Y32987D01*
X17638Y32990D01*
X17636Y32996D01*
X17630Y33003D01*
X17626Y33012D01*
X17620Y33023D01*
X17613Y33036D01*
X17608Y33051D01*
X17601Y33068D01*
X17595Y33086D01*
X17588Y33105D01*
X17584Y33127D01*
X17580Y33150D01*
X17576Y33173D01*
X17574Y33200D01*
X17573Y33226D01*
Y33227D01*
Y33233D01*
Y33243D01*
X17574Y33255D01*
X17576Y33269D01*
X17577Y33286D01*
X17580Y33304D01*
X17584Y33325D01*
X17595Y33368D01*
X17602Y33390D01*
X17611Y33413D01*
X17622Y33436D01*
X17634Y33456D01*
X17648Y33477D01*
X17663Y33497D01*
X17665Y33498D01*
X17667Y33501D01*
X17673Y33506D01*
X17680Y33512D01*
X17688Y33519D01*
X17699Y33527D01*
X17712Y33537D01*
X17726Y33547D01*
X17741Y33555D01*
X17759Y33565D01*
X17777Y33573D01*
X17798Y33580D01*
X17819Y33585D01*
X17842Y33591D01*
X17866Y33594D01*
X17891Y33595D01*
X17906D01*
X17917Y33594D01*
D02*
G37*
G36*
X24500Y23027D02*
X24536Y23023D01*
X24579Y23016D01*
X24622Y23008D01*
X24658Y22992D01*
X24693Y22972D01*
X24697D01*
X24701Y22964D01*
X24713Y22953D01*
X24725Y22941D01*
X24736Y22921D01*
X24744Y22898D01*
X24752Y22874D01*
X24756Y22842D01*
Y22362D01*
X25000D01*
Y22166D01*
X24036D01*
Y22799D01*
X24040Y22819D01*
X24044Y22850D01*
X24056Y22886D01*
X24075Y22925D01*
X24103Y22961D01*
X24142Y22992D01*
X24197Y23016D01*
X24201D01*
X24209Y23020D01*
X24225D01*
X24244Y23023D01*
X24268Y23027D01*
X24296D01*
X24331Y23031D01*
X24366D01*
X24441D01*
X24449D01*
X24469D01*
X24500Y23027D01*
D02*
G37*
G36*
X25000Y21808D02*
X24036D01*
Y22036D01*
X25000D01*
Y21808D01*
D02*
G37*
G36*
Y21465D02*
X24634D01*
Y21028D01*
X25000D01*
Y20840D01*
X24036D01*
Y21028D01*
X24374D01*
Y21465D01*
X24036D01*
Y21666D01*
X25000D01*
Y21465D01*
D02*
G37*
G36*
X24847Y20710D02*
X24878Y20706D01*
X24910Y20702D01*
X24937Y20694D01*
X24957Y20682D01*
X24961D01*
X24965Y20674D01*
X24972Y20662D01*
X24980Y20647D01*
X24992Y20623D01*
X25000Y20592D01*
X25004Y20552D01*
X25008Y20505D01*
Y20112D01*
X25004Y20080D01*
X24996Y20041D01*
X24984Y20001D01*
X24965Y19958D01*
X24941Y19923D01*
X24906Y19895D01*
X24902D01*
X24890Y19887D01*
X24870Y19879D01*
X24847Y19872D01*
X24811Y19864D01*
X24772Y19856D01*
X24721Y19852D01*
X24666Y19848D01*
X24374D01*
X24370D01*
X24363D01*
X24351D01*
X24335Y19852D01*
X24296Y19856D01*
X24244Y19864D01*
X24193Y19875D01*
X24142Y19899D01*
X24099Y19927D01*
X24079Y19946D01*
X24063Y19966D01*
Y19970D01*
X24056Y19978D01*
X24052Y19990D01*
X24044Y20009D01*
X24036Y20033D01*
X24032Y20064D01*
X24024Y20100D01*
Y20525D01*
X24028Y20572D01*
X24032Y20592D01*
X24036Y20607D01*
Y20611D01*
X24040Y20619D01*
X24052Y20647D01*
X24067Y20662D01*
X24083Y20674D01*
X24103Y20686D01*
X24130Y20694D01*
X24134D01*
X24138Y20698D01*
X24150D01*
X24170Y20702D01*
X24189D01*
X24217Y20706D01*
X24248D01*
X24284D01*
X24272Y20178D01*
Y20175D01*
X24276Y20159D01*
X24280Y20139D01*
X24296Y20119D01*
X24315Y20096D01*
X24351Y20076D01*
X24374Y20068D01*
X24402Y20060D01*
X24429Y20056D01*
X24465D01*
X24571D01*
X24575D01*
X24579D01*
X24603Y20060D01*
X24630Y20064D01*
X24666Y20072D01*
X24701Y20084D01*
X24732Y20108D01*
X24756Y20135D01*
X24760Y20155D01*
X24764Y20175D01*
Y20714D01*
X24772D01*
X24788D01*
X24815D01*
X24847Y20710D01*
D02*
G37*
G36*
X21144Y20241D02*
X21171Y20237D01*
X21199Y20226D01*
X21230Y20210D01*
X21254Y20182D01*
X21274Y20143D01*
X21281Y20092D01*
Y20080D01*
X21277Y20068D01*
X21274Y20053D01*
X21262Y20013D01*
X21250Y19994D01*
X21234Y19974D01*
X21230D01*
X21226Y19966D01*
X21203Y19950D01*
X21167Y19934D01*
X21144Y19931D01*
X21120Y19927D01*
X21116D01*
X21108D01*
X21096Y19931D01*
X21085Y19934D01*
X21049Y19950D01*
X21030Y19962D01*
X21014Y19978D01*
X21010Y19982D01*
X21006Y19986D01*
X20990Y20009D01*
X20975Y20045D01*
X20967Y20068D01*
Y20100D01*
X20971Y20115D01*
X20978Y20139D01*
X20990Y20171D01*
X21006Y20198D01*
X21034Y20222D01*
X21073Y20237D01*
X21120Y20245D01*
X21128D01*
X21144Y20241D01*
D02*
G37*
G36*
X24705Y19734D02*
X24748Y19730D01*
X24803Y19722D01*
X24858Y19702D01*
X24913Y19679D01*
X24957Y19643D01*
X24976Y19620D01*
X24988Y19596D01*
Y19592D01*
X24992Y19584D01*
X24996Y19572D01*
Y19557D01*
X25000Y19537D01*
X25004Y19513D01*
X25008Y19450D01*
Y19096D01*
X25004Y19065D01*
X24996Y19029D01*
X24984Y18990D01*
X24969Y18951D01*
X24945Y18915D01*
X24913Y18884D01*
X24910Y18880D01*
X24898Y18876D01*
X24878Y18868D01*
X24850Y18860D01*
X24819Y18848D01*
X24776Y18841D01*
X24721Y18837D01*
X24662Y18833D01*
X24370D01*
X24366D01*
X24359D01*
X24343D01*
X24323Y18837D01*
X24276Y18841D01*
X24221Y18852D01*
X24162Y18872D01*
X24111Y18904D01*
X24087Y18923D01*
X24067Y18943D01*
X24052Y18970D01*
X24040Y18998D01*
Y19002D01*
X24036Y19006D01*
Y19018D01*
X24032Y19033D01*
X24028Y19073D01*
X24024Y19124D01*
Y19478D01*
X24028Y19506D01*
X24036Y19541D01*
X24044Y19576D01*
X24060Y19616D01*
X24083Y19647D01*
X24111Y19675D01*
X24115Y19679D01*
X24126Y19687D01*
X24146Y19694D01*
X24174Y19706D01*
X24213Y19718D01*
X24256Y19730D01*
X24307Y19734D01*
X24370Y19738D01*
X24662D01*
X24666D01*
X24673D01*
X24685D01*
X24705Y19734D01*
D02*
G37*
G36*
X25000Y18506D02*
X24886D01*
X24882D01*
X24874D01*
X24858D01*
X24843D01*
X24811Y18502D01*
X24795D01*
X24784Y18498D01*
X24780Y18494D01*
X24764Y18482D01*
X24752Y18463D01*
X24748Y18427D01*
Y18069D01*
X25000D01*
Y17865D01*
X24036D01*
Y18526D01*
X24040Y18549D01*
X24052Y18581D01*
X24071Y18616D01*
X24087Y18632D01*
X24107Y18652D01*
X24130Y18667D01*
X24158Y18679D01*
X24189Y18695D01*
X24229Y18703D01*
X24272Y18707D01*
X24323Y18711D01*
X24382D01*
X24386D01*
X24390D01*
X24414D01*
X24449Y18707D01*
X24488Y18699D01*
X24528Y18683D01*
X24567Y18663D01*
X24599Y18636D01*
X24622Y18601D01*
X24626D01*
Y18604D01*
X24634Y18616D01*
X24646Y18636D01*
X24666Y18656D01*
X24693Y18675D01*
X24728Y18695D01*
X24776Y18707D01*
X24839Y18711D01*
X25000D01*
Y18506D01*
D02*
G37*
G36*
X22379Y20481D02*
X22395D01*
X22419Y20478D01*
X22446Y20474D01*
X22505Y20462D01*
X22509D01*
X22521Y20458D01*
X22537Y20454D01*
X22556Y20450D01*
X22584Y20442D01*
X22611Y20434D01*
X22678Y20415D01*
X21478Y19647D01*
X21474Y19643D01*
X21462Y19639D01*
X21447Y19624D01*
X21431Y19608D01*
X21415Y19588D01*
X21399Y19565D01*
X21388Y19541D01*
X21384Y19510D01*
Y19498D01*
X21388Y19486D01*
X21396Y19470D01*
X21407Y19450D01*
X21423Y19427D01*
X21443Y19407D01*
X21474Y19384D01*
X21824Y19128D01*
X23245Y20029D01*
X23249Y20025D01*
X23261Y20009D01*
X23280Y19986D01*
X23304Y19954D01*
X23335Y19911D01*
X23367Y19860D01*
X23402Y19805D01*
X23438Y19738D01*
X23473Y19667D01*
X23509Y19584D01*
X23540Y19502D01*
X23572Y19407D01*
X23595Y19309D01*
X23615Y19207D01*
X23627Y19100D01*
X23631Y18986D01*
Y18959D01*
X23627Y18927D01*
X23623Y18884D01*
X23615Y18829D01*
X23607Y18766D01*
X23591Y18699D01*
X23572Y18620D01*
X23548Y18542D01*
X23517Y18455D01*
X23481Y18364D01*
X23438Y18274D01*
X23383Y18183D01*
X23324Y18093D01*
X23253Y18006D01*
X23170Y17920D01*
X22643Y18301D01*
X22639Y18305D01*
X22623Y18309D01*
X22600Y18317D01*
X22580Y18321D01*
X22556Y18325D01*
X22548D01*
X22529Y18321D01*
X22493Y18309D01*
X22450Y18286D01*
X22005Y18002D01*
X22592Y17581D01*
X22588D01*
X22584Y17577D01*
X22560Y17573D01*
X22525Y17566D01*
X22478Y17558D01*
X22419Y17546D01*
X22356Y17538D01*
X22281Y17534D01*
X22206Y17530D01*
X22198D01*
X22183D01*
X22151Y17534D01*
X22116Y17538D01*
X22068Y17542D01*
X22013Y17550D01*
X21950Y17566D01*
X21883Y17581D01*
X21813Y17601D01*
X21734Y17629D01*
X21655Y17664D01*
X21577Y17699D01*
X21498Y17747D01*
X21415Y17802D01*
X21337Y17865D01*
X21262Y17936D01*
X21258Y17939D01*
X21242Y17955D01*
X21222Y17979D01*
X21195Y18014D01*
X21159Y18057D01*
X21124Y18109D01*
X21085Y18168D01*
X21045Y18235D01*
X21006Y18309D01*
X20967Y18392D01*
X20927Y18482D01*
X20896Y18577D01*
X20868Y18679D01*
X20849Y18789D01*
X20833Y18904D01*
X20829Y19026D01*
Y19081D01*
X20833Y19108D01*
X20837Y19140D01*
Y19179D01*
X20845Y19218D01*
X20856Y19309D01*
X20880Y19407D01*
X20908Y19506D01*
X20947Y19604D01*
X22352Y20485D01*
X22356D01*
X22364D01*
X22379Y20481D01*
D02*
G37*
G36*
X24839Y17743D02*
X24902Y17735D01*
X24929Y17727D01*
X24949Y17719D01*
X24953D01*
X24957Y17711D01*
X24969Y17699D01*
X24976Y17684D01*
X24988Y17656D01*
X25000Y17625D01*
X25004Y17585D01*
X25008Y17538D01*
Y17149D01*
X25004Y17121D01*
X24996Y17086D01*
X24988Y17046D01*
X24976Y17007D01*
X24957Y16971D01*
X24929Y16944D01*
X24925Y16940D01*
X24913Y16936D01*
X24894Y16924D01*
X24866Y16912D01*
X24831Y16901D01*
X24784Y16893D01*
X24728Y16885D01*
X24662Y16881D01*
X24370D01*
X24366D01*
X24359D01*
X24343D01*
X24323Y16885D01*
X24272Y16893D01*
X24213Y16905D01*
X24154Y16928D01*
X24099Y16964D01*
X24075Y16987D01*
X24056Y17015D01*
X24040Y17042D01*
X24032Y17078D01*
Y17086D01*
X24028Y17105D01*
X24024Y17137D01*
Y17487D01*
X24028Y17534D01*
Y17581D01*
X24032Y17625D01*
X24040Y17660D01*
X24044Y17672D01*
X24048Y17680D01*
Y17684D01*
X24056Y17688D01*
X24067Y17695D01*
X24087Y17707D01*
X24115Y17719D01*
X24154Y17727D01*
X24205Y17731D01*
X24272Y17735D01*
Y17204D01*
X24276Y17180D01*
X24288Y17152D01*
X24311Y17125D01*
X24319Y17121D01*
X24327Y17117D01*
X24343Y17109D01*
X24363Y17105D01*
X24390Y17097D01*
X24425Y17093D01*
X24465D01*
X24571D01*
X24575D01*
X24591D01*
X24610D01*
X24630Y17097D01*
X24681Y17101D01*
X24701Y17105D01*
X24717Y17109D01*
X24725Y17113D01*
X24740Y17129D01*
X24748Y17145D01*
X24756Y17160D01*
X24760Y17184D01*
X24764Y17208D01*
Y17747D01*
X24772D01*
X24788D01*
X24811D01*
X24839Y17743D01*
D02*
G37*
G36*
X25000Y16535D02*
X24036D01*
Y16759D01*
X25000D01*
Y16535D01*
D02*
G37*
G36*
Y16169D02*
X24185Y16102D01*
Y16098D01*
X24839Y15850D01*
X24843D01*
X24854Y15842D01*
X24874Y15830D01*
X24894Y15815D01*
X24913Y15795D01*
X24933Y15771D01*
X24945Y15744D01*
X24949Y15708D01*
Y15693D01*
X24941Y15673D01*
X24933Y15649D01*
X24921Y15622D01*
X24902Y15598D01*
X24874Y15578D01*
X24839Y15559D01*
X24197Y15311D01*
Y15307D01*
X25000Y15236D01*
Y15000D01*
X23855Y15122D01*
X23847D01*
X23831Y15126D01*
X23812Y15134D01*
X23784Y15146D01*
X23760Y15161D01*
X23737Y15185D01*
X23721Y15216D01*
X23717Y15252D01*
Y15272D01*
X23725Y15295D01*
X23733Y15323D01*
X23749Y15350D01*
X23772Y15382D01*
X23804Y15405D01*
X23847Y15429D01*
X24547Y15704D01*
Y15708D01*
X23847Y15984D01*
X23843Y15988D01*
X23827Y15992D01*
X23808Y16007D01*
X23780Y16023D01*
X23757Y16047D01*
X23737Y16078D01*
X23721Y16114D01*
X23717Y16157D01*
Y16161D01*
X23721Y16173D01*
X23725Y16192D01*
X23737Y16216D01*
X23753Y16236D01*
X23780Y16255D01*
X23816Y16275D01*
X23867Y16283D01*
X25000Y16413D01*
Y16169D01*
D02*
G37*
G36*
X22284Y6753D02*
X22292D01*
X22310Y6751D01*
X22331Y6749D01*
X22352Y6745D01*
X22374Y6740D01*
X22393Y6733D01*
X22394D01*
X22395Y6732D01*
X22401Y6729D01*
X22410Y6724D01*
X22420Y6717D01*
X22433Y6708D01*
X22446Y6696D01*
X22458Y6682D01*
X22469Y6667D01*
X22470Y6665D01*
X22473Y6659D01*
X22478Y6651D01*
X22484Y6638D01*
X22489Y6624D01*
X22494Y6609D01*
X22497Y6592D01*
X22498Y6574D01*
Y6572D01*
Y6567D01*
X22497Y6558D01*
X22495Y6547D01*
X22492Y6534D01*
X22487Y6519D01*
X22480Y6505D01*
X22472Y6490D01*
X22471Y6488D01*
X22468Y6484D01*
X22462Y6476D01*
X22454Y6467D01*
X22444Y6457D01*
X22432Y6446D01*
X22416Y6436D01*
X22399Y6426D01*
X22400D01*
X22402Y6425D01*
X22405Y6424D01*
X22409Y6422D01*
X22421Y6417D01*
X22436Y6410D01*
X22451Y6401D01*
X22468Y6390D01*
X22484Y6377D01*
X22498Y6360D01*
X22499Y6358D01*
X22503Y6352D01*
X22509Y6343D01*
X22515Y6331D01*
X22521Y6315D01*
X22527Y6297D01*
X22531Y6277D01*
X22532Y6255D01*
Y6254D01*
Y6253D01*
Y6246D01*
X22531Y6236D01*
X22529Y6224D01*
X22527Y6210D01*
X22523Y6195D01*
X22518Y6178D01*
X22511Y6162D01*
X22510Y6160D01*
X22507Y6155D01*
X22503Y6148D01*
X22497Y6138D01*
X22489Y6127D01*
X22480Y6116D01*
X22470Y6105D01*
X22459Y6096D01*
X22458Y6095D01*
X22454Y6092D01*
X22447Y6088D01*
X22438Y6084D01*
X22427Y6077D01*
X22413Y6071D01*
X22399Y6066D01*
X22382Y6061D01*
X22380D01*
X22374Y6059D01*
X22363Y6058D01*
X22350Y6056D01*
X22334Y6054D01*
X22315Y6052D01*
X22293Y6051D01*
X22269Y6050D01*
X22000D01*
Y6754D01*
X22277D01*
X22284Y6753D01*
D02*
G37*
G36*
X22609Y11050D02*
X22503D01*
X22420Y11264D01*
X22125D01*
X22049Y11050D01*
X21950D01*
X22219Y11754D01*
X22321D01*
X22609Y11050D01*
D02*
G37*
%LPC*%
G36*
X13846Y34791D02*
X13716Y34434D01*
X13981D01*
X13846Y34791D01*
D02*
G37*
G36*
X12919Y34852D02*
X12697D01*
Y34608D01*
X12886D01*
X12914Y34609D01*
X12943Y34610D01*
X12972Y34612D01*
X12984Y34613D01*
X12995Y34615D01*
X13007Y34617D01*
X13013Y34619D01*
X13015D01*
X13019Y34621D01*
X13026Y34624D01*
X13033Y34628D01*
X13051Y34641D01*
X13059Y34649D01*
X13068Y34659D01*
X13069Y34660D01*
X13070Y34665D01*
X13075Y34670D01*
X13079Y34678D01*
X13081Y34690D01*
X13086Y34702D01*
X13087Y34716D01*
X13088Y34731D01*
Y34734D01*
Y34739D01*
X13087Y34748D01*
X13086Y34759D01*
X13081Y34771D01*
X13077Y34784D01*
X13070Y34798D01*
X13062Y34809D01*
X13061Y34810D01*
X13058Y34814D01*
X13051Y34819D01*
X13043Y34826D01*
X13033Y34832D01*
X13020Y34838D01*
X13005Y34844D01*
X12988Y34848D01*
X12987D01*
X12983Y34849D01*
X12975D01*
X12962Y34850D01*
X12932D01*
X12919Y34852D01*
D02*
G37*
G36*
X16070Y33216D02*
X16068D01*
X16063Y33214D01*
X16055Y33212D01*
X16042Y33208D01*
X16027Y33204D01*
X16006Y33198D01*
X15984Y33193D01*
X15956Y33187D01*
X15953D01*
X15949Y33186D01*
X15944Y33184D01*
X15931Y33182D01*
X15914Y33177D01*
X15898Y33173D01*
X15881Y33168D01*
X15867Y33161D01*
X15856Y33155D01*
X15855Y33154D01*
X15851Y33151D01*
X15845Y33145D01*
X15839Y33139D01*
X15832Y33129D01*
X15827Y33118D01*
X15823Y33105D01*
X15821Y33091D01*
Y33090D01*
Y33084D01*
X15823Y33077D01*
X15826Y33069D01*
X15828Y33058D01*
X15832Y33047D01*
X15839Y33036D01*
X15849Y33025D01*
X15851Y33023D01*
X15855Y33021D01*
X15860Y33016D01*
X15870Y33011D01*
X15880Y33005D01*
X15892Y33001D01*
X15907Y32998D01*
X15923Y32997D01*
X15931D01*
X15941Y32998D01*
X15953Y33001D01*
X15969Y33005D01*
X15984Y33011D01*
X16002Y33018D01*
X16018Y33029D01*
X16020Y33030D01*
X16024Y33033D01*
X16030Y33039D01*
X16037Y33046D01*
X16043Y33055D01*
X16050Y33065D01*
X16057Y33077D01*
X16062Y33090D01*
Y33091D01*
X16063Y33094D01*
X16064Y33101D01*
X16066Y33109D01*
X16067Y33122D01*
X16068Y33137D01*
X16070Y33157D01*
Y33179D01*
Y33216D01*
D02*
G37*
G36*
X12412D02*
X12411D01*
X12406Y33214D01*
X12397Y33212D01*
X12385Y33208D01*
X12369Y33204D01*
X12349Y33198D01*
X12326Y33193D01*
X12299Y33187D01*
X12296D01*
X12292Y33186D01*
X12286Y33184D01*
X12274Y33182D01*
X12257Y33177D01*
X12240Y33173D01*
X12224Y33168D01*
X12210Y33161D01*
X12199Y33155D01*
X12197Y33154D01*
X12193Y33151D01*
X12188Y33145D01*
X12182Y33139D01*
X12175Y33129D01*
X12170Y33118D01*
X12165Y33105D01*
X12164Y33091D01*
Y33090D01*
Y33084D01*
X12165Y33077D01*
X12168Y33069D01*
X12171Y33058D01*
X12175Y33047D01*
X12182Y33036D01*
X12192Y33025D01*
X12193Y33023D01*
X12197Y33021D01*
X12203Y33016D01*
X12213Y33011D01*
X12222Y33005D01*
X12235Y33001D01*
X12250Y32998D01*
X12265Y32997D01*
X12274D01*
X12283Y32998D01*
X12296Y33001D01*
X12311Y33005D01*
X12326Y33011D01*
X12344Y33018D01*
X12361Y33029D01*
X12362Y33030D01*
X12367Y33033D01*
X12372Y33039D01*
X12379Y33046D01*
X12386Y33055D01*
X12393Y33065D01*
X12400Y33077D01*
X12404Y33090D01*
Y33091D01*
X12406Y33094D01*
X12407Y33101D01*
X12408Y33109D01*
X12410Y33122D01*
X12411Y33137D01*
X12412Y33157D01*
Y33179D01*
Y33216D01*
D02*
G37*
G36*
X11478Y33681D02*
X11256D01*
Y33437D01*
X11445D01*
X11473Y33438D01*
X11502Y33440D01*
X11531Y33441D01*
X11544Y33443D01*
X11555Y33444D01*
X11566Y33447D01*
X11573Y33448D01*
X11574D01*
X11578Y33451D01*
X11585Y33454D01*
X11592Y33458D01*
X11610Y33470D01*
X11619Y33479D01*
X11627Y33488D01*
X11628Y33490D01*
X11630Y33494D01*
X11634Y33499D01*
X11638Y33508D01*
X11641Y33519D01*
X11645Y33531D01*
X11646Y33545D01*
X11648Y33561D01*
Y33563D01*
Y33569D01*
X11646Y33577D01*
X11645Y33588D01*
X11641Y33601D01*
X11637Y33613D01*
X11630Y33627D01*
X11621Y33638D01*
X11620Y33640D01*
X11617Y33644D01*
X11610Y33648D01*
X11602Y33655D01*
X11592Y33662D01*
X11580Y33667D01*
X11564Y33673D01*
X11548Y33677D01*
X11546D01*
X11542Y33678D01*
X11534D01*
X11521Y33680D01*
X11491D01*
X11478Y33681D01*
D02*
G37*
G36*
X17902Y33454D02*
X17892D01*
X17881Y33451D01*
X17867Y33448D01*
X17852Y33443D01*
X17835Y33436D01*
X17819Y33424D01*
X17803Y33409D01*
X17802Y33408D01*
X17798Y33401D01*
X17791Y33391D01*
X17784Y33377D01*
X17776Y33361D01*
X17770Y33340D01*
X17766Y33316D01*
X17765Y33290D01*
X18039D01*
Y33291D01*
Y33294D01*
Y33297D01*
X18038Y33302D01*
X18037Y33318D01*
X18034Y33334D01*
X18028Y33354D01*
X18021Y33375D01*
X18010Y33394D01*
X17998Y33411D01*
X17996Y33412D01*
X17991Y33418D01*
X17982Y33424D01*
X17971Y33433D01*
X17958Y33440D01*
X17941Y33447D01*
X17923Y33452D01*
X17902Y33454D01*
D02*
G37*
G36*
X24414Y22819D02*
X24374D01*
X24370D01*
X24359D01*
X24339Y22815D01*
X24319Y22811D01*
X24304Y22799D01*
X24284Y22787D01*
X24272Y22768D01*
X24268Y22744D01*
Y22362D01*
X24512D01*
Y22768D01*
X24508Y22776D01*
X24500Y22787D01*
X24488Y22799D01*
X24469Y22811D01*
X24445Y22815D01*
X24414Y22819D01*
D02*
G37*
G36*
X21120Y20222D02*
X21116D01*
X21100D01*
X21081Y20214D01*
X21057Y20206D01*
X21034Y20190D01*
X21014Y20167D01*
X20998Y20135D01*
X20994Y20092D01*
Y20072D01*
X21002Y20049D01*
X21010Y20025D01*
X21026Y19997D01*
X21045Y19978D01*
X21077Y19962D01*
X21120Y19954D01*
X21124D01*
X21128D01*
X21152Y19958D01*
X21183Y19970D01*
X21218Y19994D01*
X21226Y20001D01*
X21238Y20021D01*
X21250Y20053D01*
X21258Y20092D01*
Y20096D01*
X21254Y20112D01*
X21250Y20131D01*
X21242Y20159D01*
X21222Y20182D01*
X21199Y20202D01*
X21167Y20218D01*
X21120Y20222D01*
D02*
G37*
%LPD*%
G36*
X21218Y20131D02*
X21140Y20084D01*
Y20053D01*
X21218D01*
Y20025D01*
X21030D01*
Y20104D01*
X21037Y20127D01*
X21053Y20147D01*
X21065Y20155D01*
X21085Y20159D01*
X21089D01*
X21093D01*
X21112Y20155D01*
X21128Y20139D01*
X21136Y20127D01*
X21140Y20112D01*
X21218Y20163D01*
Y20131D01*
D02*
G37*
%LPC*%
G36*
X21085Y20127D02*
X21081D01*
X21069Y20123D01*
X21061Y20115D01*
X21057Y20100D01*
Y20053D01*
X21116D01*
Y20104D01*
X21112Y20115D01*
X21104Y20123D01*
X21085Y20127D01*
D02*
G37*
G36*
X24606Y19537D02*
X24571D01*
X24465D01*
X24461D01*
X24445D01*
X24429D01*
X24406Y19533D01*
X24355Y19521D01*
X24331Y19510D01*
X24311Y19498D01*
X24307D01*
X24304Y19490D01*
X24288Y19470D01*
X24276Y19443D01*
X24268Y19423D01*
Y19155D01*
X24272Y19132D01*
X24288Y19100D01*
X24296Y19085D01*
X24311Y19073D01*
X24319Y19069D01*
X24331Y19065D01*
X24347Y19057D01*
X24366Y19053D01*
X24394Y19045D01*
X24425Y19041D01*
X24465D01*
X24571D01*
X24575D01*
X24591D01*
X24606D01*
X24630Y19045D01*
X24681Y19049D01*
X24705Y19053D01*
X24725Y19061D01*
X24732Y19065D01*
X24744Y19081D01*
X24756Y19108D01*
X24764Y19128D01*
Y19415D01*
X24760Y19431D01*
X24752Y19450D01*
X24740Y19474D01*
X24717Y19498D01*
X24681Y19517D01*
X24662Y19525D01*
X24634Y19533D01*
X24606Y19537D01*
D02*
G37*
G36*
X24406Y18518D02*
X24374D01*
X24370D01*
X24359D01*
X24339Y18514D01*
X24319Y18506D01*
X24304Y18494D01*
X24284Y18475D01*
X24272Y18451D01*
X24268Y18420D01*
Y18069D01*
X24508D01*
Y18451D01*
X24504Y18463D01*
X24496Y18479D01*
X24485Y18494D01*
X24465Y18506D01*
X24441Y18514D01*
X24406Y18518D01*
D02*
G37*
G36*
X22663Y19403D02*
X21474Y18648D01*
X21470Y18644D01*
X21458Y18636D01*
X21443Y18624D01*
X21427Y18608D01*
X21411Y18589D01*
X21396Y18565D01*
X21384Y18542D01*
X21380Y18514D01*
Y18502D01*
X21384Y18486D01*
X21392Y18471D01*
X21403Y18451D01*
X21419Y18427D01*
X21439Y18404D01*
X21470Y18380D01*
X21821Y18132D01*
X23013Y18884D01*
X23017Y18888D01*
X23029Y18896D01*
X23048Y18907D01*
X23064Y18923D01*
X23084Y18943D01*
X23103Y18966D01*
X23115Y18986D01*
X23119Y19010D01*
Y19022D01*
X23115Y19037D01*
X23107Y19053D01*
X23099Y19073D01*
X23088Y19096D01*
X23068Y19120D01*
X23040Y19140D01*
X22663Y19403D01*
D02*
G37*
G36*
X22261Y6671D02*
X22094D01*
Y6459D01*
X22267D01*
X22280Y6460D01*
X22294Y6461D01*
X22308Y6462D01*
X22323Y6464D01*
X22334Y6466D01*
X22336Y6467D01*
X22340Y6468D01*
X22346Y6471D01*
X22354Y6476D01*
X22362Y6480D01*
X22372Y6486D01*
X22381Y6494D01*
X22388Y6502D01*
X22389Y6503D01*
X22391Y6506D01*
X22394Y6512D01*
X22397Y6519D01*
X22400Y6527D01*
X22403Y6538D01*
X22405Y6550D01*
X22406Y6563D01*
Y6565D01*
Y6569D01*
X22405Y6575D01*
X22404Y6583D01*
X22402Y6594D01*
X22399Y6604D01*
X22395Y6614D01*
X22389Y6624D01*
X22388Y6625D01*
X22386Y6628D01*
X22382Y6633D01*
X22377Y6638D01*
X22370Y6645D01*
X22361Y6651D01*
X22351Y6657D01*
X22340Y6661D01*
X22339D01*
X22334Y6663D01*
X22327Y6664D01*
X22316Y6666D01*
X22300Y6668D01*
X22283Y6669D01*
X22261Y6671D01*
D02*
G37*
G36*
X22279Y6376D02*
X22094D01*
Y6133D01*
X22294D01*
X22316Y6134D01*
X22325Y6136D01*
X22333Y6137D01*
X22334D01*
X22338Y6138D01*
X22344Y6139D01*
X22351Y6141D01*
X22369Y6147D01*
X22386Y6155D01*
X22387Y6156D01*
X22390Y6158D01*
X22394Y6161D01*
X22399Y6165D01*
X22404Y6171D01*
X22411Y6177D01*
X22416Y6185D01*
X22422Y6195D01*
X22423Y6196D01*
X22425Y6199D01*
X22427Y6205D01*
X22430Y6212D01*
X22433Y6220D01*
X22435Y6230D01*
X22436Y6242D01*
X22437Y6255D01*
Y6257D01*
Y6261D01*
X22436Y6269D01*
X22434Y6278D01*
X22432Y6288D01*
X22428Y6299D01*
X22422Y6311D01*
X22415Y6322D01*
X22414Y6323D01*
X22411Y6327D01*
X22407Y6332D01*
X22401Y6338D01*
X22393Y6345D01*
X22383Y6352D01*
X22372Y6358D01*
X22358Y6364D01*
X22356Y6365D01*
X22352Y6366D01*
X22343Y6368D01*
X22332Y6370D01*
X22318Y6372D01*
X22300Y6374D01*
X22279Y6376D01*
D02*
G37*
G36*
X22268Y11681D02*
Y11680D01*
X22267Y11678D01*
Y11674D01*
X22265Y11670D01*
X22264Y11663D01*
X22262Y11656D01*
X22257Y11638D01*
X22252Y11618D01*
X22245Y11596D01*
X22238Y11571D01*
X22229Y11546D01*
X22153Y11340D01*
X22391D01*
X22318Y11534D01*
Y11535D01*
X22316Y11538D01*
X22314Y11543D01*
X22312Y11549D01*
X22309Y11556D01*
X22306Y11565D01*
X22303Y11575D01*
X22299Y11585D01*
X22291Y11609D01*
X22283Y11633D01*
X22275Y11658D01*
X22268Y11681D01*
D02*
G37*
%LPD*%
D10*
X4400Y7000D02*
G03*
X4400Y7000I-650J0D01*
G01*
X22900Y4500D02*
G03*
X22900Y4500I-650J0D01*
G01*
Y9500D02*
G03*
X22900Y9500I-650J0D01*
G01*
X10900Y7000D02*
G03*
X10900Y7000I-650J0D01*
G01*
X7650Y3750D02*
G03*
X7650Y3750I-650J0D01*
G01*
Y10250D02*
G03*
X7650Y10250I-650J0D01*
G01*
D11*
X2667Y5701D02*
X4833D01*
X4931Y6606D02*
Y7394D01*
X2569Y6606D02*
Y7394D01*
X2667Y8299D02*
X4833D01*
X21167Y5799D02*
X23333D01*
X21069Y4106D02*
Y4894D01*
X23431Y4106D02*
Y4894D01*
X21167Y3201D02*
X23333D01*
X21167Y10799D02*
X23333D01*
X21069Y9106D02*
Y9894D01*
X23431Y9106D02*
Y9894D01*
X21167Y8201D02*
X23333D01*
X9167Y5701D02*
X11333D01*
X11431Y6606D02*
Y7394D01*
X9069Y6606D02*
Y7394D01*
X9167Y8299D02*
X11333D01*
X5917Y2451D02*
X8083D01*
X8181Y3356D02*
Y4144D01*
X5819Y3356D02*
Y4144D01*
X5917Y5049D02*
X8083D01*
X5917Y8951D02*
X8083D01*
X8181Y9856D02*
Y10644D01*
X5819Y9856D02*
Y10644D01*
X5917Y11549D02*
X8083D01*
D12*
X6340Y14600D02*
Y31600D01*
X19660Y14600D02*
Y31600D01*
X6340D02*
X19660D01*
X17620Y14600D02*
X19660D01*
X6340D02*
X6470D01*
D13*
X24100Y950D02*
Y450D01*
X24350D01*
X24433Y533D01*
Y617D01*
X24350Y700D01*
X24100D01*
X24350D01*
X24433Y783D01*
Y867D01*
X24350Y950D01*
X24100D01*
X14900Y450D02*
Y950D01*
X15067Y783D01*
X15233Y950D01*
Y450D01*
X15400D02*
Y950D01*
X15650D01*
X15733Y867D01*
Y700D01*
X15650Y617D01*
X15400D01*
X15900Y950D02*
Y450D01*
X16150D01*
X16233Y533D01*
Y867D01*
X16150Y950D01*
X15900D01*
X16400Y367D02*
X16733D01*
X16899Y450D02*
Y950D01*
X17066Y783D01*
X17233Y950D01*
Y450D01*
X17399Y950D02*
X17566D01*
X17483D01*
Y450D01*
X17399D01*
X17566D01*
X17816D02*
Y950D01*
X18149Y450D01*
Y950D01*
X18316D02*
X18482D01*
X18399D01*
Y450D01*
X18316D01*
X18482D01*
X18732Y367D02*
X19065D01*
X19232Y950D02*
Y450D01*
X19482D01*
X19565Y533D01*
Y867D01*
X19482Y950D01*
X19232D01*
X20065D02*
X19732D01*
Y450D01*
X20065D01*
X19732Y700D02*
X19898D01*
X20232Y450D02*
Y950D01*
X20398Y783D01*
X20565Y950D01*
Y450D01*
X20981Y950D02*
X20815D01*
X20731Y867D01*
Y533D01*
X20815Y450D01*
X20981D01*
X21065Y533D01*
Y867D01*
X20981Y950D01*
X22250Y450D02*
Y950D01*
X22500D01*
X22583Y867D01*
Y700D01*
X22500Y617D01*
X22250D01*
X22417D02*
X22583Y450D01*
X23083Y950D02*
X22750D01*
Y450D01*
X23083D01*
X22750Y700D02*
X22916D01*
X23250Y950D02*
Y617D01*
X23416Y450D01*
X23583Y617D01*
Y950D01*
X3683Y7197D02*
X3600Y7280D01*
X3433D01*
X3350Y7197D01*
Y7113D01*
X3433Y7030D01*
X3600D01*
X3683Y6947D01*
Y6863D01*
X3600Y6780D01*
X3433D01*
X3350Y6863D01*
X3850Y7197D02*
X3933Y7280D01*
X4100D01*
X4183Y7197D01*
Y7113D01*
X4100Y7030D01*
X4016D01*
X4100D01*
X4183Y6947D01*
Y6863D01*
X4100Y6780D01*
X3933D01*
X3850Y6863D01*
X6933Y10417D02*
X6850Y10500D01*
X6683D01*
X6600Y10417D01*
Y10333D01*
X6683Y10250D01*
X6850D01*
X6933Y10167D01*
Y10083D01*
X6850Y10000D01*
X6683D01*
X6600Y10083D01*
X7350Y10000D02*
Y10500D01*
X7100Y10250D01*
X7433D01*
X6943Y3937D02*
X6860Y4020D01*
X6693D01*
X6610Y3937D01*
Y3853D01*
X6693Y3770D01*
X6860D01*
X6943Y3687D01*
Y3603D01*
X6860Y3520D01*
X6693D01*
X6610Y3603D01*
X7443Y4020D02*
X7110D01*
Y3770D01*
X7276Y3853D01*
X7360D01*
X7443Y3770D01*
Y3603D01*
X7360Y3520D01*
X7193D01*
X7110Y3603D01*
X10163Y7167D02*
X10080Y7250D01*
X9913D01*
X9830Y7167D01*
Y7083D01*
X9913Y7000D01*
X10080D01*
X10163Y6917D01*
Y6833D01*
X10080Y6750D01*
X9913D01*
X9830Y6833D01*
X10663Y7250D02*
X10496Y7167D01*
X10330Y7000D01*
Y6833D01*
X10413Y6750D01*
X10580D01*
X10663Y6833D01*
Y6917D01*
X10580Y7000D01*
X10330D01*
X6650Y31350D02*
Y30850D01*
X6983D01*
X7483Y31267D02*
X7400Y31350D01*
X7233D01*
X7150Y31267D01*
Y30933D01*
X7233Y30850D01*
X7400D01*
X7483Y30933D01*
X7650Y31350D02*
Y30850D01*
X7900D01*
X7983Y30933D01*
Y31267D01*
X7900Y31350D01*
X7650D01*
X8150Y30850D02*
X8316D01*
X8233D01*
Y31350D01*
X8150Y31267D01*
X22183Y9667D02*
X22100Y9750D01*
X21933D01*
X21850Y9667D01*
Y9583D01*
X21933Y9500D01*
X22100D01*
X22183Y9417D01*
Y9333D01*
X22100Y9250D01*
X21933D01*
X21850Y9333D01*
X22350Y9250D02*
X22516D01*
X22433D01*
Y9750D01*
X22350Y9667D01*
X22183Y4667D02*
X22100Y4750D01*
X21933D01*
X21850Y4667D01*
Y4583D01*
X21933Y4500D01*
X22100D01*
X22183Y4417D01*
Y4333D01*
X22100Y4250D01*
X21933D01*
X21850Y4333D01*
X22683Y4250D02*
X22350D01*
X22683Y4583D01*
Y4667D01*
X22600Y4750D01*
X22433D01*
X22350Y4667D01*
M02*
