G04*
G04 #@! TF.GenerationSoftware,Altium Limited,Altium Designer,19.1.8 (144)*
G04*
G04 Layer_Physical_Order=2*
G04 Layer_Color=16711680*
%FSLAX24Y24*%
%MOIN*%
G70*
G01*
G75*
%ADD11C,0.0100*%
%ADD12C,0.0080*%
%ADD28C,0.0200*%
%ADD29C,0.0300*%
%ADD30C,0.0050*%
%ADD31C,0.0600*%
%ADD32C,0.0220*%
%ADD33C,0.0350*%
%ADD34R,0.0394X0.0394*%
%ADD35C,0.0394*%
%ADD36R,0.0591X0.0591*%
%ADD37C,0.0591*%
%ADD38C,0.0670*%
%ADD39C,0.0600*%
%ADD40R,0.0600X0.0600*%
%ADD41C,0.0220*%
%ADD42C,0.0300*%
%ADD43C,0.0500*%
%ADD44O,0.0217X0.0591*%
%ADD45O,0.0591X0.0217*%
%ADD46R,0.0560X0.0480*%
%ADD47R,0.0217X0.0453*%
%ADD48R,0.0256X0.0413*%
%ADD49R,0.0118X0.0256*%
%ADD50R,0.0394X0.0689*%
%ADD51R,0.0354X0.0315*%
%ADD52R,0.0110X0.0161*%
%ADD53R,0.0161X0.0110*%
%ADD54R,0.0315X0.0315*%
%ADD55R,0.0800X0.0260*%
%ADD56R,0.0120X0.0490*%
%ADD57R,0.0790X0.1180*%
%ADD58R,0.0315X0.0354*%
G04:AMPARAMS|DCode=59|XSize=175mil|YSize=80mil|CornerRadius=12mil|HoleSize=0mil|Usage=FLASHONLY|Rotation=180.000|XOffset=0mil|YOffset=0mil|HoleType=Round|Shape=RoundedRectangle|*
%AMROUNDEDRECTD59*
21,1,0.1750,0.0560,0,0,180.0*
21,1,0.1510,0.0800,0,0,180.0*
1,1,0.0240,-0.0755,0.0280*
1,1,0.0240,0.0755,0.0280*
1,1,0.0240,0.0755,-0.0280*
1,1,0.0240,-0.0755,-0.0280*
%
%ADD59ROUNDEDRECTD59*%
%ADD60R,0.2100X0.2600*%
%ADD61R,0.0256X0.0118*%
%ADD62C,0.0210*%
%ADD63C,0.0250*%
%ADD64C,0.0150*%
%ADD65C,0.0500*%
%ADD66C,0.0120*%
%ADD67C,0.0110*%
%ADD68R,0.0180X0.0140*%
%ADD69R,0.0445X0.0140*%
%ADD70R,0.1795X0.0140*%
%ADD71R,0.0100X0.0300*%
%ADD72R,0.1750X0.0950*%
%ADD73R,0.0120X0.0020*%
D11*
X19200Y10550D02*
X19225Y10525D01*
X19200Y10550D02*
Y11650D01*
X14624Y11474D02*
Y11901D01*
X14500Y11350D02*
X14624Y11474D01*
X13900Y11350D02*
X14500D01*
X13876Y11326D02*
X13900Y11350D01*
X13876Y10799D02*
Y11326D01*
D12*
X10100Y6385D02*
X10200Y6285D01*
Y5100D02*
Y6285D01*
Y5100D02*
X10500Y4800D01*
X12700D02*
X16000D01*
X10585Y7015D02*
Y12500D01*
X10100Y7015D02*
X10585D01*
X10950Y6000D02*
Y6385D01*
Y6000D02*
X11150Y5800D01*
X10585Y7015D02*
X10950D01*
X11150Y5800D02*
X16000D01*
X12700Y6115D02*
Y6550D01*
X12950Y6800D01*
X16000D01*
X11850Y6115D02*
Y6900D01*
X12750Y7800D01*
X16000D01*
X12700Y4800D02*
Y5485D01*
X11850Y5485D02*
Y5800D01*
X10500Y4800D02*
X12700D01*
X10350Y30500D02*
X10600Y30250D01*
X10150Y10300D02*
Y11285D01*
Y11965D02*
Y12500D01*
X9550Y9700D02*
X10150Y10300D01*
X7965Y26300D02*
X8000Y26265D01*
X4250Y7600D02*
X4550Y7300D01*
X4250Y7600D02*
Y21725D01*
X17850Y30750D02*
X18900D01*
X17426Y30326D02*
X17850Y30750D01*
X14394Y30326D02*
X17426D01*
X24300Y33765D02*
X24650D01*
X21115D02*
X24300D01*
X18100Y30500D02*
X19200D01*
X17611Y30011D02*
X18100Y30500D01*
X14394Y30011D02*
X17611D01*
X19219Y29381D02*
X19400Y29200D01*
X14394Y29381D02*
X19219D01*
X19400Y27250D02*
Y29200D01*
X10550Y30600D02*
Y31050D01*
X8745Y32855D02*
X10550Y31050D01*
X4672Y32855D02*
X8745D01*
X8500Y32350D02*
X9050Y31800D01*
X3750Y32350D02*
X8500D01*
X3050Y33050D02*
X3750Y32350D01*
X4415Y32585D02*
X8615D01*
X4350Y32650D02*
X4415Y32585D01*
X8615D02*
X9300Y31900D01*
X15100Y33050D02*
X15535D01*
X15550Y33065D01*
X18250Y12015D02*
Y12750D01*
X13869Y27681D02*
X14450Y27100D01*
X13231Y27681D02*
X13869D01*
X1450Y11200D02*
Y20600D01*
X17098Y31967D02*
Y32935D01*
X19900Y6400D02*
X20250Y6050D01*
X2450Y7050D02*
Y7169D01*
X2450Y7169D01*
X2450Y21200D02*
X2450Y7169D01*
X4846Y11725D02*
Y24246D01*
X4850Y24250D01*
X3450Y9050D02*
Y21900D01*
X3150Y8750D02*
X3450Y9050D01*
X21400Y30700D02*
X21600Y30500D01*
X21600Y5900D02*
X21600Y30500D01*
X19400Y29200D02*
X22550Y32350D01*
X14394Y29066D02*
X18484D01*
X18500Y29050D01*
X19400Y30050D02*
X22300Y32950D01*
X18500Y30050D02*
X19400D01*
X7000Y4800D02*
X7700Y5500D01*
Y6450D01*
X9550Y8300D01*
Y9700D01*
X19900Y27150D02*
X20950Y26100D01*
X20950Y11950D02*
X20950Y26100D01*
X20950Y11150D02*
Y11950D01*
X1900Y21150D02*
X1900Y21150D01*
X1900Y21050D02*
Y21150D01*
Y21050D02*
X1900Y5400D01*
X2450Y21200D02*
Y21550D01*
X19800Y5050D02*
X20050D01*
X21250Y6250D01*
X20050Y4350D02*
X21600Y5900D01*
X21250Y6250D02*
X21250Y30200D01*
X17800Y32700D02*
Y32950D01*
Y31965D02*
Y32700D01*
X19400Y27250D02*
X20450Y26200D01*
X20450Y11785D01*
X19900D02*
X20450D01*
X6300Y5500D02*
Y11550D01*
Y5500D02*
X7000Y4800D01*
X5800Y12050D02*
X6300Y11550D01*
X5800Y12050D02*
Y15800D01*
X12055Y22055D01*
Y22331D01*
X10350Y30500D02*
Y30750D01*
X10144Y30956D02*
X10350Y30750D01*
X9906Y30956D02*
X10144D01*
X24300Y28250D02*
X25250D01*
X25500Y28500D01*
Y29150D01*
X25400Y29250D02*
X25500Y29150D01*
X25000Y29250D02*
X25400D01*
X23950Y29050D02*
X24250Y28750D01*
X25000D01*
X5550Y28350D02*
X5951Y28751D01*
X5550Y28000D02*
Y28350D01*
Y28000D02*
X5885Y27665D01*
X5550Y28000D02*
X5565D01*
X2350Y31750D02*
X3050Y31050D01*
X2350Y31750D02*
Y33250D01*
X2750Y33650D01*
X3350D01*
X4350Y32650D01*
X3850Y5200D02*
X4414Y4636D01*
X4500Y22500D02*
Y23300D01*
X3850Y21850D02*
X4500Y22500D01*
X3850Y21850D02*
X3850Y5200D01*
X4650Y28050D02*
X5350Y27350D01*
X7650D01*
X3050Y28050D02*
X4650D01*
X8600Y30150D02*
Y30766D01*
X19900Y11785D02*
X19900D01*
X19900Y11785D02*
X19900Y11785D01*
X19900Y6400D02*
Y11785D01*
X19200Y12415D02*
Y12950D01*
Y12415D02*
Y12415D01*
X18550Y13600D02*
X19200Y12950D01*
X18250Y14050D02*
Y15000D01*
X14450Y18800D02*
X18250Y15000D01*
X14450Y18800D02*
Y22300D01*
X9450Y30650D02*
X9897D01*
X9300Y30800D02*
X9450Y30650D01*
X18200Y11385D02*
Y11450D01*
X24000Y32950D02*
X25000Y31950D01*
X22300Y32950D02*
X24000D01*
X23450Y32650D02*
X23950Y32150D01*
X22400Y32650D02*
X23450D01*
X23300Y32350D02*
X23650Y32000D01*
X22550Y32350D02*
X23300D01*
X23950Y29050D02*
Y32150D01*
X23650Y28900D02*
Y32000D01*
Y28900D02*
X24300Y28250D01*
X19200Y30500D02*
X20065Y31365D01*
X18900Y30750D02*
X19435Y31285D01*
X25000Y30750D02*
Y31950D01*
X12780Y30580D02*
Y31625D01*
X12600Y30400D02*
X12780Y30580D01*
X10750Y30400D02*
X12600D01*
X10550Y30600D02*
X10750Y30400D01*
X16665Y31965D02*
X17100D01*
X16500Y31800D02*
X16665Y31965D01*
X16750Y31650D02*
X17450D01*
X16650Y31550D02*
X16750Y31650D01*
X14319Y31550D02*
X16650D01*
X13410Y26440D02*
X13900Y25950D01*
X13410Y26440D02*
Y27137D01*
X7965Y26300D02*
X8000Y26335D01*
Y26000D02*
Y26265D01*
X7235Y27665D02*
X7300D01*
X7050Y27850D02*
X7235Y27665D01*
X7050Y27850D02*
Y28000D01*
X9057D01*
X6600D02*
Y28250D01*
X6786Y28436D01*
X9057Y28000D02*
X9178Y28122D01*
X6600Y27665D02*
Y28000D01*
X9050Y30750D02*
X9474Y30326D01*
X8600Y31396D02*
Y31420D01*
X8165Y31855D02*
X8600Y31420D01*
X8165Y31855D02*
Y31900D01*
X13095Y27545D02*
X13231Y27681D01*
X13095Y27137D02*
Y27545D01*
X10890Y26740D02*
Y27137D01*
X12465D02*
Y27615D01*
X17435Y27966D02*
Y28281D01*
X17376Y27907D02*
X17435Y27966D01*
X17376Y27584D02*
Y27907D01*
X8600Y31396D02*
X8605Y31401D01*
X14394Y28751D02*
X15949D01*
X16419Y28281D01*
X17435D01*
X17098Y31967D02*
X17100Y31965D01*
X17325Y33152D02*
X17598D01*
X17800Y32950D01*
X13095Y31138D02*
Y31625D01*
Y31138D02*
X13283Y30950D01*
X13719D01*
X17450Y31650D02*
X17765Y31965D01*
X17800D01*
X9474Y30326D02*
X9906D01*
X8000Y26335D02*
X8015Y26350D01*
X6786Y28436D02*
X9906D01*
X9178Y28122D02*
X9906D01*
X9050Y30750D02*
Y31800D01*
X9300Y30800D02*
Y31900D01*
X13410Y31625D02*
Y32160D01*
X7750Y27450D02*
X10219D01*
X7650Y27350D02*
X7750Y27450D01*
X13719Y30950D02*
X14319Y31550D01*
X15050Y31800D02*
X16500D01*
X14050Y32750D02*
X15850D01*
X16252Y33152D01*
X16675D01*
X13410Y32160D02*
X13650Y32400D01*
X14450D01*
X15050Y31800D01*
X13725Y31625D02*
Y31875D01*
X13900Y32050D01*
X14050D01*
X5951Y28751D02*
X9906D01*
X8015Y26350D02*
X9300D01*
X9500Y26550D01*
X10700D01*
X10890Y26740D01*
X11520Y27137D02*
Y27630D01*
X10219Y27450D02*
X10469Y27700D01*
X11450D01*
X11520Y27630D01*
X11980Y28100D02*
X12465Y27615D01*
X10600Y28100D02*
X11980D01*
X13900Y25950D02*
X14950D01*
X19900Y27150D02*
Y28100D01*
X19435Y31285D02*
Y31750D01*
Y34715D01*
X18415Y35735D02*
X19435Y34715D01*
X20065Y32715D02*
X21115Y33765D01*
X20065Y31750D02*
Y32715D01*
Y31365D02*
Y31750D01*
X14394Y29696D02*
X19446D01*
X22400Y32650D01*
X20250Y6000D02*
X20350D01*
D28*
X12000Y12500D02*
X12100D01*
X10150D02*
X10585D01*
X10600D02*
X12000D01*
X16100Y11650D02*
X17935D01*
X16050D02*
X16100D01*
X18168Y10682D02*
Y11418D01*
X17935Y11650D02*
X18168Y11418D01*
X12100Y12500D02*
X12350D01*
X13876Y11950D02*
X13900Y11950D01*
X13515Y11954D02*
X13876Y11950D01*
X12000Y11338D02*
X12880Y11330D01*
X11300Y11345D02*
X12000Y11338D01*
X9495Y25329D02*
Y25600D01*
X12880Y11330D02*
X13515Y11954D01*
X14245Y11906D02*
Y12740D01*
X19220Y9330D02*
Y9630D01*
X18168Y10682D02*
X19220Y9630D01*
X17450Y6700D02*
Y8340D01*
Y6700D02*
X18643Y5507D01*
Y5073D02*
Y5507D01*
X19017Y3033D02*
Y4227D01*
Y3033D02*
X20300Y1750D01*
X21550D01*
X23000D01*
D29*
X18515Y13635D02*
X18850Y13969D01*
X14250Y12745D02*
Y12750D01*
X7752Y29139D02*
X7787Y29137D01*
X7731Y29120D02*
X7752Y29139D01*
X7711Y29102D02*
X7731Y29120D01*
X10191Y25381D02*
Y25859D01*
X18131Y13250D02*
X18515Y13635D01*
X14680Y11965D02*
X15785D01*
X16100Y11650D02*
X16117Y11633D01*
X15785Y11965D02*
X16100Y11650D01*
X3065Y30065D02*
X4750D01*
X4750Y29025D02*
Y29435D01*
Y28615D02*
Y29025D01*
X6500Y29102D02*
Y32050D01*
Y29102D02*
X7711D01*
X4750Y29025D02*
X6369D01*
X3050Y29050D02*
X4700D01*
X16187Y22900D02*
X17237Y21850D01*
X10800Y22900D02*
X16187D01*
X14150Y13250D02*
X18131D01*
X18550Y21850D02*
X18850Y21550D01*
X18500Y21900D02*
X18550Y21850D01*
Y23700D01*
X17237Y21850D02*
X18550D01*
X18850Y13969D02*
Y21550D01*
X18300Y23950D02*
X18550Y23700D01*
X18300Y23950D02*
Y24800D01*
X16950Y23950D02*
X18300D01*
X5900Y27035D02*
X6600D01*
X7300D01*
X7370Y26965D02*
X8000D01*
X7300Y27035D02*
X7370Y26965D01*
X14700Y10775D02*
X16900D01*
X18141Y24959D02*
X18300Y24800D01*
X18141Y24959D02*
Y25750D01*
X8000Y26965D02*
X9235D01*
X10000Y26050D02*
X10191Y25859D01*
D30*
X12715Y23883D02*
Y24281D01*
X13105Y23883D02*
Y24281D01*
X13500Y23882D02*
Y24281D01*
X12320Y24281D02*
X12320Y24281D01*
X11200Y25700D02*
Y27132D01*
X11205Y27137D01*
X11138Y23881D02*
Y24539D01*
X10745Y23881D02*
Y24545D01*
X11335Y24535D02*
X11530Y24730D01*
X11335Y23881D02*
Y24535D01*
X11138Y24539D02*
X11470Y24870D01*
X10942Y24542D02*
X11410Y25010D01*
X10942Y23881D02*
Y24542D01*
X13305Y23481D02*
Y23880D01*
X12515Y23481D02*
Y23880D01*
X19200Y11650D02*
Y11785D01*
X9906Y29066D02*
X9909Y29070D01*
X11500D01*
X9906Y29381D02*
X9910Y29385D01*
X11400D01*
X9906Y29696D02*
X9910Y29700D01*
X11500D01*
X9906Y30011D02*
X9910Y30015D01*
X11400D01*
X11835Y31625D02*
X11836Y31625D01*
Y30950D02*
Y31625D01*
X11520Y31625D02*
X11520Y31625D01*
X11520Y30750D02*
Y31625D01*
X11200Y31620D02*
X11205Y31625D01*
X11200Y30850D02*
Y31620D01*
X10885Y31620D02*
X10890Y31625D01*
X10885Y30750D02*
Y31620D01*
X11398Y32402D02*
X11520Y32280D01*
Y31625D02*
Y32280D01*
X15943Y27807D02*
X16200Y27550D01*
Y26100D02*
Y27550D01*
X15110Y25010D02*
X16200Y26100D01*
X15878Y28122D02*
X16350Y27650D01*
Y26000D02*
Y27650D01*
X15220Y24870D02*
X16350Y26000D01*
X15814Y28436D02*
X16500Y27750D01*
Y25900D02*
Y27750D01*
X15330Y24730D02*
X16500Y25900D01*
X13725Y26725D02*
X13850Y26600D01*
X13725Y26725D02*
Y27137D01*
X11530Y24730D02*
X15330D01*
X11470Y24870D02*
X15220D01*
X11410Y25010D02*
X15110D01*
X9050Y29381D02*
X9350D01*
X8998Y29433D02*
X9050Y29381D01*
X8626Y29433D02*
X8998D01*
X9130Y30011D02*
X9350D01*
X9450Y29066D02*
X9450Y29066D01*
X9906D01*
X9350Y29381D02*
X9350Y29381D01*
X9906D01*
X9450Y29696D02*
X9450Y29696D01*
X9906D01*
X9350Y30011D02*
X9350Y30011D01*
X9906D01*
X11835Y31625D02*
Y32181D01*
X11205Y31625D02*
Y32181D01*
X10890Y32081D02*
X10890Y32081D01*
Y31625D02*
Y32081D01*
X13500Y23882D02*
X13501Y23881D01*
X13105Y23883D02*
X13107Y23881D01*
X12713D02*
X12715Y23883D01*
X13698Y23881D02*
X13700Y23879D01*
Y23481D02*
Y23879D01*
X13304Y23881D02*
X13305Y23880D01*
X12910Y23881D02*
X12910Y23881D01*
X12910Y23481D02*
Y23881D01*
X12515Y23880D02*
X12516Y23881D01*
X12520Y23878D01*
X12320Y23881D02*
Y24281D01*
X9115Y29066D02*
X9450D01*
X8626Y29236D02*
X8945D01*
X9115Y29066D01*
X8626Y29630D02*
X8998D01*
X9065Y29696D01*
X9450D01*
X8626Y29827D02*
X8945D01*
X9130Y30011D01*
X11205Y32181D02*
X11205Y32181D01*
X11205Y32181D02*
Y32774D01*
X11398Y32402D02*
Y32774D01*
X11595Y32421D02*
Y32774D01*
Y32421D02*
X11835Y32181D01*
X10890Y32081D02*
Y32290D01*
X11005Y32405D01*
Y32774D01*
X14394Y28436D02*
X15814D01*
X14394Y28122D02*
X15878D01*
X14394Y27807D02*
X15943D01*
X10745Y24545D02*
X11350Y25150D01*
X11926Y23881D02*
Y24324D01*
X11850Y24400D02*
X11926Y24324D01*
X11650Y24400D02*
X11850D01*
X13850Y26600D02*
X14950D01*
X15300Y26250D01*
X11350Y25150D02*
X14950D01*
X15300Y25500D01*
Y26250D01*
D31*
X23000Y23750D02*
Y31650D01*
X1500Y34650D02*
X10300D01*
X850Y34000D02*
X1500Y34650D01*
X850Y27300D02*
Y34000D01*
Y27300D02*
X3000Y25150D01*
Y23750D02*
Y25150D01*
D32*
X8050Y29827D02*
Y29881D01*
Y29300D02*
Y29827D01*
X10900Y11950D02*
X11300D01*
X9500Y25065D02*
Y25326D01*
X9485Y25050D02*
X9500Y25065D01*
X7887Y29137D02*
X8050Y29300D01*
X7791Y29137D02*
X7887D01*
X7750Y29100D02*
X7787Y29137D01*
X19200Y12415D02*
X19900D01*
X19200D02*
X19200D01*
X15180Y12750D02*
X15485D01*
X14875D02*
X15180D01*
X25600Y30500D02*
Y35550D01*
X24350Y36800D02*
X25600Y35550D01*
X16700Y36800D02*
X24350D01*
X16300Y36400D02*
X16700Y36800D01*
X16300Y35300D02*
Y36400D01*
X25000Y30250D02*
X25350D01*
X25600Y30500D01*
X18350Y33350D02*
Y34650D01*
X18150Y34850D02*
X18350Y34650D01*
X16750Y34850D02*
X18150D01*
X16300Y35300D02*
X16750Y34850D01*
X17150Y33950D02*
X17600D01*
X17100Y31000D02*
Y31335D01*
X14250Y10799D02*
X14250Y10799D01*
Y10450D02*
Y10799D01*
X7050Y31900D02*
X7535D01*
X18124Y27584D02*
Y28222D01*
X18065Y28281D02*
X18124Y28222D01*
X18050Y28296D02*
X18065Y28281D01*
X18050Y28296D02*
Y28631D01*
X17215Y34015D02*
Y34300D01*
X17000Y33600D02*
Y33800D01*
X15485Y12750D02*
X15500Y12765D01*
X18350Y31500D02*
Y33350D01*
X15550Y32150D02*
Y32435D01*
X16585Y34300D02*
Y34685D01*
X16750Y34850D01*
X18185Y31335D02*
X18350Y31500D01*
X17800Y31335D02*
X18185D01*
X17100D02*
X17800D01*
X17000Y33800D02*
X17150Y33950D01*
X17215Y34015D01*
D33*
X18350Y9690D02*
D03*
Y7010D02*
D03*
D34*
X25000Y30750D02*
D03*
D35*
Y30250D02*
D03*
Y29750D02*
D03*
Y29250D02*
D03*
Y28750D02*
D03*
D36*
X3050Y28050D02*
D03*
D37*
Y29050D02*
D03*
Y30050D02*
D03*
Y31050D02*
D03*
Y32050D02*
D03*
Y33050D02*
D03*
D38*
X25090Y3150D02*
D03*
X910Y22350D02*
D03*
D39*
X7000Y4800D02*
D03*
Y8800D02*
D03*
X16000Y4800D02*
D03*
Y8800D02*
D03*
X7000Y5800D02*
D03*
Y3800D02*
D03*
Y7800D02*
D03*
Y6800D02*
D03*
X16000Y2800D02*
D03*
Y3800D02*
D03*
Y5800D02*
D03*
Y6800D02*
D03*
Y7800D02*
D03*
X7000Y9800D02*
D03*
X16000D02*
D03*
D40*
X7000Y2800D02*
D03*
D41*
X10900Y11950D02*
D03*
X9500Y25326D02*
D03*
X15100Y33050D02*
D03*
X14450Y27100D02*
D03*
X1450Y11200D02*
D03*
X2450Y7050D02*
D03*
X4846Y11725D02*
D03*
X3150Y8750D02*
D03*
X4550Y7300D02*
D03*
X21400Y30700D02*
D03*
X18500Y29050D02*
D03*
X1900Y21150D02*
D03*
Y5300D02*
D03*
X2450Y21550D02*
D03*
X1450Y20600D02*
D03*
X19800Y5050D02*
D03*
X20050Y4350D02*
D03*
X21250Y30200D02*
D03*
X17100Y32300D02*
D03*
X17800Y32700D02*
D03*
X12055Y22331D02*
D03*
X12715Y24281D02*
D03*
X13105D02*
D03*
X13500D02*
D03*
X12320D02*
D03*
X10550Y30250D02*
D03*
X5550Y28000D02*
D03*
X3450Y21900D02*
D03*
X4250Y21725D02*
D03*
X4850Y24250D02*
D03*
X4500Y23300D02*
D03*
X4436Y4664D02*
D03*
X8600Y30150D02*
D03*
X11200Y25700D02*
D03*
X19225Y10525D02*
D03*
X18250Y14050D02*
D03*
Y12750D02*
D03*
X14450Y22300D02*
D03*
X11530Y23381D02*
D03*
X15469Y23469D02*
D03*
X13305Y23481D02*
D03*
X12515D02*
D03*
X15180Y12750D02*
D03*
X20950Y11150D02*
D03*
X18500Y30050D02*
D03*
X11836Y30950D02*
D03*
X11200Y30850D02*
D03*
X11520Y30750D02*
D03*
X10885D02*
D03*
X11400Y30015D02*
D03*
Y29385D02*
D03*
X11500Y29070D02*
D03*
Y29700D02*
D03*
X17600Y33950D02*
D03*
X16300Y32650D02*
D03*
X17100Y31000D02*
D03*
X20250Y6000D02*
D03*
X8000Y26000D02*
D03*
X14879Y23471D02*
D03*
X7050Y28000D02*
D03*
X17450Y32400D02*
D03*
X12150Y32550D02*
D03*
X14250Y10450D02*
D03*
X11650Y26450D02*
D03*
X9955Y23381D02*
D03*
X18050Y28631D02*
D03*
X13700Y23481D02*
D03*
X12910D02*
D03*
X6600Y28000D02*
D03*
X7050Y31900D02*
D03*
X16750Y32400D02*
D03*
X15550Y32150D02*
D03*
X16650Y24350D02*
D03*
X11650Y24400D02*
D03*
X14050Y32750D02*
D03*
Y32050D02*
D03*
X10600Y28100D02*
D03*
X14950Y25950D02*
D03*
X19900Y28100D02*
D03*
D42*
X10150Y12500D02*
D03*
X6500Y33150D02*
D03*
X4672Y32855D02*
D03*
X5000Y900D02*
D03*
X7750Y29100D02*
D03*
X10800Y22900D02*
D03*
X6500Y32050D02*
D03*
X5000Y1700D02*
D03*
X10000Y26050D02*
D03*
X9235Y26965D02*
D03*
X4250Y1700D02*
D03*
Y900D02*
D03*
D43*
X10300Y34650D02*
D03*
X23000Y31650D02*
D03*
D44*
X10575Y31625D02*
D03*
X10890D02*
D03*
X11205D02*
D03*
X11520D02*
D03*
X11835D02*
D03*
X12150D02*
D03*
X12465D02*
D03*
X12780D02*
D03*
X13095D02*
D03*
X13410D02*
D03*
X13725D02*
D03*
X13725Y27137D02*
D03*
X13410D02*
D03*
X13095D02*
D03*
X12780D02*
D03*
X12465D02*
D03*
X12150D02*
D03*
X11835D02*
D03*
X11520D02*
D03*
X11205D02*
D03*
X10890D02*
D03*
X10575D02*
D03*
D45*
X14394Y30956D02*
D03*
Y30641D02*
D03*
Y30326D02*
D03*
Y30011D02*
D03*
Y29696D02*
D03*
Y29381D02*
D03*
Y29066D02*
D03*
Y28751D02*
D03*
Y28436D02*
D03*
Y28122D02*
D03*
Y27807D02*
D03*
X9906Y27807D02*
D03*
Y28122D02*
D03*
Y28436D02*
D03*
Y28751D02*
D03*
Y29066D02*
D03*
Y29381D02*
D03*
Y29696D02*
D03*
Y30011D02*
D03*
Y30326D02*
D03*
Y30641D02*
D03*
Y30956D02*
D03*
D46*
X17480Y8350D02*
D03*
X19220Y7370D02*
D03*
Y9330D02*
D03*
D47*
X14624Y11901D02*
D03*
X14250D02*
D03*
X13876D02*
D03*
Y10799D02*
D03*
X14250D02*
D03*
X14624D02*
D03*
D48*
X18276Y4097D02*
D03*
X19024D02*
D03*
X18650Y5003D02*
D03*
X18124Y27584D02*
D03*
X17376D02*
D03*
X17750Y26679D02*
D03*
D49*
X11005Y33226D02*
D03*
Y32774D02*
D03*
X11202Y33226D02*
D03*
Y32774D02*
D03*
X11398Y33226D02*
D03*
Y32774D02*
D03*
X11595Y33226D02*
D03*
Y32774D02*
D03*
D50*
X16959Y25750D02*
D03*
X18141D02*
D03*
D51*
X12700Y5485D02*
D03*
Y6115D02*
D03*
X19200Y12415D02*
D03*
Y11785D02*
D03*
X19900Y12415D02*
D03*
Y11785D02*
D03*
X17800Y31335D02*
D03*
Y31965D02*
D03*
X17100Y31335D02*
D03*
Y31965D02*
D03*
X15550Y32435D02*
D03*
Y33065D02*
D03*
X4750Y28615D02*
D03*
Y27985D02*
D03*
X11300Y11335D02*
D03*
Y11965D02*
D03*
X12000Y11965D02*
D03*
Y11335D02*
D03*
X18200Y12015D02*
D03*
Y11385D02*
D03*
X15500Y12135D02*
D03*
Y12765D02*
D03*
X8600Y30766D02*
D03*
Y31396D02*
D03*
X11650Y26165D02*
D03*
Y25535D02*
D03*
X4750Y30065D02*
D03*
Y29435D02*
D03*
X8000Y26335D02*
D03*
Y26965D02*
D03*
X7300Y27665D02*
D03*
Y27035D02*
D03*
X6600Y27665D02*
D03*
Y27035D02*
D03*
X5900Y27665D02*
D03*
Y27035D02*
D03*
X10150Y11285D02*
D03*
Y11915D02*
D03*
X10200Y6385D02*
D03*
Y7015D02*
D03*
X10950Y6385D02*
D03*
Y7015D02*
D03*
X11850Y5485D02*
D03*
Y6115D02*
D03*
D52*
X17295Y32935D02*
D03*
X17098D02*
D03*
X16902D02*
D03*
X16705D02*
D03*
Y33565D02*
D03*
X16902D02*
D03*
X17098D02*
D03*
X17295D02*
D03*
D53*
X16675Y33152D02*
D03*
Y33348D02*
D03*
X17325D02*
D03*
Y33152D02*
D03*
D54*
X7535Y31900D02*
D03*
X8165D02*
D03*
D55*
X16900Y11625D02*
D03*
Y10775D02*
D03*
D56*
X16650Y23881D02*
D03*
X14879D02*
D03*
X15076D02*
D03*
X15272D02*
D03*
X15469D02*
D03*
X15666D02*
D03*
X15863D02*
D03*
X16060D02*
D03*
X16257D02*
D03*
X16453D02*
D03*
X9170D02*
D03*
X9367D02*
D03*
X9564D02*
D03*
X9761D02*
D03*
X9957D02*
D03*
X10154D02*
D03*
X10351D02*
D03*
X10548D02*
D03*
X10745D02*
D03*
X10942D02*
D03*
X11138D02*
D03*
X11335D02*
D03*
X11532D02*
D03*
X11729D02*
D03*
X11926D02*
D03*
X16847D02*
D03*
X14682D02*
D03*
X14485D02*
D03*
X14288D02*
D03*
X14091D02*
D03*
X13894D02*
D03*
X13698D02*
D03*
X13501D02*
D03*
X13304D02*
D03*
X13107D02*
D03*
X12910D02*
D03*
X12713D02*
D03*
X12516D02*
D03*
X12320D02*
D03*
X12123D02*
D03*
D57*
X17431Y22966D02*
D03*
X8585D02*
D03*
D58*
X10125Y25600D02*
D03*
X9495D02*
D03*
X19435Y31750D02*
D03*
X20065D02*
D03*
X16585Y34300D02*
D03*
X17215D02*
D03*
X14245Y12750D02*
D03*
X14875D02*
D03*
X12135Y32900D02*
D03*
X12765D02*
D03*
X9485Y25050D02*
D03*
X10115D02*
D03*
X18065Y28281D02*
D03*
X17435D02*
D03*
D59*
X24300Y33765D02*
D03*
X17700Y35735D02*
D03*
D60*
X23000Y1750D02*
D03*
Y23750D02*
D03*
X3000D02*
D03*
Y1750D02*
D03*
D61*
X8174Y29236D02*
D03*
X8626D02*
D03*
X8174Y29433D02*
D03*
X8626D02*
D03*
X8174Y29630D02*
D03*
X8626D02*
D03*
X8174Y29827D02*
D03*
X8626D02*
D03*
D62*
X14245Y12740D02*
X14250Y12745D01*
X12000Y12400D02*
X12100Y12500D01*
X12000Y11965D02*
Y12400D01*
X12350Y12500D02*
X13100Y13250D01*
X14150D01*
X14235Y13165D02*
X14245Y13155D01*
Y12750D02*
Y13155D01*
D63*
X11202Y33450D02*
X12800D01*
X10150D02*
X11202D01*
X10255Y23851D02*
Y24261D01*
X10215Y24301D02*
Y25357D01*
X9850Y33150D02*
X10150Y33450D01*
X6500Y33150D02*
X9850D01*
X11327Y25381D02*
X11481Y25535D01*
X10191Y25381D02*
X11327D01*
X11481Y25535D02*
X11650D01*
X15650Y34300D02*
X16585D01*
X14800Y33450D02*
X15650Y34300D01*
X12800Y33450D02*
X14800D01*
X15515Y32400D02*
X15550Y32435D01*
X12800Y32935D02*
Y33450D01*
X12765Y32900D02*
X12800Y32935D01*
X10215Y24301D02*
X10255Y24261D01*
X10191Y25381D02*
X10215Y25357D01*
D64*
X12150Y32875D02*
X12180Y32905D01*
X11650Y25535D02*
X11985D01*
X12150Y25700D01*
X11835Y26635D02*
Y27137D01*
X11650Y26450D02*
X11835Y26635D01*
X11650Y26165D02*
Y26450D01*
X12150Y25700D02*
Y27137D01*
X12465Y31625D02*
Y32215D01*
X12765Y32515D02*
Y32900D01*
X12465Y32215D02*
X12765Y32515D01*
X12150Y31625D02*
Y32550D01*
Y32875D01*
D65*
X2770Y1730D02*
X5100D01*
X3750Y750D02*
X5100D01*
X2770Y1730D02*
X3750Y750D01*
X2750Y1750D02*
X2770Y1730D01*
D66*
X11530Y23381D02*
X11985D01*
X11530D02*
X11532Y23384D01*
X12123Y23519D02*
Y23881D01*
X11985Y23381D02*
X12123Y23519D01*
X15469Y23469D02*
Y23881D01*
X14879Y23471D02*
Y23881D01*
X16959Y25559D02*
Y25750D01*
X15863Y24463D02*
X16959Y25559D01*
X15863Y23881D02*
Y24463D01*
X16700Y24900D02*
X17350D01*
X16060Y24260D02*
X16700Y24900D01*
X16060Y23881D02*
Y24260D01*
X13894Y23881D02*
X13895Y23882D01*
X14485Y23881D02*
X14485Y23881D01*
X15075Y23882D02*
X15076Y23881D01*
X16650Y23882D02*
X16650Y23881D01*
X9955Y23381D02*
X9957Y23384D01*
Y23881D01*
X11532Y23384D02*
Y23881D01*
X17550Y26479D02*
X17750Y26679D01*
X17550Y25100D02*
Y26479D01*
X17350Y24900D02*
X17550Y25100D01*
X16650Y23882D02*
Y24350D01*
X14680Y23880D02*
X14682Y23881D01*
D67*
X16300Y32850D02*
X16385Y32935D01*
X16705D01*
X16300Y32650D02*
Y32850D01*
X17450Y32400D02*
Y32550D01*
X17295Y32705D02*
X17450Y32550D01*
X17295Y32705D02*
Y32935D01*
X16705Y33565D02*
Y33745D01*
X16585Y33865D02*
X16705Y33745D01*
X16585Y33865D02*
Y34300D01*
X17325Y33348D02*
X18348D01*
X18350Y33350D01*
X16902Y32702D02*
Y32935D01*
X16750Y32550D02*
X16902Y32702D01*
X16750Y32400D02*
Y32550D01*
D68*
X11645Y23751D02*
D03*
D69*
X16463D02*
D03*
D70*
X14772D02*
D03*
D71*
X16900Y23950D02*
D03*
D72*
X4475Y1275D02*
D03*
D73*
X17000Y33500D02*
D03*
M02*
