G04*
G04 #@! TF.GenerationSoftware,Altium Limited,Altium Designer,19.1.8 (144)*
G04*
G04 Layer_Physical_Order=1*
G04 Layer_Color=255*
%FSLAX24Y24*%
%MOIN*%
G70*
G01*
G75*
%ADD11C,0.0100*%
%ADD12C,0.0080*%
G04:AMPARAMS|DCode=14|XSize=86.6mil|YSize=55.1mil|CornerRadius=13.8mil|HoleSize=0mil|Usage=FLASHONLY|Rotation=180.000|XOffset=0mil|YOffset=0mil|HoleType=Round|Shape=RoundedRectangle|*
%AMROUNDEDRECTD14*
21,1,0.0866,0.0276,0,0,180.0*
21,1,0.0591,0.0551,0,0,180.0*
1,1,0.0276,-0.0295,0.0138*
1,1,0.0276,0.0295,0.0138*
1,1,0.0276,0.0295,-0.0138*
1,1,0.0276,-0.0295,-0.0138*
%
%ADD14ROUNDEDRECTD14*%
%ADD28C,0.0200*%
%ADD29C,0.0300*%
%ADD30C,0.0050*%
%ADD31C,0.0600*%
%ADD32C,0.0220*%
%ADD33C,0.0350*%
%ADD34R,0.0394X0.0394*%
%ADD35C,0.0394*%
%ADD36R,0.0591X0.0591*%
%ADD37C,0.0591*%
%ADD38C,0.0670*%
%ADD39C,0.0600*%
%ADD40R,0.0600X0.0600*%
%ADD41C,0.0220*%
%ADD42C,0.0300*%
%ADD43C,0.0500*%
G36*
X25375Y37777D02*
X25484Y37732D01*
X25582Y37666D01*
X25666Y37582D01*
X25732Y37484D01*
X25777Y37375D01*
X25800Y37259D01*
Y37200D01*
Y800D01*
Y741D01*
X25777Y625D01*
X25732Y516D01*
X25666Y418D01*
X25582Y334D01*
X25484Y268D01*
X25375Y223D01*
X25259Y200D01*
X741D01*
X625Y223D01*
X516Y268D01*
X418Y334D01*
X334Y418D01*
X268Y516D01*
X223Y625D01*
X200Y741D01*
Y800D01*
Y37200D01*
Y37259D01*
X223Y37375D01*
X268Y37484D01*
X334Y37582D01*
X418Y37666D01*
X516Y37732D01*
X625Y37777D01*
X741Y37800D01*
X25259D01*
X25375Y37777D01*
D02*
G37*
%LPC*%
G36*
X14598Y37500D02*
X11402D01*
X11208Y37462D01*
X11026Y37386D01*
X10863Y37277D01*
X10723Y37137D01*
X10614Y36974D01*
X10538Y36792D01*
X10500Y36598D01*
Y36402D01*
X10538Y36208D01*
X10614Y36026D01*
X10723Y35863D01*
X10863Y35723D01*
X11026Y35614D01*
X11208Y35538D01*
X11402Y35500D01*
X14598D01*
X14792Y35538D01*
X14974Y35614D01*
X15137Y35723D01*
X15277Y35863D01*
X15386Y36026D01*
X15462Y36208D01*
X15500Y36402D01*
Y36598D01*
X15462Y36792D01*
X15386Y36974D01*
X15277Y37137D01*
X15137Y37277D01*
X14974Y37386D01*
X14792Y37462D01*
X14598Y37500D01*
D02*
G37*
G36*
X3050Y33429D02*
X2952Y33416D01*
X2861Y33378D01*
X2782Y33318D01*
X2722Y33239D01*
X2694Y33172D01*
X2250D01*
X2203Y33163D01*
X2163Y33137D01*
X1363Y32337D01*
X1337Y32297D01*
X1328Y32250D01*
Y22557D01*
X1278Y22547D01*
X1273Y22559D01*
X1206Y22646D01*
X1119Y22713D01*
X1018Y22754D01*
X910Y22769D01*
X802Y22754D01*
X701Y22713D01*
X614Y22646D01*
X547Y22559D01*
X506Y22458D01*
X491Y22350D01*
X506Y22242D01*
X547Y22141D01*
X614Y22054D01*
X701Y21988D01*
X802Y21946D01*
X910Y21931D01*
X1018Y21946D01*
X1119Y21988D01*
X1206Y22054D01*
X1273Y22141D01*
X1278Y22153D01*
X1328Y22143D01*
Y20747D01*
X1313Y20737D01*
X1271Y20674D01*
X1256Y20600D01*
X1271Y20526D01*
X1313Y20463D01*
X1376Y20421D01*
X1450Y20406D01*
X1524Y20421D01*
X1587Y20463D01*
X1629Y20526D01*
X1644Y20600D01*
X1629Y20674D01*
X1587Y20737D01*
X1572Y20747D01*
Y32199D01*
X2301Y32928D01*
X2694D01*
X2722Y32861D01*
X2782Y32782D01*
X2861Y32722D01*
X2952Y32684D01*
X3050Y32671D01*
X3148Y32684D01*
X3239Y32722D01*
X3318Y32782D01*
X3378Y32861D01*
X3416Y32952D01*
X3429Y33050D01*
X3416Y33148D01*
X3378Y33239D01*
X3318Y33318D01*
X3239Y33378D01*
X3148Y33416D01*
X3050Y33429D01*
D02*
G37*
G36*
X4672Y33090D02*
X4583Y33072D01*
X4507Y33021D01*
X4456Y32945D01*
X4438Y32855D01*
X4445Y32818D01*
X3799Y32172D01*
X3406D01*
X3378Y32239D01*
X3318Y32318D01*
X3239Y32378D01*
X3148Y32416D01*
X3050Y32429D01*
X2952Y32416D01*
X2861Y32378D01*
X2782Y32318D01*
X2722Y32239D01*
X2694Y32172D01*
X2300D01*
X2253Y32163D01*
X2213Y32137D01*
X1813Y31737D01*
X1787Y31697D01*
X1778Y31650D01*
Y21297D01*
X1763Y21287D01*
X1721Y21224D01*
X1706Y21150D01*
X1721Y21076D01*
X1763Y21013D01*
X1826Y20971D01*
X1900Y20956D01*
X1974Y20971D01*
X2037Y21013D01*
X2079Y21076D01*
X2094Y21150D01*
X2079Y21224D01*
X2037Y21287D01*
X2022Y21297D01*
Y31599D01*
X2351Y31928D01*
X2694D01*
X2722Y31861D01*
X2782Y31782D01*
X2861Y31722D01*
X2952Y31684D01*
X3050Y31671D01*
X3148Y31684D01*
X3239Y31722D01*
X3318Y31782D01*
X3378Y31861D01*
X3406Y31928D01*
X3850D01*
X3897Y31937D01*
X3937Y31963D01*
X4607Y32634D01*
X4672Y32621D01*
X4762Y32638D01*
X4838Y32689D01*
X4889Y32765D01*
X4907Y32855D01*
X4889Y32945D01*
X4838Y33021D01*
X4762Y33072D01*
X4672Y33090D01*
D02*
G37*
G36*
X17800Y32894D02*
X17726Y32879D01*
X17663Y32837D01*
X17621Y32774D01*
X17606Y32700D01*
X17621Y32626D01*
X17663Y32563D01*
X17678Y32553D01*
Y32250D01*
X17687Y32203D01*
X17713Y32163D01*
X17908Y31969D01*
X17889Y31922D01*
X17651D01*
X17290Y32283D01*
X17294Y32300D01*
X17279Y32374D01*
X17237Y32437D01*
X17174Y32479D01*
X17100Y32494D01*
X17026Y32479D01*
X16984Y32451D01*
X16930Y32470D01*
X16929Y32474D01*
X16887Y32537D01*
X16824Y32579D01*
X16750Y32594D01*
X16676Y32579D01*
X16613Y32537D01*
X16420Y32344D01*
X15550D01*
X15476Y32329D01*
X15413Y32287D01*
X15371Y32224D01*
X15356Y32150D01*
X15371Y32076D01*
X15413Y32013D01*
X15476Y31971D01*
X15550Y31956D01*
X16306D01*
Y31600D01*
X16321Y31526D01*
X16363Y31463D01*
X16963Y30863D01*
X17026Y30821D01*
X17100Y30806D01*
X17174Y30821D01*
X17237Y30863D01*
X17279Y30926D01*
X17294Y31000D01*
X17279Y31074D01*
X17237Y31137D01*
X16694Y31680D01*
Y32070D01*
X16867Y32243D01*
X16921Y32226D01*
X16921Y32226D01*
X16963Y32163D01*
X17026Y32121D01*
X17100Y32106D01*
X17117Y32110D01*
X17513Y31713D01*
X17553Y31687D01*
X17600Y31678D01*
X19599D01*
X21060Y30217D01*
X21056Y30200D01*
X21071Y30126D01*
X21113Y30063D01*
X21176Y30021D01*
X21250Y30006D01*
X21324Y30021D01*
X21387Y30063D01*
X21429Y30126D01*
X21444Y30200D01*
X21429Y30274D01*
X21387Y30337D01*
X21324Y30379D01*
X21250Y30394D01*
X21233Y30390D01*
X19831Y31792D01*
X19850Y31839D01*
X20088D01*
X21210Y30717D01*
X21206Y30700D01*
X21221Y30626D01*
X21263Y30563D01*
X21326Y30521D01*
X21400Y30506D01*
X21474Y30521D01*
X21537Y30563D01*
X21579Y30626D01*
X21594Y30700D01*
X21579Y30774D01*
X21537Y30837D01*
X21474Y30879D01*
X21400Y30894D01*
X21383Y30890D01*
X20226Y32048D01*
X20186Y32074D01*
X20139Y32083D01*
X18140D01*
X17922Y32301D01*
Y32553D01*
X17937Y32563D01*
X17979Y32626D01*
X17994Y32700D01*
X17979Y32774D01*
X17937Y32837D01*
X17874Y32879D01*
X17800Y32894D01*
D02*
G37*
G36*
X14050Y32944D02*
X13976Y32929D01*
X13913Y32887D01*
X13871Y32824D01*
X13856Y32750D01*
X13871Y32676D01*
X13913Y32613D01*
X13928Y32603D01*
Y32197D01*
X13913Y32187D01*
X13871Y32124D01*
X13856Y32050D01*
X13871Y31976D01*
X13913Y31913D01*
X13976Y31871D01*
X14050Y31856D01*
X14124Y31871D01*
X14187Y31913D01*
X14229Y31976D01*
X14244Y32050D01*
X14229Y32124D01*
X14187Y32187D01*
X14172Y32197D01*
Y32603D01*
X14187Y32613D01*
X14229Y32676D01*
X14244Y32750D01*
X14229Y32824D01*
X14187Y32887D01*
X14124Y32929D01*
X14050Y32944D01*
D02*
G37*
G36*
X6500Y33385D02*
X6410Y33367D01*
X6334Y33316D01*
X6283Y33240D01*
X6265Y33150D01*
Y32050D01*
X6283Y31960D01*
X6334Y31884D01*
X6410Y31833D01*
X6500Y31815D01*
X6590Y31833D01*
X6666Y31884D01*
X6717Y31960D01*
X6735Y32050D01*
Y33150D01*
X6717Y33240D01*
X6666Y33316D01*
X6590Y33367D01*
X6500Y33385D01*
D02*
G37*
G36*
X21550Y35033D02*
X10300D01*
X10201Y35020D01*
X10108Y34982D01*
X10029Y34921D01*
X9968Y34842D01*
X9930Y34749D01*
X9917Y34650D01*
X9930Y34551D01*
X9968Y34458D01*
X10029Y34379D01*
X10108Y34318D01*
X10201Y34280D01*
X10300Y34267D01*
X21391D01*
X22617Y33041D01*
Y31650D01*
X22630Y31551D01*
X22668Y31458D01*
X22729Y31379D01*
X22808Y31318D01*
X22901Y31280D01*
X23000Y31267D01*
X23099Y31280D01*
X23192Y31318D01*
X23271Y31379D01*
X23332Y31458D01*
X23370Y31551D01*
X23383Y31650D01*
Y33200D01*
X23370Y33299D01*
X23332Y33392D01*
X23271Y33471D01*
X21821Y34921D01*
X21742Y34982D01*
X21649Y35020D01*
X21550Y35033D01*
D02*
G37*
G36*
X11836Y31144D02*
X11762Y31129D01*
X11699Y31087D01*
X11657Y31024D01*
X11644Y30956D01*
X11600Y30925D01*
X11594Y30929D01*
X11520Y30944D01*
X11446Y30929D01*
X11428Y30917D01*
X11370Y30938D01*
X11337Y30987D01*
X11274Y31029D01*
X11200Y31044D01*
X11126Y31029D01*
X11063Y30987D01*
X11027Y30933D01*
X10973Y30920D01*
X10959Y30929D01*
X10885Y30944D01*
X10811Y30929D01*
X10748Y30887D01*
X10706Y30824D01*
X10691Y30750D01*
X10706Y30676D01*
X10748Y30613D01*
X10778Y30593D01*
Y30515D01*
X10786Y30474D01*
X10809Y30439D01*
X11024Y30224D01*
X11059Y30201D01*
X11100Y30193D01*
X11241D01*
X11257Y30143D01*
X11221Y30089D01*
X11206Y30015D01*
X11213Y29981D01*
X11167Y29956D01*
X10787Y30337D01*
X10747Y30363D01*
X10700Y30372D01*
X10697D01*
X10687Y30387D01*
X10624Y30429D01*
X10550Y30444D01*
X10476Y30429D01*
X10413Y30387D01*
X10371Y30324D01*
X10356Y30250D01*
X10371Y30176D01*
X10413Y30113D01*
X10476Y30071D01*
X10550Y30056D01*
X10624Y30071D01*
X10673Y30104D01*
X10978Y29799D01*
Y28800D01*
X10987Y28753D01*
X11013Y28713D01*
X11063Y28663D01*
X11103Y28637D01*
X11150Y28628D01*
X11899D01*
X11928Y28599D01*
Y22475D01*
X11918Y22468D01*
X11876Y22406D01*
X11861Y22331D01*
X11876Y22257D01*
X11918Y22194D01*
X11981Y22152D01*
X12055Y22138D01*
X12129Y22152D01*
X12192Y22194D01*
X12234Y22257D01*
X12249Y22331D01*
X12234Y22406D01*
X12192Y22468D01*
X12172Y22481D01*
Y24091D01*
X12222Y24118D01*
X12246Y24102D01*
X12320Y24088D01*
X12358Y24095D01*
X12408Y24056D01*
Y23638D01*
X12378Y23618D01*
X12336Y23556D01*
X12321Y23481D01*
X12336Y23407D01*
X12378Y23344D01*
X12441Y23302D01*
X12515Y23288D01*
X12589Y23302D01*
X12652Y23344D01*
X12685Y23393D01*
X12692Y23396D01*
X12733D01*
X12740Y23393D01*
X12773Y23344D01*
X12836Y23302D01*
X12910Y23288D01*
X12984Y23302D01*
X13047Y23344D01*
X13080Y23393D01*
X13087Y23396D01*
X13128D01*
X13135Y23393D01*
X13168Y23344D01*
X13231Y23302D01*
X13305Y23288D01*
X13379Y23302D01*
X13442Y23344D01*
X13475Y23393D01*
X13482Y23396D01*
X13523D01*
X13530Y23393D01*
X13563Y23344D01*
X13626Y23302D01*
X13700Y23288D01*
X13774Y23302D01*
X13837Y23344D01*
X13879Y23407D01*
X13894Y23481D01*
X13879Y23556D01*
X13837Y23618D01*
X13807Y23638D01*
Y29250D01*
X13799Y29291D01*
X13776Y29326D01*
X12076Y31026D01*
X12041Y31049D01*
X12000Y31057D01*
X11993D01*
X11973Y31087D01*
X11910Y31129D01*
X11836Y31144D01*
D02*
G37*
G36*
X3050Y31429D02*
X2952Y31416D01*
X2861Y31378D01*
X2782Y31318D01*
X2722Y31239D01*
X2694Y31172D01*
X2576D01*
X2529Y31163D01*
X2489Y31137D01*
X2363Y31011D01*
X2337Y30971D01*
X2328Y30924D01*
Y21697D01*
X2313Y21687D01*
X2271Y21624D01*
X2256Y21550D01*
X2271Y21476D01*
X2313Y21413D01*
X2376Y21371D01*
X2450Y21356D01*
X2524Y21371D01*
X2587Y21413D01*
X2629Y21476D01*
X2644Y21550D01*
X2629Y21624D01*
X2587Y21687D01*
X2572Y21697D01*
Y30873D01*
X2627Y30928D01*
X2694D01*
X2722Y30861D01*
X2782Y30782D01*
X2861Y30722D01*
X2952Y30684D01*
X3050Y30671D01*
X3148Y30684D01*
X3239Y30722D01*
X3318Y30782D01*
X3378Y30861D01*
X3416Y30952D01*
X3429Y31050D01*
X3416Y31148D01*
X3378Y31239D01*
X3318Y31318D01*
X3239Y31378D01*
X3148Y31416D01*
X3050Y31429D01*
D02*
G37*
G36*
X3170Y30426D02*
Y30170D01*
X3426D01*
X3394Y30249D01*
X3331Y30331D01*
X3249Y30394D01*
X3170Y30426D01*
D02*
G37*
G36*
X2930Y30426D02*
X2851Y30394D01*
X2769Y30331D01*
X2706Y30249D01*
X2674Y30170D01*
X2930D01*
Y30426D01*
D02*
G37*
G36*
X25277Y31027D02*
X24723D01*
Y30473D01*
X24759D01*
X24784Y30423D01*
X24758Y30390D01*
X24730Y30322D01*
X24721Y30250D01*
X24730Y30178D01*
X24758Y30110D01*
X24803Y30053D01*
X24815Y30043D01*
Y29980D01*
X24789Y29961D01*
X24742Y29899D01*
X24730Y29870D01*
X25000D01*
X25270D01*
X25258Y29899D01*
X25211Y29961D01*
X25185Y29980D01*
Y30043D01*
X25197Y30053D01*
X25242Y30110D01*
X25270Y30178D01*
X25279Y30250D01*
X25270Y30322D01*
X25242Y30390D01*
X25216Y30423D01*
X25241Y30473D01*
X25277D01*
Y31027D01*
D02*
G37*
G36*
X3426Y29930D02*
X3170D01*
Y29674D01*
X3249Y29706D01*
X3331Y29769D01*
X3394Y29851D01*
X3426Y29930D01*
D02*
G37*
G36*
X2930D02*
X2674D01*
X2706Y29851D01*
X2769Y29769D01*
X2851Y29706D01*
X2930Y29674D01*
Y29930D01*
D02*
G37*
G36*
X18500Y30244D02*
X18426Y30229D01*
X18363Y30187D01*
X18321Y30124D01*
X18306Y30050D01*
X18321Y29976D01*
X18363Y29913D01*
X18378Y29903D01*
Y29197D01*
X18363Y29187D01*
X18321Y29124D01*
X18306Y29050D01*
X18321Y28976D01*
X18363Y28913D01*
X18426Y28871D01*
X18500Y28856D01*
X18574Y28871D01*
X18637Y28913D01*
X18679Y28976D01*
X18694Y29050D01*
X18679Y29124D01*
X18637Y29187D01*
X18622Y29197D01*
Y29903D01*
X18637Y29913D01*
X18679Y29976D01*
X18694Y30050D01*
X18679Y30124D01*
X18637Y30187D01*
X18574Y30229D01*
X18500Y30244D01*
D02*
G37*
G36*
X3050Y29429D02*
X2952Y29416D01*
X2861Y29378D01*
X2782Y29318D01*
X2722Y29239D01*
X2684Y29148D01*
X2671Y29050D01*
X2684Y28952D01*
X2722Y28861D01*
X2782Y28782D01*
X2861Y28722D01*
X2952Y28684D01*
X3050Y28671D01*
X3148Y28684D01*
X3239Y28722D01*
X3318Y28782D01*
X3378Y28861D01*
X3416Y28952D01*
X3429Y29050D01*
X3416Y29148D01*
X3378Y29239D01*
X3318Y29318D01*
X3239Y29378D01*
X3148Y29416D01*
X3050Y29429D01*
D02*
G37*
G36*
X25270Y29630D02*
X25000D01*
X24730D01*
X24742Y29601D01*
X24789Y29539D01*
X24815Y29520D01*
Y29457D01*
X24803Y29447D01*
X24758Y29390D01*
X24730Y29322D01*
X24721Y29250D01*
X24730Y29178D01*
X24758Y29110D01*
X24803Y29053D01*
X24830Y29032D01*
Y28969D01*
X24803Y28947D01*
X24758Y28890D01*
X24730Y28822D01*
X24721Y28750D01*
X24730Y28678D01*
X24758Y28610D01*
X24803Y28553D01*
X24860Y28508D01*
X24928Y28480D01*
X25000Y28471D01*
X25072Y28480D01*
X25140Y28508D01*
X25197Y28553D01*
X25242Y28610D01*
X25270Y28678D01*
X25279Y28750D01*
X25270Y28822D01*
X25242Y28890D01*
X25197Y28947D01*
X25170Y28969D01*
Y29032D01*
X25197Y29053D01*
X25242Y29110D01*
X25270Y29178D01*
X25279Y29250D01*
X25270Y29322D01*
X25242Y29390D01*
X25197Y29447D01*
X25185Y29457D01*
Y29520D01*
X25211Y29539D01*
X25258Y29601D01*
X25270Y29630D01*
D02*
G37*
G36*
X19900Y28294D02*
X19826Y28279D01*
X19763Y28237D01*
X19753Y28222D01*
X15600D01*
X15553Y28213D01*
X15513Y28187D01*
X15163Y27837D01*
X15137Y27797D01*
X15128Y27750D01*
Y26301D01*
X14967Y26140D01*
X14950Y26144D01*
X14876Y26129D01*
X14813Y26087D01*
X14771Y26024D01*
X14756Y25950D01*
X14771Y25876D01*
X14813Y25813D01*
X14876Y25771D01*
X14950Y25756D01*
X15024Y25771D01*
X15087Y25813D01*
X15129Y25876D01*
X15144Y25950D01*
X15140Y25967D01*
X15337Y26163D01*
X15363Y26203D01*
X15372Y26250D01*
Y27699D01*
X15651Y27978D01*
X19753D01*
X19763Y27963D01*
X19826Y27921D01*
X19900Y27906D01*
X19974Y27921D01*
X20037Y27963D01*
X20079Y28026D01*
X20094Y28100D01*
X20079Y28174D01*
X20037Y28237D01*
X19974Y28279D01*
X19900Y28294D01*
D02*
G37*
G36*
X8600Y30344D02*
X8526Y30329D01*
X8463Y30287D01*
X8421Y30224D01*
X8406Y30150D01*
X8421Y30076D01*
X8463Y30013D01*
X8478Y30003D01*
Y28800D01*
X8487Y28753D01*
X8513Y28713D01*
X9213Y28013D01*
X9253Y27987D01*
X9300Y27978D01*
X10453D01*
X10463Y27963D01*
X10526Y27921D01*
X10600Y27906D01*
X10674Y27921D01*
X10737Y27963D01*
X10779Y28026D01*
X10794Y28100D01*
X10779Y28174D01*
X10737Y28237D01*
X10674Y28279D01*
X10600Y28294D01*
X10526Y28279D01*
X10463Y28237D01*
X10453Y28222D01*
X9351D01*
X8722Y28851D01*
Y30003D01*
X8737Y30013D01*
X8779Y30076D01*
X8794Y30150D01*
X8779Y30224D01*
X8737Y30287D01*
X8674Y30329D01*
X8600Y30344D01*
D02*
G37*
G36*
X3425Y28425D02*
X2675D01*
Y27675D01*
X3425D01*
Y28425D01*
D02*
G37*
G36*
X6600Y28194D02*
X6526Y28179D01*
X6463Y28137D01*
X6421Y28074D01*
X6406Y28000D01*
X6421Y27926D01*
X6463Y27863D01*
X6478Y27853D01*
Y26051D01*
X4867Y24440D01*
X4850Y24444D01*
X4776Y24429D01*
X4713Y24387D01*
X4671Y24324D01*
X4656Y24250D01*
X4671Y24176D01*
X4713Y24113D01*
X4776Y24071D01*
X4850Y24056D01*
X4924Y24071D01*
X4987Y24113D01*
X5029Y24176D01*
X5044Y24250D01*
X5040Y24267D01*
X6687Y25913D01*
X6713Y25953D01*
X6722Y26000D01*
Y27853D01*
X6737Y27863D01*
X6779Y27926D01*
X6794Y28000D01*
X6779Y28074D01*
X6737Y28137D01*
X6674Y28179D01*
X6600Y28194D01*
D02*
G37*
G36*
X11200Y25894D02*
X11126Y25879D01*
X11063Y25837D01*
X11021Y25774D01*
X11006Y25700D01*
X11021Y25626D01*
X11063Y25563D01*
X11126Y25521D01*
X11200Y25506D01*
X11235Y25513D01*
X11543Y25206D01*
Y24557D01*
X11513Y24537D01*
X11471Y24474D01*
X11456Y24400D01*
X11471Y24326D01*
X11513Y24263D01*
X11576Y24221D01*
X11650Y24206D01*
X11724Y24221D01*
X11787Y24263D01*
X11829Y24326D01*
X11844Y24400D01*
X11829Y24474D01*
X11787Y24537D01*
X11757Y24557D01*
Y25250D01*
X11749Y25291D01*
X11726Y25326D01*
X11387Y25665D01*
X11394Y25700D01*
X11379Y25774D01*
X11337Y25837D01*
X11274Y25879D01*
X11200Y25894D01*
D02*
G37*
G36*
X7050Y28194D02*
X6976Y28179D01*
X6913Y28137D01*
X6871Y28074D01*
X6856Y28000D01*
X6871Y27926D01*
X6913Y27863D01*
X6928Y27853D01*
Y25901D01*
X4517Y23490D01*
X4500Y23494D01*
X4426Y23479D01*
X4363Y23437D01*
X4321Y23374D01*
X4306Y23300D01*
X4321Y23226D01*
X4363Y23163D01*
X4426Y23121D01*
X4500Y23106D01*
X4574Y23121D01*
X4637Y23163D01*
X4679Y23226D01*
X4694Y23300D01*
X4690Y23317D01*
X7137Y25763D01*
X7163Y25803D01*
X7172Y25850D01*
Y27853D01*
X7187Y27863D01*
X7229Y27926D01*
X7244Y28000D01*
X7229Y28074D01*
X7187Y28137D01*
X7124Y28179D01*
X7050Y28194D01*
D02*
G37*
G36*
X7750Y29335D02*
X7660Y29317D01*
X7584Y29266D01*
X7533Y29190D01*
X7515Y29100D01*
Y28450D01*
X7533Y28360D01*
X7584Y28284D01*
X9069Y26799D01*
X9145Y26748D01*
X9235Y26730D01*
X9235Y26730D01*
X9588D01*
X9765Y26553D01*
Y26050D01*
Y25516D01*
X9783Y25426D01*
X9834Y25350D01*
X10565Y24618D01*
Y22900D01*
X10583Y22810D01*
X10634Y22734D01*
X10710Y22683D01*
X10800Y22665D01*
X10890Y22683D01*
X10966Y22734D01*
X11017Y22810D01*
X11035Y22900D01*
Y24716D01*
X11017Y24805D01*
X10966Y24881D01*
X10235Y25613D01*
Y26050D01*
Y26650D01*
X10235Y26650D01*
X10217Y26740D01*
X10166Y26816D01*
X9851Y27131D01*
X9775Y27182D01*
X9685Y27199D01*
X9332D01*
X7985Y28547D01*
Y29100D01*
X7967Y29190D01*
X7916Y29266D01*
X7840Y29317D01*
X7750Y29335D01*
D02*
G37*
G36*
X14450Y27294D02*
X14376Y27279D01*
X14313Y27237D01*
X14271Y27174D01*
X14256Y27100D01*
X14271Y27026D01*
X14313Y26963D01*
X14328Y26953D01*
Y22447D01*
X14313Y22437D01*
X14271Y22374D01*
X14256Y22300D01*
X14271Y22226D01*
X14313Y22163D01*
X14376Y22121D01*
X14450Y22106D01*
X14524Y22121D01*
X14587Y22163D01*
X14629Y22226D01*
X14644Y22300D01*
X14629Y22374D01*
X14587Y22437D01*
X14572Y22447D01*
Y26953D01*
X14587Y26963D01*
X14629Y27026D01*
X14644Y27100D01*
X14629Y27174D01*
X14587Y27237D01*
X14524Y27279D01*
X14450Y27294D01*
D02*
G37*
G36*
X5550Y28194D02*
X5476Y28179D01*
X5413Y28137D01*
X5371Y28074D01*
X5356Y28000D01*
X5371Y27926D01*
X5413Y27863D01*
X5428Y27853D01*
Y25801D01*
X3363Y23737D01*
X3337Y23697D01*
X3328Y23650D01*
Y22047D01*
X3313Y22037D01*
X3271Y21974D01*
X3256Y21900D01*
X3271Y21826D01*
X3313Y21763D01*
X3376Y21721D01*
X3450Y21706D01*
X3524Y21721D01*
X3587Y21763D01*
X3629Y21826D01*
X3644Y21900D01*
X3629Y21974D01*
X3587Y22037D01*
X3572Y22047D01*
Y23599D01*
X5637Y25663D01*
X5663Y25703D01*
X5672Y25750D01*
Y27853D01*
X5687Y27863D01*
X5729Y27926D01*
X5744Y28000D01*
X5729Y28074D01*
X5687Y28137D01*
X5624Y28179D01*
X5550Y28194D01*
D02*
G37*
G36*
X8000Y26194D02*
X7926Y26179D01*
X7863Y26137D01*
X7821Y26074D01*
X7806Y26000D01*
X7821Y25926D01*
X7863Y25863D01*
X7878Y25853D01*
Y25551D01*
X4245Y21918D01*
X4176Y21904D01*
X4113Y21862D01*
X4071Y21799D01*
X4056Y21725D01*
X4071Y21651D01*
X4113Y21588D01*
X4176Y21546D01*
X4250Y21531D01*
X4324Y21546D01*
X4387Y21588D01*
X4429Y21651D01*
X4444Y21725D01*
X4436Y21763D01*
X8087Y25413D01*
X8113Y25453D01*
X8122Y25500D01*
Y25853D01*
X8137Y25863D01*
X8179Y25926D01*
X8194Y26000D01*
X8179Y26074D01*
X8137Y26137D01*
X8074Y26179D01*
X8000Y26194D01*
D02*
G37*
G36*
X17306Y14681D02*
X6774D01*
X6766Y14680D01*
X6758D01*
X6672Y14663D01*
X6664Y14660D01*
X6656Y14658D01*
X6575Y14624D01*
X6568Y14620D01*
X6561Y14617D01*
X6487Y14568D01*
X6482Y14562D01*
X6475Y14557D01*
X6412Y14495D01*
X6408Y14488D01*
X6402Y14483D01*
X6353Y14409D01*
X6350Y14402D01*
X6346Y14395D01*
X6312Y14313D01*
X6310Y14306D01*
X6307Y14298D01*
X6290Y14211D01*
Y14203D01*
X6288Y14196D01*
Y14105D01*
X6290Y14098D01*
Y14090D01*
X6307Y14003D01*
X6310Y13995D01*
X6312Y13987D01*
X6346Y13905D01*
X6350Y13899D01*
X6353Y13891D01*
X6403Y13818D01*
X6408Y13812D01*
X6413Y13805D01*
X6475Y13743D01*
X6482Y13738D01*
X6488Y13732D01*
X6562Y13683D01*
X6569Y13680D01*
X6576Y13676D01*
X6658Y13642D01*
X6665Y13640D01*
X6673Y13637D01*
X6760Y13620D01*
X6768D01*
X6776Y13618D01*
X17304D01*
X17312Y13620D01*
X17320D01*
X17407Y13637D01*
X17415Y13640D01*
X17422Y13642D01*
X17504Y13676D01*
X17511Y13680D01*
X17518Y13683D01*
X17592Y13732D01*
X17598Y13738D01*
X17605Y13743D01*
X17667Y13805D01*
X17672Y13812D01*
X17677Y13818D01*
X17727Y13891D01*
X17730Y13899D01*
X17734Y13905D01*
X17768Y13987D01*
X17770Y13995D01*
X17773Y14003D01*
X17790Y14090D01*
Y14098D01*
X17792Y14105D01*
Y14196D01*
X17790Y14203D01*
Y14211D01*
X17773Y14298D01*
X17770Y14306D01*
X17768Y14313D01*
X17734Y14395D01*
X17730Y14402D01*
X17727Y14409D01*
X17678Y14483D01*
X17672Y14488D01*
X17668Y14495D01*
X17605Y14557D01*
X17598Y14562D01*
X17593Y14568D01*
X17519Y14617D01*
X17512Y14620D01*
X17505Y14624D01*
X17424Y14658D01*
X17416Y14660D01*
X17408Y14663D01*
X17322Y14680D01*
X17314D01*
X17306Y14681D01*
D02*
G37*
G36*
X18250Y14244D02*
X18176Y14229D01*
X18113Y14187D01*
X18071Y14124D01*
X18056Y14050D01*
X18071Y13976D01*
X18113Y13913D01*
X18128Y13903D01*
Y12897D01*
X18113Y12887D01*
X18071Y12824D01*
X18056Y12750D01*
X18071Y12676D01*
X18113Y12613D01*
X18176Y12571D01*
X18250Y12556D01*
X18324Y12571D01*
X18387Y12613D01*
X18429Y12676D01*
X18444Y12750D01*
X18429Y12824D01*
X18387Y12887D01*
X18372Y12897D01*
Y13903D01*
X18387Y13913D01*
X18429Y13976D01*
X18444Y14050D01*
X18429Y14124D01*
X18387Y14187D01*
X18324Y14229D01*
X18250Y14244D01*
D02*
G37*
G36*
X8860Y11496D02*
X8270D01*
X8185Y11479D01*
X8113Y11431D01*
X8065Y11359D01*
X8048Y11274D01*
Y10998D01*
X8065Y10913D01*
X8113Y10841D01*
X8185Y10793D01*
X8270Y10776D01*
X8860D01*
X8945Y10793D01*
X9017Y10841D01*
X9065Y10913D01*
X9082Y10998D01*
Y11274D01*
X9065Y11359D01*
X9017Y11431D01*
X8945Y11479D01*
X8860Y11496D01*
D02*
G37*
G36*
X4846Y11919D02*
X4772Y11904D01*
X4709Y11862D01*
X4667Y11799D01*
X4652Y11725D01*
X4667Y11651D01*
X4709Y11588D01*
X4772Y11546D01*
X4846Y11531D01*
X4863Y11535D01*
X4977Y11421D01*
X4935Y11359D01*
X4918Y11274D01*
Y10998D01*
X4935Y10913D01*
X4983Y10841D01*
X5055Y10793D01*
X5140Y10776D01*
X5730D01*
X5815Y10793D01*
X5887Y10841D01*
X5935Y10913D01*
X5952Y10998D01*
Y11274D01*
X5935Y11359D01*
X5887Y11431D01*
X5815Y11479D01*
X5730Y11496D01*
X5248D01*
X5036Y11708D01*
X5040Y11725D01*
X5025Y11799D01*
X4983Y11862D01*
X4920Y11904D01*
X4846Y11919D01*
D02*
G37*
G36*
X20950Y11344D02*
X20876Y11329D01*
X20813Y11287D01*
X20771Y11224D01*
X20756Y11150D01*
X20771Y11076D01*
X20813Y11013D01*
X20817Y11010D01*
Y10746D01*
X20390D01*
X20305Y10729D01*
X20233Y10681D01*
X20200Y10632D01*
X19382D01*
X19362Y10662D01*
X19299Y10704D01*
X19225Y10719D01*
X19151Y10704D01*
X19088Y10662D01*
X19046Y10599D01*
X19031Y10525D01*
X19046Y10451D01*
X19088Y10388D01*
X19151Y10346D01*
X19225Y10331D01*
X19299Y10346D01*
X19362Y10388D01*
X19382Y10418D01*
X20168D01*
Y10248D01*
X20185Y10163D01*
X20233Y10091D01*
X20305Y10043D01*
X20390Y10026D01*
X20980D01*
X21065Y10043D01*
X21137Y10091D01*
X21185Y10163D01*
X21202Y10248D01*
Y10524D01*
X21185Y10609D01*
X21137Y10681D01*
X21083Y10717D01*
Y11010D01*
X21087Y11013D01*
X21129Y11076D01*
X21144Y11150D01*
X21129Y11224D01*
X21087Y11287D01*
X21024Y11329D01*
X20950Y11344D01*
D02*
G37*
G36*
X24110Y10746D02*
X23520D01*
X23435Y10729D01*
X23363Y10681D01*
X23315Y10609D01*
X23298Y10524D01*
Y10248D01*
X23315Y10163D01*
X23363Y10091D01*
X23435Y10043D01*
X23520Y10026D01*
X24110D01*
X24195Y10043D01*
X24267Y10091D01*
X24315Y10163D01*
X24332Y10248D01*
Y10524D01*
X24315Y10609D01*
X24267Y10681D01*
X24195Y10729D01*
X24110Y10746D01*
D02*
G37*
G36*
X5730Y9743D02*
X5555D01*
Y9484D01*
X5971D01*
Y9502D01*
X5953Y9594D01*
X5901Y9672D01*
X5822Y9724D01*
X5730Y9743D01*
D02*
G37*
G36*
X8860D02*
X8685D01*
Y9484D01*
X9101D01*
Y9502D01*
X9083Y9594D01*
X9031Y9672D01*
X8952Y9724D01*
X8860Y9743D01*
D02*
G37*
G36*
X10150Y12735D02*
X10060Y12717D01*
X9984Y12666D01*
X9933Y12590D01*
X9915Y12500D01*
X9933Y12410D01*
X9966Y12361D01*
Y11576D01*
X8924Y10534D01*
X8450D01*
X8380Y10520D01*
X8320Y10480D01*
X7021Y9181D01*
X7000Y9183D01*
X6901Y9170D01*
X6808Y9132D01*
X6729Y9071D01*
X6668Y8992D01*
X6630Y8899D01*
X6617Y8800D01*
X6630Y8701D01*
X6668Y8608D01*
X6729Y8529D01*
X6808Y8468D01*
X6901Y8430D01*
X7000Y8417D01*
X7099Y8430D01*
X7192Y8468D01*
X7271Y8529D01*
X7332Y8608D01*
X7370Y8701D01*
X7383Y8800D01*
X7370Y8899D01*
X7338Y8978D01*
X8054Y9695D01*
X8093Y9663D01*
X8079Y9642D01*
X8047Y9594D01*
X8029Y9502D01*
Y9484D01*
X8445D01*
Y9743D01*
X8270D01*
X8178Y9724D01*
X8130Y9692D01*
X8109Y9679D01*
X8077Y9717D01*
X8526Y10166D01*
X9000D01*
X9070Y10180D01*
X9130Y10220D01*
X10280Y11370D01*
X10320Y11430D01*
X10334Y11500D01*
Y12361D01*
X10367Y12410D01*
X10385Y12500D01*
X10367Y12590D01*
X10316Y12666D01*
X10240Y12717D01*
X10150Y12735D01*
D02*
G37*
G36*
X5315Y9743D02*
X5140D01*
X5048Y9724D01*
X4969Y9672D01*
X4917Y9594D01*
X4899Y9502D01*
Y9484D01*
X5315D01*
Y9743D01*
D02*
G37*
G36*
X18350Y9950D02*
X18250Y9930D01*
X18166Y9874D01*
X18110Y9790D01*
X18090Y9690D01*
X18110Y9590D01*
X18166Y9506D01*
X18250Y9450D01*
X18350Y9430D01*
X18449Y9450D01*
X18534Y9506D01*
X18590Y9590D01*
X18610Y9690D01*
X18590Y9790D01*
X18534Y9874D01*
X18449Y9930D01*
X18350Y9950D01*
D02*
G37*
G36*
X16000Y10183D02*
X15901Y10170D01*
X15808Y10132D01*
X15729Y10071D01*
X15668Y9992D01*
X15630Y9899D01*
X15617Y9800D01*
X15630Y9701D01*
X15668Y9608D01*
X15729Y9529D01*
X15808Y9468D01*
X15901Y9430D01*
X16000Y9417D01*
X16099Y9430D01*
X16192Y9468D01*
X16271Y9529D01*
X16332Y9608D01*
X16370Y9701D01*
X16383Y9800D01*
X16370Y9899D01*
X16332Y9992D01*
X16271Y10071D01*
X16192Y10132D01*
X16099Y10170D01*
X16000Y10183D01*
D02*
G37*
G36*
X7000D02*
X6901Y10170D01*
X6808Y10132D01*
X6729Y10071D01*
X6668Y9992D01*
X6630Y9899D01*
X6617Y9800D01*
X6630Y9701D01*
X6668Y9608D01*
X6729Y9529D01*
X6808Y9468D01*
X6901Y9430D01*
X7000Y9417D01*
X7099Y9430D01*
X7192Y9468D01*
X7271Y9529D01*
X7332Y9608D01*
X7370Y9701D01*
X7383Y9800D01*
X7370Y9899D01*
X7332Y9992D01*
X7271Y10071D01*
X7192Y10132D01*
X7099Y10170D01*
X7000Y10183D01*
D02*
G37*
G36*
X9101Y9244D02*
X8685D01*
Y8986D01*
X8860D01*
X8952Y9004D01*
X9031Y9056D01*
X9083Y9134D01*
X9101Y9226D01*
Y9244D01*
D02*
G37*
G36*
X8445D02*
X8029D01*
Y9226D01*
X8047Y9134D01*
X8099Y9056D01*
X8178Y9004D01*
X8270Y8986D01*
X8445D01*
Y9244D01*
D02*
G37*
G36*
X5971D02*
X5555D01*
Y8986D01*
X5730D01*
X5822Y9004D01*
X5901Y9056D01*
X5953Y9134D01*
X5971Y9226D01*
Y9244D01*
D02*
G37*
G36*
X5315D02*
X4899D01*
Y9226D01*
X4917Y9134D01*
X4969Y9056D01*
X5048Y9004D01*
X5140Y8986D01*
X5315D01*
Y9244D01*
D02*
G37*
G36*
X20980Y8993D02*
X20805D01*
Y8734D01*
X21221D01*
Y8752D01*
X21203Y8844D01*
X21151Y8922D01*
X21072Y8974D01*
X20980Y8993D01*
D02*
G37*
G36*
X24110D02*
X23935D01*
Y8734D01*
X24351D01*
Y8752D01*
X24333Y8844D01*
X24281Y8922D01*
X24202Y8974D01*
X24110Y8993D01*
D02*
G37*
G36*
X23695D02*
X23520D01*
X23428Y8974D01*
X23349Y8922D01*
X23297Y8844D01*
X23279Y8752D01*
Y8734D01*
X23695D01*
Y8993D01*
D02*
G37*
G36*
X20565D02*
X20390D01*
X20298Y8974D01*
X20219Y8922D01*
X20167Y8844D01*
X20149Y8752D01*
Y8734D01*
X20565D01*
Y8993D01*
D02*
G37*
G36*
X3150Y8944D02*
X3076Y8929D01*
X3013Y8887D01*
X2971Y8824D01*
X2956Y8750D01*
X2960Y8733D01*
X2473Y8246D01*
X1890D01*
X1805Y8229D01*
X1733Y8181D01*
X1685Y8109D01*
X1668Y8024D01*
Y7748D01*
X1685Y7663D01*
X1733Y7591D01*
X1805Y7543D01*
X1890Y7526D01*
X2480D01*
X2565Y7543D01*
X2637Y7591D01*
X2685Y7663D01*
X2702Y7748D01*
Y8024D01*
X2685Y8109D01*
X2684Y8111D01*
X3133Y8560D01*
X3150Y8556D01*
X3224Y8571D01*
X3287Y8613D01*
X3329Y8676D01*
X3344Y8750D01*
X3329Y8824D01*
X3287Y8887D01*
X3224Y8929D01*
X3150Y8944D01*
D02*
G37*
G36*
X16000Y9183D02*
X15901Y9170D01*
X15808Y9132D01*
X15729Y9071D01*
X15668Y8992D01*
X15630Y8899D01*
X15617Y8800D01*
X15630Y8701D01*
X15668Y8608D01*
X15729Y8529D01*
X15808Y8468D01*
X15901Y8430D01*
X16000Y8417D01*
X16099Y8430D01*
X16192Y8468D01*
X16271Y8529D01*
X16332Y8608D01*
X16370Y8701D01*
X16383Y8800D01*
X16370Y8899D01*
X16332Y8992D01*
X16271Y9071D01*
X16192Y9132D01*
X16099Y9170D01*
X16000Y9183D01*
D02*
G37*
G36*
X24351Y8494D02*
X23935D01*
Y8236D01*
X24110D01*
X24202Y8254D01*
X24281Y8306D01*
X24333Y8384D01*
X24351Y8476D01*
Y8494D01*
D02*
G37*
G36*
X23695D02*
X23279D01*
Y8476D01*
X23297Y8384D01*
X23349Y8306D01*
X23428Y8254D01*
X23520Y8236D01*
X23695D01*
Y8494D01*
D02*
G37*
G36*
X21221D02*
X20805D01*
Y8236D01*
X20980D01*
X21072Y8254D01*
X21151Y8306D01*
X21203Y8384D01*
X21221Y8476D01*
Y8494D01*
D02*
G37*
G36*
X20565D02*
X20149D01*
Y8476D01*
X20167Y8384D01*
X20219Y8306D01*
X20298Y8254D01*
X20390Y8236D01*
X20565D01*
Y8494D01*
D02*
G37*
G36*
X12110Y8246D02*
X11520D01*
X11435Y8229D01*
X11363Y8181D01*
X11315Y8109D01*
X11298Y8024D01*
Y7748D01*
X11315Y7663D01*
X11363Y7591D01*
X11435Y7543D01*
X11520Y7526D01*
X12110D01*
X12195Y7543D01*
X12267Y7591D01*
X12315Y7663D01*
X12332Y7748D01*
Y8024D01*
X12315Y8109D01*
X12267Y8181D01*
X12195Y8229D01*
X12110Y8246D01*
D02*
G37*
G36*
X5610D02*
X5020D01*
X4935Y8229D01*
X4863Y8181D01*
X4815Y8109D01*
X4798Y8024D01*
Y7748D01*
X4815Y7663D01*
X4863Y7591D01*
X4935Y7543D01*
X5020Y7526D01*
X5610D01*
X5695Y7543D01*
X5767Y7591D01*
X5815Y7663D01*
X5832Y7748D01*
Y8024D01*
X5815Y8109D01*
X5767Y8181D01*
X5695Y8229D01*
X5610Y8246D01*
D02*
G37*
G36*
X1450Y11394D02*
X1376Y11379D01*
X1313Y11337D01*
X1271Y11274D01*
X1256Y11200D01*
X1271Y11126D01*
X1313Y11063D01*
X1376Y11021D01*
X1450Y11006D01*
X1467Y11010D01*
X3813Y8663D01*
X3853Y8637D01*
X3900Y8628D01*
X5799D01*
X6618Y7809D01*
X6617Y7800D01*
X6630Y7701D01*
X6668Y7608D01*
X6729Y7529D01*
X6803Y7472D01*
X6802Y7453D01*
X6789Y7422D01*
X4697D01*
X4687Y7437D01*
X4624Y7479D01*
X4550Y7494D01*
X4476Y7479D01*
X4413Y7437D01*
X4371Y7374D01*
X4356Y7300D01*
X4371Y7226D01*
X4377Y7216D01*
X4354Y7172D01*
X2597D01*
X2587Y7187D01*
X2524Y7229D01*
X2450Y7244D01*
X2376Y7229D01*
X2313Y7187D01*
X2271Y7124D01*
X2256Y7050D01*
X2271Y6976D01*
X2313Y6913D01*
X2376Y6871D01*
X2450Y6856D01*
X2524Y6871D01*
X2587Y6913D01*
X2597Y6928D01*
X6593D01*
X6627Y6878D01*
X6617Y6800D01*
X6630Y6701D01*
X6668Y6608D01*
X6729Y6529D01*
X6808Y6468D01*
X6901Y6430D01*
X7000Y6417D01*
X7099Y6430D01*
X7192Y6468D01*
X7271Y6529D01*
X7332Y6608D01*
X7370Y6701D01*
X7383Y6800D01*
X7370Y6899D01*
X7332Y6992D01*
X7271Y7071D01*
X7197Y7128D01*
X7198Y7147D01*
X7211Y7178D01*
X8099D01*
X8146Y7187D01*
X8186Y7213D01*
X8498Y7526D01*
X8980D01*
X9065Y7543D01*
X9137Y7591D01*
X9185Y7663D01*
X9202Y7748D01*
Y8024D01*
X9185Y8109D01*
X9137Y8181D01*
X9065Y8229D01*
X8980Y8246D01*
X8390D01*
X8305Y8229D01*
X8233Y8181D01*
X8185Y8109D01*
X8168Y8024D01*
Y7748D01*
X8185Y7663D01*
X8227Y7600D01*
X8049Y7422D01*
X7211D01*
X7198Y7453D01*
X7197Y7472D01*
X7271Y7529D01*
X7332Y7608D01*
X7370Y7701D01*
X7383Y7800D01*
X7370Y7899D01*
X7332Y7992D01*
X7271Y8071D01*
X7192Y8132D01*
X7099Y8170D01*
X7000Y8183D01*
X6901Y8170D01*
X6808Y8132D01*
X6729Y8071D01*
X6704Y8069D01*
X5937Y8837D01*
X5897Y8863D01*
X5850Y8872D01*
X3951D01*
X1640Y11183D01*
X1644Y11200D01*
X1629Y11274D01*
X1587Y11337D01*
X1524Y11379D01*
X1450Y11394D01*
D02*
G37*
G36*
X18350Y7270D02*
X18250Y7250D01*
X18166Y7194D01*
X18110Y7110D01*
X18090Y7010D01*
X18110Y6910D01*
X18166Y6826D01*
X18250Y6770D01*
X18350Y6750D01*
X18449Y6770D01*
X18534Y6826D01*
X18590Y6910D01*
X18610Y7010D01*
X18590Y7110D01*
X18534Y7194D01*
X18449Y7250D01*
X18350Y7270D01*
D02*
G37*
G36*
X8980Y6493D02*
X8805D01*
Y6234D01*
X9221D01*
Y6252D01*
X9203Y6344D01*
X9151Y6422D01*
X9072Y6474D01*
X8980Y6493D01*
D02*
G37*
G36*
X2480D02*
X2305D01*
Y6234D01*
X2721D01*
Y6252D01*
X2703Y6344D01*
X2651Y6422D01*
X2572Y6474D01*
X2480Y6493D01*
D02*
G37*
G36*
X12110D02*
X11935D01*
Y6234D01*
X12351D01*
Y6252D01*
X12333Y6344D01*
X12281Y6422D01*
X12202Y6474D01*
X12110Y6493D01*
D02*
G37*
G36*
X5610D02*
X5435D01*
Y6234D01*
X5851D01*
Y6252D01*
X5833Y6344D01*
X5781Y6422D01*
X5702Y6474D01*
X5610Y6493D01*
D02*
G37*
G36*
X11695D02*
X11520D01*
X11428Y6474D01*
X11349Y6422D01*
X11297Y6344D01*
X11279Y6252D01*
Y6234D01*
X11695D01*
Y6493D01*
D02*
G37*
G36*
X8565D02*
X8390D01*
X8298Y6474D01*
X8219Y6422D01*
X8167Y6344D01*
X8149Y6252D01*
Y6234D01*
X8565D01*
Y6493D01*
D02*
G37*
G36*
X5195D02*
X5020D01*
X4928Y6474D01*
X4849Y6422D01*
X4797Y6344D01*
X4779Y6252D01*
Y6234D01*
X5195D01*
Y6493D01*
D02*
G37*
G36*
X2065D02*
X1890D01*
X1798Y6474D01*
X1719Y6422D01*
X1667Y6344D01*
X1649Y6252D01*
Y6234D01*
X2065D01*
Y6493D01*
D02*
G37*
G36*
X12351Y5994D02*
X11935D01*
Y5736D01*
X12110D01*
X12202Y5754D01*
X12281Y5806D01*
X12333Y5884D01*
X12351Y5976D01*
Y5994D01*
D02*
G37*
G36*
X11695D02*
X11279D01*
Y5976D01*
X11297Y5884D01*
X11349Y5806D01*
X11428Y5754D01*
X11520Y5736D01*
X11695D01*
Y5994D01*
D02*
G37*
G36*
X9221D02*
X8805D01*
Y5736D01*
X8980D01*
X9072Y5754D01*
X9151Y5806D01*
X9203Y5884D01*
X9221Y5976D01*
Y5994D01*
D02*
G37*
G36*
X8565D02*
X8149D01*
Y5976D01*
X8167Y5884D01*
X8219Y5806D01*
X8298Y5754D01*
X8390Y5736D01*
X8565D01*
Y5994D01*
D02*
G37*
G36*
X5851D02*
X5435D01*
Y5736D01*
X5610D01*
X5702Y5754D01*
X5781Y5806D01*
X5833Y5884D01*
X5851Y5976D01*
Y5994D01*
D02*
G37*
G36*
X5195D02*
X4779D01*
Y5976D01*
X4797Y5884D01*
X4849Y5806D01*
X4928Y5754D01*
X5020Y5736D01*
X5195D01*
Y5994D01*
D02*
G37*
G36*
X2721D02*
X2305D01*
Y5736D01*
X2480D01*
X2572Y5754D01*
X2651Y5806D01*
X2703Y5884D01*
X2721Y5976D01*
Y5994D01*
D02*
G37*
G36*
X2065D02*
X1649D01*
Y5976D01*
X1667Y5884D01*
X1719Y5806D01*
X1798Y5754D01*
X1890Y5736D01*
X2065D01*
Y5994D01*
D02*
G37*
G36*
X16000Y6183D02*
X15901Y6170D01*
X15808Y6132D01*
X15729Y6071D01*
X15668Y5992D01*
X15630Y5899D01*
X15617Y5800D01*
X15630Y5701D01*
X15668Y5608D01*
X15729Y5529D01*
X15808Y5468D01*
X15901Y5430D01*
X16000Y5417D01*
X16099Y5430D01*
X16192Y5468D01*
X16271Y5529D01*
X16332Y5608D01*
X16370Y5701D01*
X16383Y5800D01*
X16370Y5899D01*
X16332Y5992D01*
X16271Y6071D01*
X16192Y6132D01*
X16099Y6170D01*
X16000Y6183D01*
D02*
G37*
G36*
X7000D02*
X6901Y6170D01*
X6808Y6132D01*
X6729Y6071D01*
X6668Y5992D01*
X6639Y5922D01*
X6300D01*
X6253Y5913D01*
X6213Y5887D01*
X5749Y5422D01*
X2047D01*
X2037Y5437D01*
X1974Y5479D01*
X1900Y5494D01*
X1826Y5479D01*
X1763Y5437D01*
X1721Y5374D01*
X1706Y5300D01*
X1721Y5226D01*
X1763Y5163D01*
X1826Y5121D01*
X1900Y5106D01*
X1974Y5121D01*
X2037Y5163D01*
X2047Y5178D01*
X5800D01*
X5847Y5187D01*
X5887Y5213D01*
X6351Y5678D01*
X6639D01*
X6668Y5608D01*
X6729Y5529D01*
X6808Y5468D01*
X6901Y5430D01*
X7000Y5417D01*
X7099Y5430D01*
X7192Y5468D01*
X7271Y5529D01*
X7332Y5608D01*
X7370Y5701D01*
X7383Y5800D01*
X7370Y5899D01*
X7332Y5992D01*
X7271Y6071D01*
X7192Y6132D01*
X7099Y6170D01*
X7000Y6183D01*
D02*
G37*
G36*
X24110Y5746D02*
X23520D01*
X23435Y5729D01*
X23363Y5681D01*
X23315Y5609D01*
X23298Y5524D01*
Y5248D01*
X23315Y5163D01*
X23363Y5091D01*
X23435Y5043D01*
X23520Y5026D01*
X24110D01*
X24195Y5043D01*
X24267Y5091D01*
X24315Y5163D01*
X24332Y5248D01*
Y5524D01*
X24315Y5609D01*
X24267Y5681D01*
X24195Y5729D01*
X24110Y5746D01*
D02*
G37*
G36*
X20250Y6194D02*
X20176Y6179D01*
X20113Y6137D01*
X20071Y6074D01*
X20056Y6000D01*
X20071Y5926D01*
X20113Y5863D01*
X20128Y5853D01*
Y5700D01*
X20137Y5653D01*
X20163Y5613D01*
X20182Y5595D01*
X20168Y5524D01*
Y5248D01*
X20185Y5163D01*
X20233Y5091D01*
X20305Y5043D01*
X20390Y5026D01*
X20980D01*
X21065Y5043D01*
X21137Y5091D01*
X21185Y5163D01*
X21202Y5248D01*
Y5524D01*
X21185Y5609D01*
X21137Y5681D01*
X21065Y5729D01*
X20980Y5746D01*
X20390D01*
X20372Y5793D01*
Y5853D01*
X20387Y5863D01*
X20429Y5926D01*
X20444Y6000D01*
X20429Y6074D01*
X20387Y6137D01*
X20324Y6179D01*
X20250Y6194D01*
D02*
G37*
G36*
X16000Y8183D02*
X15901Y8170D01*
X15808Y8132D01*
X15729Y8071D01*
X15668Y7992D01*
X15630Y7899D01*
X15617Y7800D01*
X15630Y7701D01*
X15668Y7608D01*
X15729Y7529D01*
X15808Y7468D01*
X15901Y7430D01*
X16000Y7417D01*
X16099Y7430D01*
X16192Y7468D01*
X16201Y7476D01*
X18713Y4963D01*
X18753Y4937D01*
X18800Y4928D01*
X19653D01*
X19663Y4913D01*
X19726Y4871D01*
X19800Y4856D01*
X19874Y4871D01*
X19937Y4913D01*
X19979Y4976D01*
X19994Y5050D01*
X19979Y5124D01*
X19937Y5187D01*
X19874Y5229D01*
X19800Y5244D01*
X19726Y5229D01*
X19663Y5187D01*
X19653Y5172D01*
X18851D01*
X16356Y7667D01*
X16370Y7701D01*
X16383Y7800D01*
X16370Y7899D01*
X16332Y7992D01*
X16271Y8071D01*
X16192Y8132D01*
X16099Y8170D01*
X16000Y8183D01*
D02*
G37*
G36*
X5730Y4996D02*
X5140D01*
X5055Y4979D01*
X4983Y4931D01*
X4935Y4859D01*
X4918Y4774D01*
Y4758D01*
X4602D01*
X4573Y4801D01*
X4510Y4843D01*
X4436Y4858D01*
X4362Y4843D01*
X4299Y4801D01*
X4257Y4738D01*
X4242Y4664D01*
X4257Y4590D01*
X4299Y4527D01*
X4362Y4485D01*
X4436Y4470D01*
X4510Y4485D01*
X4552Y4513D01*
X4918D01*
Y4498D01*
X4935Y4413D01*
X4983Y4341D01*
X5055Y4293D01*
X5140Y4276D01*
X5730D01*
X5815Y4293D01*
X5887Y4341D01*
X5935Y4413D01*
X5952Y4498D01*
Y4774D01*
X5935Y4859D01*
X5887Y4931D01*
X5815Y4979D01*
X5730Y4996D01*
D02*
G37*
G36*
X16000Y5183D02*
X15901Y5170D01*
X15808Y5132D01*
X15729Y5071D01*
X15668Y4992D01*
X15630Y4899D01*
X15617Y4800D01*
X15630Y4701D01*
X15668Y4608D01*
X15729Y4529D01*
X15808Y4468D01*
X15901Y4430D01*
X16000Y4417D01*
X16099Y4430D01*
X16192Y4468D01*
X16271Y4529D01*
X16332Y4608D01*
X16370Y4701D01*
X16383Y4800D01*
X16370Y4899D01*
X16332Y4992D01*
X16271Y5071D01*
X16192Y5132D01*
X16099Y5170D01*
X16000Y5183D01*
D02*
G37*
G36*
X7000D02*
X6901Y5170D01*
X6808Y5132D01*
X6729Y5071D01*
X6668Y4992D01*
X6630Y4899D01*
X6617Y4800D01*
X6630Y4701D01*
X6668Y4608D01*
X6729Y4529D01*
X6808Y4468D01*
X6901Y4430D01*
X7000Y4417D01*
X7099Y4430D01*
X7192Y4468D01*
X7271Y4529D01*
X7332Y4608D01*
X7370Y4701D01*
X7383Y4800D01*
X7370Y4899D01*
X7332Y4992D01*
X7271Y5071D01*
X7192Y5132D01*
X7099Y5170D01*
X7000Y5183D01*
D02*
G37*
G36*
X8860Y4996D02*
X8270D01*
X8185Y4979D01*
X8113Y4931D01*
X8065Y4859D01*
X8048Y4774D01*
Y4498D01*
X8065Y4413D01*
X8113Y4341D01*
X8185Y4293D01*
X8270Y4276D01*
X8860D01*
X8945Y4293D01*
X9017Y4341D01*
X9065Y4413D01*
X9082Y4498D01*
Y4774D01*
X9065Y4859D01*
X9017Y4931D01*
X8945Y4979D01*
X8860Y4996D01*
D02*
G37*
G36*
X16000Y7183D02*
X15901Y7170D01*
X15808Y7132D01*
X15729Y7071D01*
X15668Y6992D01*
X15630Y6899D01*
X15617Y6800D01*
X15630Y6701D01*
X15668Y6608D01*
X15729Y6529D01*
X15808Y6468D01*
X15901Y6430D01*
X16000Y6417D01*
X16099Y6430D01*
X16168Y6458D01*
X18363Y4263D01*
X18403Y4237D01*
X18450Y4228D01*
X19903D01*
X19913Y4213D01*
X19976Y4171D01*
X20050Y4156D01*
X20124Y4171D01*
X20187Y4213D01*
X20229Y4276D01*
X20244Y4350D01*
X20229Y4424D01*
X20187Y4487D01*
X20124Y4529D01*
X20050Y4544D01*
X19976Y4529D01*
X19913Y4487D01*
X19903Y4472D01*
X18501D01*
X16342Y6632D01*
X16370Y6701D01*
X16383Y6800D01*
X16370Y6899D01*
X16332Y6992D01*
X16271Y7071D01*
X16192Y7132D01*
X16099Y7170D01*
X16000Y7183D01*
D02*
G37*
G36*
X20980Y3993D02*
X20805D01*
Y3734D01*
X21221D01*
Y3752D01*
X21203Y3844D01*
X21151Y3922D01*
X21072Y3974D01*
X20980Y3993D01*
D02*
G37*
G36*
X24110D02*
X23935D01*
Y3734D01*
X24351D01*
Y3752D01*
X24333Y3844D01*
X24281Y3922D01*
X24202Y3974D01*
X24110Y3993D01*
D02*
G37*
G36*
X23695D02*
X23520D01*
X23428Y3974D01*
X23349Y3922D01*
X23297Y3844D01*
X23279Y3752D01*
Y3734D01*
X23695D01*
Y3993D01*
D02*
G37*
G36*
X20565D02*
X20390D01*
X20298Y3974D01*
X20219Y3922D01*
X20167Y3844D01*
X20149Y3752D01*
Y3734D01*
X20565D01*
Y3993D01*
D02*
G37*
G36*
X16000Y4183D02*
X15901Y4170D01*
X15808Y4132D01*
X15729Y4071D01*
X15668Y3992D01*
X15630Y3899D01*
X15617Y3800D01*
X15630Y3701D01*
X15668Y3608D01*
X15729Y3529D01*
X15808Y3468D01*
X15901Y3430D01*
X16000Y3417D01*
X16099Y3430D01*
X16192Y3468D01*
X16271Y3529D01*
X16332Y3608D01*
X16370Y3701D01*
X16383Y3800D01*
X16370Y3899D01*
X16332Y3992D01*
X16271Y4071D01*
X16192Y4132D01*
X16099Y4170D01*
X16000Y4183D01*
D02*
G37*
G36*
X7000D02*
X6901Y4170D01*
X6808Y4132D01*
X6729Y4071D01*
X6668Y3992D01*
X6630Y3899D01*
X6617Y3800D01*
X6630Y3701D01*
X6668Y3608D01*
X6729Y3529D01*
X6808Y3468D01*
X6901Y3430D01*
X7000Y3417D01*
X7099Y3430D01*
X7192Y3468D01*
X7271Y3529D01*
X7332Y3608D01*
X7370Y3701D01*
X7383Y3800D01*
X7370Y3899D01*
X7332Y3992D01*
X7271Y4071D01*
X7192Y4132D01*
X7099Y4170D01*
X7000Y4183D01*
D02*
G37*
G36*
X24351Y3494D02*
X23935D01*
Y3236D01*
X24110D01*
X24202Y3254D01*
X24281Y3306D01*
X24333Y3384D01*
X24351Y3476D01*
Y3494D01*
D02*
G37*
G36*
X23695D02*
X23279D01*
Y3476D01*
X23297Y3384D01*
X23349Y3306D01*
X23428Y3254D01*
X23520Y3236D01*
X23695D01*
Y3494D01*
D02*
G37*
G36*
X21221D02*
X20805D01*
Y3236D01*
X20980D01*
X21072Y3254D01*
X21151Y3306D01*
X21203Y3384D01*
X21221Y3476D01*
Y3494D01*
D02*
G37*
G36*
X20565D02*
X20149D01*
Y3476D01*
X20167Y3384D01*
X20219Y3306D01*
X20298Y3254D01*
X20390Y3236D01*
X20565D01*
Y3494D01*
D02*
G37*
G36*
X5730Y3243D02*
X5555D01*
Y2984D01*
X5971D01*
Y3002D01*
X5953Y3094D01*
X5901Y3172D01*
X5822Y3224D01*
X5730Y3243D01*
D02*
G37*
G36*
X8860D02*
X8685D01*
Y2984D01*
X9101D01*
Y3002D01*
X9083Y3094D01*
X9031Y3172D01*
X8952Y3224D01*
X8860Y3243D01*
D02*
G37*
G36*
X8445D02*
X8270D01*
X8178Y3224D01*
X8099Y3172D01*
X8047Y3094D01*
X8029Y3002D01*
Y2984D01*
X8445D01*
Y3243D01*
D02*
G37*
G36*
X5315D02*
X5140D01*
X5048Y3224D01*
X4969Y3172D01*
X4917Y3094D01*
X4899Y3002D01*
Y2984D01*
X5315D01*
Y3243D01*
D02*
G37*
G36*
X25090Y3569D02*
X24982Y3554D01*
X24881Y3512D01*
X24794Y3446D01*
X24727Y3359D01*
X24686Y3258D01*
X24671Y3150D01*
X24686Y3042D01*
X24727Y2941D01*
X24794Y2854D01*
X24881Y2788D01*
X24982Y2746D01*
X25090Y2731D01*
X25198Y2746D01*
X25299Y2788D01*
X25386Y2854D01*
X25452Y2941D01*
X25494Y3042D01*
X25509Y3150D01*
X25494Y3258D01*
X25452Y3359D01*
X25386Y3446D01*
X25299Y3512D01*
X25198Y3554D01*
X25090Y3569D01*
D02*
G37*
G36*
X9101Y2744D02*
X8685D01*
Y2486D01*
X8860D01*
X8952Y2504D01*
X9031Y2556D01*
X9083Y2634D01*
X9101Y2726D01*
Y2744D01*
D02*
G37*
G36*
X8445D02*
X8029D01*
Y2726D01*
X8047Y2634D01*
X8099Y2556D01*
X8178Y2504D01*
X8270Y2486D01*
X8445D01*
Y2744D01*
D02*
G37*
G36*
X5971D02*
X5555D01*
Y2486D01*
X5730D01*
X5822Y2504D01*
X5901Y2556D01*
X5953Y2634D01*
X5971Y2726D01*
Y2744D01*
D02*
G37*
G36*
X5315D02*
X4899D01*
Y2726D01*
X4917Y2634D01*
X4969Y2556D01*
X5048Y2504D01*
X5140Y2486D01*
X5315D01*
Y2744D01*
D02*
G37*
G36*
X7380Y3180D02*
X6620D01*
Y2420D01*
X7380D01*
Y3180D01*
D02*
G37*
G36*
X16000Y3183D02*
X15901Y3170D01*
X15808Y3132D01*
X15729Y3071D01*
X15668Y2992D01*
X15630Y2899D01*
X15617Y2800D01*
X15630Y2701D01*
X15668Y2608D01*
X15729Y2529D01*
X15808Y2468D01*
X15901Y2430D01*
X16000Y2417D01*
X16099Y2430D01*
X16192Y2468D01*
X16271Y2529D01*
X16332Y2608D01*
X16370Y2701D01*
X16383Y2800D01*
X16370Y2899D01*
X16332Y2992D01*
X16271Y3071D01*
X16192Y3132D01*
X16099Y3170D01*
X16000Y3183D01*
D02*
G37*
%LPD*%
D11*
X20950Y10600D02*
Y11150D01*
D12*
X6750Y7050D02*
X7000Y6800D01*
X2450Y7050D02*
X6750D01*
X3850Y32050D02*
X4655Y32855D01*
X4672D01*
X3050Y32050D02*
X3850D01*
X14450Y22300D02*
Y27100D01*
X1450Y11200D02*
X3900Y8750D01*
X5850D01*
X16075Y7800D02*
X16150D01*
X16000D02*
X16075D01*
Y7875D01*
Y7775D02*
Y7800D01*
X18800Y5050D02*
X19800D01*
X16075Y7775D02*
X18800Y5050D01*
X2200Y7800D02*
X2375Y7975D01*
X3150Y8750D01*
X8099Y7300D02*
X8685Y7886D01*
X4550Y7300D02*
X8099D01*
X2375Y7975D02*
X2500Y7850D01*
X2350Y8000D02*
X2375Y7975D01*
X20139Y31961D02*
X21400Y30700D01*
X18500Y29050D02*
Y30050D01*
X20564Y10386D02*
X20714Y10536D01*
X7000Y8800D02*
Y8900D01*
X1900Y21150D02*
Y31650D01*
X2300Y32050D01*
X5800Y5300D02*
X6300Y5800D01*
X1900Y5300D02*
X5800D01*
X2450Y30924D02*
X2576Y31050D01*
X2450Y21550D02*
Y30924D01*
X1450Y20600D02*
Y32250D01*
X5850Y8750D02*
X6800Y7800D01*
X6300Y5800D02*
X7000D01*
X1450Y32250D02*
X2250Y33050D01*
X2300Y32050D02*
X3050D01*
X2576Y31050D02*
X3050D01*
X2250Y33050D02*
X3050D01*
X16000Y6800D02*
X18450Y4350D01*
X20050D01*
X19650Y31800D02*
X21250Y30200D01*
X17600Y31800D02*
X19650D01*
X18089Y31961D02*
X20139D01*
X17800Y32250D02*
X18089Y31961D01*
X17800Y32250D02*
Y32700D01*
X17100Y32300D02*
X17600Y31800D01*
X8500Y8071D02*
X8685Y7886D01*
X12050Y22350D02*
Y28650D01*
X11950Y28750D02*
X12050Y28650D01*
X11150Y28750D02*
X11950D01*
X11100Y28800D02*
X11150Y28750D01*
X11100Y28800D02*
Y29850D01*
X10700Y30250D02*
X11100Y29850D01*
X10550Y30250D02*
X10700D01*
X5550Y25750D02*
Y28000D01*
X3450Y23650D02*
X5550Y25750D01*
X4846Y11725D02*
X5435Y11136D01*
X3450Y21900D02*
Y23650D01*
X4250Y21725D02*
Y21750D01*
X4414Y4636D02*
X5435D01*
X4850Y24250D02*
X6600Y26000D01*
Y28000D01*
X7050Y25850D02*
Y28000D01*
X4500Y23300D02*
X7050Y25850D01*
X4250Y21750D02*
X8000Y25500D01*
Y26000D01*
X8600Y28800D02*
Y30150D01*
X18250Y12750D02*
Y14050D01*
X20564Y10386D02*
X20685D01*
X14050Y32050D02*
Y32750D01*
X8600Y28800D02*
X9300Y28100D01*
X10600D01*
X14950Y25950D02*
X15250Y26250D01*
Y27750D02*
X15600Y28100D01*
X19900D01*
X20250Y5700D02*
Y6000D01*
Y5700D02*
X20564Y5386D01*
X20685D01*
X15250Y26250D02*
Y27750D01*
D14*
X5315Y7886D02*
D03*
Y6114D02*
D03*
X2185D02*
D03*
Y7886D02*
D03*
X20685Y5386D02*
D03*
Y3614D02*
D03*
X23815D02*
D03*
Y5386D02*
D03*
X20685Y10386D02*
D03*
Y8614D02*
D03*
X23815D02*
D03*
Y10386D02*
D03*
X11815Y7886D02*
D03*
Y6114D02*
D03*
X8685D02*
D03*
Y7886D02*
D03*
X8565Y4636D02*
D03*
Y2864D02*
D03*
X5435D02*
D03*
Y4636D02*
D03*
X8565Y11136D02*
D03*
Y9364D02*
D03*
X5435D02*
D03*
Y11136D02*
D03*
D28*
X10150Y11500D02*
Y12500D01*
X9000Y10350D02*
X10150Y11500D01*
X8450Y10350D02*
X9000D01*
X7000Y8900D02*
X8450Y10350D01*
D29*
X6500Y32050D02*
Y33150D01*
X7750Y28450D02*
Y29100D01*
Y28450D02*
X9235Y26965D01*
X10000Y26050D02*
Y26650D01*
X9685Y26965D02*
X10000Y26650D01*
X9235Y26965D02*
X9685D01*
X10800Y22900D02*
Y24716D01*
X10000Y25516D02*
X10800Y24716D01*
X10000Y25516D02*
Y26050D01*
D30*
X12515Y23481D02*
Y28835D01*
X12715Y24281D02*
Y28885D01*
X12910Y23481D02*
Y28940D01*
X13105Y24281D02*
Y29095D01*
X13305Y23481D02*
Y29145D01*
X13500Y24281D02*
Y29200D01*
X13700Y23481D02*
Y29250D01*
X12320Y24281D02*
Y24302D01*
X11200Y25700D02*
X11650Y25250D01*
Y24400D02*
Y25250D01*
X19225Y10525D02*
X20375D01*
X20450Y10450D01*
X11900Y30300D02*
X13105Y29095D01*
X11100Y30300D02*
X11900D01*
X11980Y30470D02*
X13305Y29145D01*
X11330Y30470D02*
X11980D01*
X11200Y30600D02*
X11330Y30470D01*
X12000Y30950D02*
X13700Y29250D01*
X11836Y30950D02*
X12000D01*
X11200Y30600D02*
Y30850D01*
X12050Y30650D02*
X13500Y29200D01*
X11620Y30650D02*
X12050D01*
X11520Y30750D02*
X11620Y30650D01*
X10885Y30515D02*
X11100Y30300D01*
X10885Y30515D02*
Y30750D01*
X11400Y30015D02*
X11835D01*
X11500Y29070D02*
X12030D01*
X11400Y29385D02*
X11965D01*
X11500Y29700D02*
X11900D01*
X12320Y24302D02*
X12341Y24281D01*
X12520Y23497D02*
X12536Y23481D01*
X12720Y24297D02*
X12736Y24281D01*
X11835Y30015D02*
X12910Y28940D01*
X11900Y29700D02*
X12715Y28885D01*
X11965Y29385D02*
X12515Y28835D01*
X12030Y29070D02*
X12320Y28780D01*
Y24302D02*
Y28780D01*
D31*
X10300Y34650D02*
X21550D01*
X23000Y33200D01*
Y31650D02*
Y33200D01*
D32*
X16500Y31600D02*
X17100Y31000D01*
X16500Y31600D02*
Y32150D01*
X15550D02*
X16500D01*
X16750Y32400D01*
D33*
X18350Y9690D02*
D03*
Y7010D02*
D03*
D34*
X25000Y30750D02*
D03*
D35*
Y30250D02*
D03*
Y29750D02*
D03*
Y29250D02*
D03*
Y28750D02*
D03*
D36*
X3050Y28050D02*
D03*
D37*
Y29050D02*
D03*
Y30050D02*
D03*
Y31050D02*
D03*
Y32050D02*
D03*
Y33050D02*
D03*
D38*
X25090Y3150D02*
D03*
X910Y22350D02*
D03*
D39*
X7000Y4800D02*
D03*
Y8800D02*
D03*
X16000Y4800D02*
D03*
Y8800D02*
D03*
X7000Y5800D02*
D03*
Y3800D02*
D03*
Y7800D02*
D03*
Y6800D02*
D03*
X16000Y2800D02*
D03*
Y3800D02*
D03*
Y5800D02*
D03*
Y6800D02*
D03*
Y7800D02*
D03*
X7000Y9800D02*
D03*
X16000D02*
D03*
D40*
X7000Y2800D02*
D03*
D41*
X10900Y11950D02*
D03*
X9500Y25326D02*
D03*
X15100Y33050D02*
D03*
X14450Y27100D02*
D03*
X1450Y11200D02*
D03*
X2450Y7050D02*
D03*
X4846Y11725D02*
D03*
X3150Y8750D02*
D03*
X4550Y7300D02*
D03*
X21400Y30700D02*
D03*
X18500Y29050D02*
D03*
X1900Y21150D02*
D03*
Y5300D02*
D03*
X2450Y21550D02*
D03*
X1450Y20600D02*
D03*
X19800Y5050D02*
D03*
X20050Y4350D02*
D03*
X21250Y30200D02*
D03*
X17100Y32300D02*
D03*
X17800Y32700D02*
D03*
X12055Y22331D02*
D03*
X12715Y24281D02*
D03*
X13105D02*
D03*
X13500D02*
D03*
X12320D02*
D03*
X10550Y30250D02*
D03*
X5550Y28000D02*
D03*
X3450Y21900D02*
D03*
X4250Y21725D02*
D03*
X4850Y24250D02*
D03*
X4500Y23300D02*
D03*
X4436Y4664D02*
D03*
X8600Y30150D02*
D03*
X11200Y25700D02*
D03*
X19225Y10525D02*
D03*
X18250Y14050D02*
D03*
Y12750D02*
D03*
X14450Y22300D02*
D03*
X11530Y23381D02*
D03*
X15469Y23469D02*
D03*
X13305Y23481D02*
D03*
X12515D02*
D03*
X15180Y12750D02*
D03*
X20950Y11150D02*
D03*
X18500Y30050D02*
D03*
X11836Y30950D02*
D03*
X11200Y30850D02*
D03*
X11520Y30750D02*
D03*
X10885D02*
D03*
X11400Y30015D02*
D03*
Y29385D02*
D03*
X11500Y29070D02*
D03*
Y29700D02*
D03*
X17600Y33950D02*
D03*
X16300Y32650D02*
D03*
X17100Y31000D02*
D03*
X20250Y6000D02*
D03*
X8000Y26000D02*
D03*
X14879Y23471D02*
D03*
X7050Y28000D02*
D03*
X17450Y32400D02*
D03*
X12150Y32550D02*
D03*
X14250Y10450D02*
D03*
X11650Y26450D02*
D03*
X9955Y23381D02*
D03*
X18050Y28631D02*
D03*
X13700Y23481D02*
D03*
X12910D02*
D03*
X6600Y28000D02*
D03*
X7050Y31900D02*
D03*
X16750Y32400D02*
D03*
X15550Y32150D02*
D03*
X16650Y24350D02*
D03*
X11650Y24400D02*
D03*
X14050Y32750D02*
D03*
Y32050D02*
D03*
X10600Y28100D02*
D03*
X14950Y25950D02*
D03*
X19900Y28100D02*
D03*
D42*
X10150Y12500D02*
D03*
X6500Y33150D02*
D03*
X4672Y32855D02*
D03*
X5000Y900D02*
D03*
X7750Y29100D02*
D03*
X10800Y22900D02*
D03*
X6500Y32050D02*
D03*
X5000Y1700D02*
D03*
X10000Y26050D02*
D03*
X9235Y26965D02*
D03*
X4250Y1700D02*
D03*
Y900D02*
D03*
D43*
X10300Y34650D02*
D03*
X23000Y31650D02*
D03*
M02*
