G04*
G04 #@! TF.GenerationSoftware,Altium Limited,Altium Designer,19.1.8 (144)*
G04*
G04 Layer_Color=32896*
%FSLAX24Y24*%
%MOIN*%
G70*
G01*
G75*
%ADD10C,0.0079*%
%ADD11C,0.0100*%
%ADD12C,0.0080*%
%ADD13C,0.0090*%
%ADD28C,0.0200*%
%ADD66C,0.0120*%
%ADD67C,0.0110*%
%ADD98C,0.0140*%
%ADD99C,0.0160*%
%ADD100C,0.0030*%
G36*
X24400Y30725D02*
X23900Y30475D01*
Y30975D01*
X24400Y30725D01*
D02*
G37*
G36*
X7400Y15250D02*
X6900Y15500D01*
X7400Y15750D01*
Y15250D01*
D02*
G37*
G36*
X13695Y2090D02*
X13345D01*
Y2220D01*
X13695D01*
Y2090D01*
D02*
G37*
G36*
X14005Y1370D02*
X13655D01*
Y1507D01*
X14005D01*
Y1370D01*
D02*
G37*
G36*
X13220D02*
X13060D01*
Y1910D01*
X13220D01*
Y1370D01*
D02*
G37*
G36*
X12650D02*
X12490D01*
Y1910D01*
X12650D01*
Y1370D01*
D02*
G37*
G36*
X11840D02*
X11680D01*
Y2220D01*
X11840D01*
Y1370D01*
D02*
G37*
G36*
X13154Y936D02*
X13026D01*
Y1113D01*
X13154D01*
Y936D01*
D02*
G37*
G36*
X12350Y810D02*
X12240D01*
Y1110D01*
X12350D01*
Y810D01*
D02*
G37*
G36*
X13577Y778D02*
X13459D01*
Y847D01*
X13577D01*
Y778D01*
D02*
G37*
G36*
X12081Y709D02*
X12159D01*
Y601D01*
X11677D01*
Y1113D01*
X11805D01*
Y709D01*
X11953D01*
Y1113D01*
X12081D01*
Y709D01*
D02*
G37*
G36*
X13370Y601D02*
X13242D01*
Y1113D01*
X13370D01*
Y601D01*
D02*
G37*
G36*
X12829Y887D02*
X12967D01*
Y795D01*
X13173Y631D01*
X13173Y611D01*
X13163Y601D01*
X13035D01*
X12829Y770D01*
Y424D01*
X12701D01*
Y1113D01*
X12829D01*
Y887D01*
D02*
G37*
G36*
X12593Y601D02*
X12465D01*
Y1113D01*
X12593D01*
Y601D01*
D02*
G37*
G36*
Y424D02*
X12465D01*
Y552D01*
X12593D01*
Y424D01*
D02*
G37*
G36*
X17125Y7420D02*
X17144Y7418D01*
X17161Y7414D01*
X17178Y7410D01*
X17194Y7404D01*
X17209Y7398D01*
X17222Y7391D01*
X17234Y7385D01*
X17245Y7378D01*
X17255Y7371D01*
X17263Y7365D01*
X17269Y7360D01*
X17275Y7355D01*
X17279Y7351D01*
X17281Y7349D01*
X17282Y7348D01*
X17294Y7334D01*
X17304Y7320D01*
X17314Y7303D01*
X17321Y7287D01*
X17328Y7270D01*
X17334Y7254D01*
X17338Y7237D01*
X17341Y7222D01*
X17344Y7207D01*
X17346Y7193D01*
X17348Y7180D01*
X17349Y7170D01*
Y7161D01*
X17350Y7155D01*
Y7150D01*
Y7149D01*
Y7149D01*
X17349Y7123D01*
X17346Y7101D01*
X17341Y7078D01*
X17338Y7069D01*
X17335Y7059D01*
X17333Y7051D01*
X17330Y7044D01*
X17328Y7037D01*
X17326Y7031D01*
X17324Y7027D01*
X17323Y7024D01*
X17321Y7021D01*
Y7021D01*
X17309Y6999D01*
X17295Y6981D01*
X17280Y6964D01*
X17266Y6951D01*
X17254Y6940D01*
X17249Y6936D01*
X17244Y6933D01*
X17240Y6930D01*
X17237Y6927D01*
X17235Y6927D01*
X17235Y6926D01*
X17223Y6920D01*
X17212Y6915D01*
X17190Y6906D01*
X17169Y6900D01*
X17149Y6896D01*
X17139Y6894D01*
X17131Y6893D01*
X17124Y6892D01*
X17117D01*
X17112Y6891D01*
X17105D01*
X17081Y6893D01*
X17058Y6896D01*
X17036Y6901D01*
X17027Y6904D01*
X17018Y6907D01*
X17010Y6910D01*
X17002Y6913D01*
X16996Y6915D01*
X16991Y6917D01*
X16987Y6919D01*
X16983Y6921D01*
X16981Y6922D01*
X16981D01*
X16960Y6936D01*
X16942Y6950D01*
X16927Y6966D01*
X16915Y6981D01*
X16905Y6995D01*
X16901Y7000D01*
X16898Y7005D01*
X16895Y7010D01*
X16893Y7012D01*
X16892Y7015D01*
Y7015D01*
X16886Y7027D01*
X16882Y7039D01*
X16873Y7063D01*
X16868Y7086D01*
X16864Y7108D01*
X16863Y7118D01*
X16862Y7126D01*
X16861Y7135D01*
Y7141D01*
X16860Y7147D01*
Y7151D01*
Y7154D01*
Y7155D01*
X16862Y7183D01*
X16865Y7209D01*
X16867Y7220D01*
X16870Y7232D01*
X16873Y7243D01*
X16875Y7252D01*
X16878Y7261D01*
X16881Y7269D01*
X16883Y7276D01*
X16886Y7282D01*
X16888Y7286D01*
X16889Y7289D01*
X16890Y7291D01*
Y7292D01*
X16902Y7314D01*
X16916Y7333D01*
X16931Y7349D01*
X16944Y7362D01*
X16957Y7373D01*
X16963Y7377D01*
X16967Y7381D01*
X16972Y7383D01*
X16975Y7385D01*
X16976Y7386D01*
X16977Y7387D01*
X16988Y7393D01*
X16999Y7398D01*
X17021Y7407D01*
X17043Y7413D01*
X17062Y7417D01*
X17071Y7418D01*
X17080Y7419D01*
X17087Y7420D01*
X17093D01*
X17098Y7421D01*
X17105D01*
X17125Y7420D01*
D02*
G37*
G36*
X17168Y9250D02*
X17100D01*
Y9762D01*
X17168D01*
Y9250D01*
D02*
G37*
%LPC*%
G36*
X17112Y7362D02*
X17105D01*
X17087Y7362D01*
X17069Y7359D01*
X17053Y7354D01*
X17040Y7350D01*
X17029Y7345D01*
X17024Y7343D01*
X17021Y7341D01*
X17017Y7339D01*
X17015Y7338D01*
X17014Y7337D01*
X17013D01*
X16999Y7326D01*
X16987Y7314D01*
X16976Y7303D01*
X16967Y7291D01*
X16960Y7280D01*
X16955Y7271D01*
X16953Y7269D01*
X16952Y7266D01*
X16951Y7265D01*
Y7264D01*
X16944Y7246D01*
X16939Y7227D01*
X16935Y7209D01*
X16933Y7192D01*
X16931Y7184D01*
X16930Y7178D01*
Y7171D01*
X16930Y7166D01*
Y7161D01*
Y7158D01*
Y7156D01*
Y7155D01*
X16930Y7138D01*
X16932Y7121D01*
X16934Y7104D01*
X16937Y7089D01*
X16942Y7076D01*
X16945Y7064D01*
X16950Y7052D01*
X16954Y7041D01*
X16959Y7032D01*
X16964Y7024D01*
X16967Y7018D01*
X16971Y7012D01*
X16975Y7008D01*
X16977Y7004D01*
X16979Y7003D01*
X16979Y7002D01*
X16989Y6992D01*
X16999Y6984D01*
X17010Y6978D01*
X17020Y6971D01*
X17030Y6966D01*
X17041Y6962D01*
X17051Y6958D01*
X17061Y6956D01*
X17070Y6953D01*
X17079Y6952D01*
X17087Y6950D01*
X17093Y6950D01*
X17098D01*
X17102Y6949D01*
X17106D01*
X17120Y6950D01*
X17133Y6951D01*
X17145Y6954D01*
X17157Y6957D01*
X17168Y6961D01*
X17178Y6966D01*
X17188Y6970D01*
X17197Y6975D01*
X17204Y6981D01*
X17211Y6985D01*
X17217Y6990D01*
X17222Y6994D01*
X17226Y6997D01*
X17229Y7000D01*
X17230Y7001D01*
X17231Y7002D01*
X17240Y7012D01*
X17247Y7024D01*
X17254Y7035D01*
X17260Y7047D01*
X17264Y7060D01*
X17269Y7072D01*
X17275Y7095D01*
X17276Y7106D01*
X17277Y7116D01*
X17279Y7125D01*
X17280Y7132D01*
X17280Y7139D01*
Y7144D01*
Y7147D01*
Y7148D01*
X17280Y7169D01*
X17278Y7188D01*
X17276Y7206D01*
X17272Y7223D01*
X17269Y7237D01*
X17264Y7251D01*
X17259Y7263D01*
X17255Y7274D01*
X17249Y7283D01*
X17245Y7291D01*
X17240Y7298D01*
X17237Y7303D01*
X17233Y7308D01*
X17231Y7311D01*
X17229Y7312D01*
X17229Y7313D01*
X17219Y7322D01*
X17209Y7329D01*
X17198Y7336D01*
X17187Y7342D01*
X17177Y7346D01*
X17166Y7351D01*
X17147Y7357D01*
X17138Y7358D01*
X17130Y7360D01*
X17124Y7361D01*
X17117Y7362D01*
X17112Y7362D01*
D02*
G37*
%LPD*%
D10*
X10398Y31133D02*
X13902D01*
X10398Y27629D02*
X13902D01*
X10398D02*
Y31133D01*
X13902Y27629D02*
Y31133D01*
X14860Y11252D02*
Y11557D01*
X14752Y11143D02*
X14860Y11252D01*
X13640Y11143D02*
X14752D01*
X13640Y11557D02*
X14860D01*
X13640Y11143D02*
Y11557D01*
X17274Y26055D02*
X17826D01*
X17274Y25445D02*
X17826D01*
X12552Y5761D02*
Y5839D01*
X12848Y5761D02*
Y5839D01*
X25354Y28396D02*
Y31104D01*
X24646D02*
X25354D01*
X24646Y28396D02*
Y31104D01*
Y28396D02*
X25354D01*
X16525Y32775D02*
X17485D01*
X16525D02*
Y33725D01*
X17485D01*
Y32775D02*
Y33725D01*
X7259Y31743D02*
Y32057D01*
X16467Y11023D02*
Y11377D01*
X17333Y11023D02*
Y11377D01*
X2050Y27550D02*
X2550D01*
X2050D02*
Y33550D01*
X2550D01*
X717Y27883D02*
X2050D01*
X550Y28050D02*
X717Y27883D01*
X550Y28050D02*
X717Y28217D01*
X2050D01*
X717Y28883D02*
X2050D01*
X550Y29050D02*
X717Y28883D01*
X550Y29050D02*
X717Y29217D01*
X2050D01*
X717Y29883D02*
X2050D01*
X550Y30050D02*
X717Y29883D01*
X550Y30050D02*
X717Y30217D01*
X2050D01*
X717Y30883D02*
X2050D01*
X550Y31050D02*
X717Y30883D01*
X550Y31050D02*
X717Y31217D01*
X2050D01*
X717Y31883D02*
X2050D01*
X550Y32050D02*
X717Y31883D01*
X550Y32050D02*
X717Y32217D01*
X2050D01*
X717Y32883D02*
X2050D01*
X550Y33050D02*
X717Y32883D01*
X550Y33050D02*
X717Y33217D01*
X2050D01*
X2383Y27550D02*
X2550Y27717D01*
Y27550D02*
Y33550D01*
X9771Y25462D02*
Y25738D01*
X9849D01*
X9771Y25462D02*
X9849D01*
X19348Y12061D02*
Y12139D01*
X19052Y12061D02*
Y12139D01*
X20048Y12061D02*
Y12139D01*
X19752Y12061D02*
Y12139D01*
X19711Y31898D02*
X19789D01*
X19711Y31602D02*
X19789D01*
X17652Y31611D02*
Y31689D01*
X17948Y31611D02*
Y31689D01*
X16952Y31611D02*
Y31689D01*
X17248Y31611D02*
Y31689D01*
X15688Y32711D02*
Y32789D01*
X15412Y32711D02*
Y32789D01*
Y32711D02*
X15688D01*
X16861Y34162D02*
X16939D01*
X16861Y34438D02*
X16939D01*
X16861Y34162D02*
Y34438D01*
X4898Y28261D02*
Y28339D01*
X4602Y28261D02*
Y28339D01*
X11152Y11611D02*
Y11689D01*
X11448Y11611D02*
Y11689D01*
X12148Y11611D02*
Y11689D01*
X11852Y11611D02*
Y11689D01*
X18348Y11661D02*
Y11739D01*
X18052Y11661D02*
Y11739D01*
X14521Y12612D02*
X14599D01*
X14521Y12888D02*
X14599D01*
X14521Y12612D02*
Y12888D01*
X15638Y12411D02*
Y12489D01*
X15362Y12411D02*
Y12489D01*
Y12411D02*
X15638D01*
X8452Y31042D02*
Y31121D01*
X8748Y31042D02*
Y31121D01*
X12489Y32762D02*
Y33038D01*
X12411Y32762D02*
X12489D01*
X12411Y33038D02*
X12489D01*
X11512Y25811D02*
X11788D01*
X11512D02*
Y25889D01*
X11788Y25811D02*
Y25889D01*
X9839Y24912D02*
Y25188D01*
X9761Y24912D02*
X9839D01*
X9761Y25188D02*
X9839D01*
X4612Y29711D02*
X4888D01*
X4612D02*
Y29789D01*
X4888Y29711D02*
Y29789D01*
X17711Y28134D02*
X17789D01*
X17711Y28429D02*
X17789D01*
X7852Y26611D02*
Y26689D01*
X8148Y26611D02*
Y26689D01*
X7448Y27311D02*
Y27389D01*
X7152Y27311D02*
Y27389D01*
X6748Y27311D02*
Y27389D01*
X6452Y27311D02*
Y27389D01*
X6048Y27311D02*
Y27389D01*
X5752Y27311D02*
Y27389D01*
X10002Y11561D02*
Y11639D01*
X10298Y11561D02*
Y11639D01*
X10052Y6661D02*
Y6739D01*
X10348Y6661D02*
Y6739D01*
X10802Y6661D02*
Y6739D01*
X11098Y6661D02*
Y6739D01*
X11702Y5761D02*
Y5839D01*
X11998Y5761D02*
Y5839D01*
X15018Y10759D02*
Y10825D01*
X14952D01*
Y10759D01*
X15018D01*
D11*
X17446Y32674D02*
G03*
X17446Y32674I-11J0D01*
G01*
X23400Y34750D02*
G03*
X23400Y34750I-2400J0D01*
G01*
X9630Y660D02*
G03*
X9630Y660I-50J0D01*
G01*
X10150Y2010D02*
G03*
X10150Y2010I-50J0D01*
G01*
X11190D02*
G03*
X11190Y2010I-50J0D01*
G01*
X10670Y660D02*
G03*
X10670Y660I-50J0D01*
G01*
X9100Y2010D02*
G03*
X9100Y2010I-50J0D01*
G01*
X19040Y7715D02*
Y8985D01*
X17950Y8300D02*
X18750D01*
X17950Y7820D02*
X18750D01*
X17950Y7650D02*
Y9050D01*
Y7650D02*
X18750D01*
Y9050D01*
X17950D02*
X18750D01*
X17660Y6660D02*
X19040D01*
X17660D02*
Y8000D01*
Y8700D02*
Y10030D01*
X19040D01*
Y6660D02*
Y7020D01*
Y9680D02*
Y10030D01*
X18020Y4395D02*
Y4834D01*
X18350D01*
X18550Y4256D02*
X18750D01*
X19280Y4395D02*
Y4834D01*
X18950D02*
X19280D01*
X20500Y650D02*
X21800D01*
X20500D02*
Y24850D01*
X21800D01*
X24200D02*
X25500D01*
Y3550D02*
Y24850D01*
Y650D02*
Y2750D01*
X24200Y650D02*
X24205Y645D01*
X25500D01*
X22000Y18250D02*
X24000D01*
X22000Y7750D02*
Y18250D01*
Y7750D02*
X22500D01*
Y7250D02*
Y7750D01*
Y7250D02*
X23500D01*
Y7750D01*
X24000D01*
Y18250D01*
X22500Y8750D02*
X23500D01*
X23000Y8250D02*
Y9250D01*
X4200Y24850D02*
X5500D01*
Y650D02*
Y24850D01*
X4200Y650D02*
X5500D01*
X500D02*
X1800D01*
X500D02*
Y21950D01*
Y22750D02*
Y24850D01*
X1795Y24855D02*
X1800Y24850D01*
X500Y24855D02*
X1795D01*
X2000Y7250D02*
X4000D01*
Y17750D01*
X3500D02*
X4000D01*
X3500D02*
Y18250D01*
X2500D02*
X3500D01*
X2500Y17750D02*
Y18250D01*
X2000Y17750D02*
X2500D01*
X2000Y7250D02*
Y17750D01*
X2500Y16750D02*
X3500D01*
X3000Y16250D02*
Y17250D01*
X18380Y26847D02*
Y27286D01*
X18050Y26847D02*
X18380D01*
X17650Y27426D02*
X17850D01*
X17120Y26847D02*
Y27286D01*
Y26847D02*
X17450D01*
X6500Y2300D02*
Y10300D01*
X16500Y2300D02*
Y10300D01*
X6500Y2300D02*
X7500D01*
X6500Y10300D02*
X7500D01*
X15500Y2300D02*
X16500D01*
X15500Y10300D02*
X16500D01*
X7500Y2300D02*
Y10300D01*
X15500Y2300D02*
Y10300D01*
X15700Y1400D02*
X15500D01*
X15600D01*
Y1900D01*
X15500Y2000D01*
X15400D01*
X15300Y1900D01*
X15900Y2000D02*
X16100D01*
X16000D01*
Y1400D01*
X15900Y1500D01*
X16400Y1400D02*
Y2000D01*
X16700D01*
X16800Y1900D01*
Y1800D01*
Y1700D01*
X16700Y1600D01*
X16400D01*
X6650Y1400D02*
X6450D01*
X6550D01*
Y1900D01*
X6450Y2000D01*
X6350D01*
X6250Y1900D01*
X6850Y2000D02*
X7050D01*
X6950D01*
Y1400D01*
X6850Y1500D01*
X7450Y1600D02*
X7650D01*
X7750Y1700D01*
Y2000D01*
X7450D01*
X7350Y1900D01*
X7450Y1800D01*
X7750D01*
X19019Y6216D02*
Y5616D01*
X18719D01*
X18619Y5716D01*
Y6116D01*
X18719Y6216D01*
X19019D01*
X18019Y5616D02*
X18419D01*
X18019Y6016D01*
Y6116D01*
X18119Y6216D01*
X18319D01*
X18419Y6116D01*
X24950Y32200D02*
X25150D01*
X25050D01*
Y31700D01*
X25150Y31600D01*
X25250D01*
X25350Y31700D01*
X24750Y32100D02*
X24650Y32200D01*
X24450D01*
X24350Y32100D01*
Y32000D01*
X24450Y31900D01*
X24550D01*
X24450D01*
X24350Y31800D01*
Y31700D01*
X24450Y31600D01*
X24650D01*
X24750Y31700D01*
X2889Y34486D02*
X3089D01*
X2989D01*
Y33986D01*
X3089Y33886D01*
X3189D01*
X3289Y33986D01*
X2389Y33886D02*
Y34486D01*
X2689Y34186D01*
X2289D01*
D12*
X8690Y19300D02*
G03*
X8990Y19600I0J300D01*
G01*
X7070Y19300D02*
G03*
X6770Y19000I0J-300D01*
G01*
X21600Y34760D02*
G03*
X21600Y34760I-600J0D01*
G01*
X7070Y19300D02*
X8690D01*
X18061Y21851D02*
Y22371D01*
X17920D02*
Y23681D01*
Y22371D02*
X18061D01*
X7960D02*
X8101D01*
Y23681D01*
X7960Y21851D02*
Y22371D01*
X8101Y23681D02*
X8920D01*
X17101D02*
X17920D01*
X17310Y14880D02*
Y21680D01*
X7960Y21851D02*
X18061D01*
X6770Y14880D02*
Y19000D01*
X8990Y19600D02*
Y21680D01*
X17510Y23821D02*
Y24221D01*
X17710Y24021D01*
X17443D01*
X17310Y24155D02*
X17243Y24221D01*
X17110D01*
X17044Y24155D01*
Y23888D01*
X17110Y23821D01*
X17243D01*
X17310Y23888D01*
Y24155D01*
X9000Y23811D02*
X8867D01*
X8933D01*
Y24211D01*
X9000Y24145D01*
X8302Y4668D02*
X8235Y4601D01*
X8102D01*
X8035Y4668D01*
Y4934D01*
X8102Y5001D01*
X8235D01*
X8302Y4934D01*
X8702Y4668D02*
X8635Y4601D01*
X8502D01*
X8435Y4668D01*
Y4734D01*
X8502Y4801D01*
X8635D01*
X8702Y4868D01*
Y4934D01*
X8635Y5001D01*
X8502D01*
X8435Y4934D01*
X8302Y5652D02*
X8235Y5585D01*
X8102D01*
X8035Y5652D01*
Y5718D01*
X8102Y5785D01*
X8235D01*
X8302Y5852D01*
Y5918D01*
X8235Y5985D01*
X8102D01*
X8035Y5918D01*
X8702Y5652D02*
X8635Y5585D01*
X8502D01*
X8435Y5652D01*
Y5918D01*
X8502Y5985D01*
X8635D01*
X8702Y5918D01*
X8835Y5585D02*
Y5985D01*
Y5852D01*
X9102Y5585D01*
X8902Y5785D01*
X9102Y5985D01*
X8035Y6969D02*
Y6569D01*
X8169Y6703D01*
X8302Y6569D01*
Y6969D01*
X8435Y6569D02*
X8569D01*
X8502D01*
Y6969D01*
X8435D01*
X8569D01*
X9035Y6636D02*
X8968Y6569D01*
X8835D01*
X8769Y6636D01*
Y6703D01*
X8835Y6769D01*
X8968D01*
X9035Y6836D01*
Y6903D01*
X8968Y6969D01*
X8835D01*
X8769Y6903D01*
X9368Y6569D02*
X9235D01*
X9168Y6636D01*
Y6903D01*
X9235Y6969D01*
X9368D01*
X9435Y6903D01*
Y6636D01*
X9368Y6569D01*
X8035Y7993D02*
Y7593D01*
X8169Y7726D01*
X8302Y7593D01*
Y7993D01*
X8635Y7593D02*
X8502D01*
X8435Y7660D01*
Y7926D01*
X8502Y7993D01*
X8635D01*
X8702Y7926D01*
Y7660D01*
X8635Y7593D01*
X9102Y7660D02*
X9035Y7593D01*
X8902D01*
X8835Y7660D01*
Y7726D01*
X8902Y7793D01*
X9035D01*
X9102Y7860D01*
Y7926D01*
X9035Y7993D01*
X8902D01*
X8835Y7926D01*
X9235Y7593D02*
X9368D01*
X9302D01*
Y7993D01*
X9235D01*
X9368D01*
X8381Y9668D02*
X8314Y9601D01*
X8181D01*
X8114Y9668D01*
Y9934D01*
X8181Y10001D01*
X8314D01*
X8381Y9934D01*
Y9801D01*
X8247D01*
X8514Y10001D02*
Y9601D01*
X8781Y10001D01*
Y9601D01*
X8914D02*
Y10001D01*
X9114D01*
X9180Y9934D01*
Y9668D01*
X9114Y9601D01*
X8914D01*
X14168Y6636D02*
X14102Y6569D01*
X13968D01*
X13902Y6636D01*
Y6703D01*
X13968Y6769D01*
X14102D01*
X14168Y6836D01*
Y6903D01*
X14102Y6969D01*
X13968D01*
X13902Y6903D01*
X14568Y6636D02*
X14501Y6569D01*
X14368D01*
X14301Y6636D01*
Y6903D01*
X14368Y6969D01*
X14501D01*
X14568Y6903D01*
X14701Y6569D02*
Y6969D01*
X14968D01*
X14129Y7660D02*
X14062Y7593D01*
X13929D01*
X13862Y7660D01*
Y7726D01*
X13929Y7793D01*
X14062D01*
X14129Y7860D01*
Y7926D01*
X14062Y7993D01*
X13929D01*
X13862Y7926D01*
X14262Y7593D02*
Y7993D01*
X14462D01*
X14529Y7926D01*
Y7660D01*
X14462Y7593D01*
X14262D01*
X14662Y7993D02*
Y7726D01*
X14795Y7593D01*
X14929Y7726D01*
Y7993D01*
Y7793D01*
X14662D01*
X14129Y9668D02*
X14062Y9601D01*
X13929D01*
X13862Y9668D01*
Y9934D01*
X13929Y10001D01*
X14062D01*
X14129Y9934D01*
Y9801D01*
X13995D01*
X14262Y10001D02*
Y9601D01*
X14529Y10001D01*
Y9601D01*
X14662D02*
Y10001D01*
X14862D01*
X14929Y9934D01*
Y9668D01*
X14862Y9601D01*
X14662D01*
X7878Y8856D02*
X8145D01*
X8011Y8723D02*
Y8989D01*
X8278Y8723D02*
X8344Y8656D01*
X8478D01*
X8544Y8723D01*
Y8789D01*
X8478Y8856D01*
X8411D01*
X8478D01*
X8544Y8923D01*
Y8989D01*
X8478Y9056D01*
X8344D01*
X8278Y8989D01*
X8678Y9056D02*
Y8989D01*
X8744D01*
Y9056D01*
X8678D01*
X9011Y8723D02*
X9078Y8656D01*
X9211D01*
X9277Y8723D01*
Y8789D01*
X9211Y8856D01*
X9144D01*
X9211D01*
X9277Y8923D01*
Y8989D01*
X9211Y9056D01*
X9078D01*
X9011Y8989D01*
X9411Y8656D02*
Y8923D01*
X9544Y9056D01*
X9677Y8923D01*
Y8656D01*
D13*
X10100Y1330D02*
Y1780D01*
X11150Y1330D02*
Y1780D01*
X9580Y880D02*
Y1330D01*
X10630Y880D02*
Y1330D01*
X9060D02*
Y1780D01*
Y1330D02*
X11150D01*
X12450Y3650D02*
X12950D01*
Y3900D01*
X12867Y3983D01*
X12700D01*
X12617Y3900D01*
Y3650D01*
Y3817D02*
X12450Y3983D01*
Y4483D02*
Y4150D01*
X12783Y4483D01*
X12867D01*
X12950Y4400D01*
Y4233D01*
X12867Y4150D01*
Y4650D02*
X12950Y4733D01*
Y4900D01*
X12867Y4983D01*
X12783D01*
X12700Y4900D01*
Y4816D01*
Y4900D01*
X12617Y4983D01*
X12533D01*
X12450Y4900D01*
Y4733D01*
X12533Y4650D01*
X11550Y3650D02*
X12050D01*
Y3900D01*
X11967Y3983D01*
X11800D01*
X11717Y3900D01*
Y3650D01*
Y3817D02*
X11550Y3983D01*
Y4483D02*
Y4150D01*
X11883Y4483D01*
X11967D01*
X12050Y4400D01*
Y4233D01*
X11967Y4150D01*
X11550Y4983D02*
Y4650D01*
X11883Y4983D01*
X11967D01*
X12050Y4900D01*
Y4733D01*
X11967Y4650D01*
X8767Y25767D02*
X8850Y25850D01*
X9017D01*
X9100Y25767D01*
Y25433D01*
X9017Y25350D01*
X8850D01*
X8767Y25433D01*
X8267Y25850D02*
X8434Y25767D01*
X8600Y25600D01*
Y25433D01*
X8517Y25350D01*
X8350D01*
X8267Y25433D01*
Y25517D01*
X8350Y25600D01*
X8600D01*
X10700Y4500D02*
X11200D01*
Y4750D01*
X11117Y4833D01*
X10950D01*
X10867Y4750D01*
Y4500D01*
Y4667D02*
X10700Y4833D01*
Y5333D02*
Y5000D01*
X11033Y5333D01*
X11117D01*
X11200Y5250D01*
Y5083D01*
X11117Y5000D01*
Y5500D02*
X11200Y5583D01*
Y5750D01*
X11117Y5833D01*
X10783D01*
X10700Y5750D01*
Y5583D01*
X10783Y5500D01*
X11117D01*
X9850Y4650D02*
X10350D01*
Y4900D01*
X10267Y4983D01*
X10100D01*
X10017Y4900D01*
Y4650D01*
Y4817D02*
X9850Y4983D01*
Y5483D02*
Y5150D01*
X10183Y5483D01*
X10267D01*
X10350Y5400D01*
Y5233D01*
X10267Y5150D01*
X9850Y5650D02*
Y5816D01*
Y5733D01*
X10350D01*
X10267Y5650D01*
X9950Y10100D02*
X10450D01*
Y10350D01*
X10367Y10433D01*
X10200D01*
X10117Y10350D01*
Y10100D01*
Y10267D02*
X9950Y10433D01*
Y10600D02*
Y10766D01*
Y10683D01*
X10450D01*
X10367Y10600D01*
X17150Y12050D02*
X16650D01*
Y12383D01*
Y12550D02*
Y12716D01*
Y12633D01*
X17150D01*
X17067Y12550D01*
X13400Y11100D02*
Y10683D01*
X13317Y10600D01*
X13150D01*
X13067Y10683D01*
Y11100D01*
X12567Y10600D02*
X12900D01*
X12567Y10933D01*
Y11017D01*
X12650Y11100D01*
X12817D01*
X12900Y11017D01*
X5655Y25851D02*
X6155D01*
Y26101D01*
X6072Y26184D01*
X5905D01*
X5822Y26101D01*
Y25851D01*
Y26018D02*
X5655Y26184D01*
X6155Y26684D02*
X6072Y26518D01*
X5905Y26351D01*
X5739D01*
X5655Y26434D01*
Y26601D01*
X5739Y26684D01*
X5822D01*
X5905Y26601D01*
Y26351D01*
X6345Y25450D02*
X6845D01*
Y25700D01*
X6762Y25783D01*
X6595D01*
X6512Y25700D01*
Y25450D01*
Y25617D02*
X6345Y25783D01*
X6845Y25950D02*
Y26283D01*
X6762D01*
X6429Y25950D01*
X6345D01*
X7055Y25650D02*
X7555D01*
Y25900D01*
X7472Y25983D01*
X7305D01*
X7222Y25900D01*
Y25650D01*
Y25817D02*
X7055Y25983D01*
X7472Y26150D02*
X7555Y26233D01*
Y26400D01*
X7472Y26483D01*
X7389D01*
X7305Y26400D01*
X7222Y26483D01*
X7139D01*
X7055Y26400D01*
Y26233D01*
X7139Y26150D01*
X7222D01*
X7305Y26233D01*
X7389Y26150D01*
X7472D01*
X7305Y26233D02*
Y26400D01*
X8300Y26050D02*
X8800D01*
Y26300D01*
X8717Y26383D01*
X8550D01*
X8467Y26300D01*
Y26050D01*
Y26217D02*
X8300Y26383D01*
X8383Y26550D02*
X8300Y26633D01*
Y26800D01*
X8383Y26883D01*
X8717D01*
X8800Y26800D01*
Y26633D01*
X8717Y26550D01*
X8633D01*
X8550Y26633D01*
Y26883D01*
X9850Y31700D02*
Y31283D01*
X9767Y31200D01*
X9600D01*
X9517Y31283D01*
Y31700D01*
X9350Y31200D02*
X9184D01*
X9267D01*
Y31700D01*
X9350Y31617D01*
X17100Y28050D02*
Y28550D01*
X16850D01*
X16767Y28467D01*
Y28300D01*
X16850Y28217D01*
X17100D01*
X16933D02*
X16767Y28050D01*
X16600D02*
X16434D01*
X16517D01*
Y28550D01*
X16600Y28467D01*
X16184Y28133D02*
X16100Y28050D01*
X15934D01*
X15850Y28133D01*
Y28467D01*
X15934Y28550D01*
X16100D01*
X16184Y28467D01*
Y28383D01*
X16100Y28300D01*
X15850D01*
X17900Y24750D02*
Y25250D01*
X17650D01*
X17567Y25167D01*
Y25000D01*
X17650Y24917D01*
X17900D01*
X17733D02*
X17567Y24750D01*
X17400D02*
X17234D01*
X17317D01*
Y25250D01*
X17400Y25167D01*
X16984D02*
X16900Y25250D01*
X16734D01*
X16650Y25167D01*
Y25083D01*
X16734Y25000D01*
X16650Y24917D01*
Y24833D01*
X16734Y24750D01*
X16900D01*
X16984Y24833D01*
Y24917D01*
X16900Y25000D01*
X16984Y25083D01*
Y25167D01*
X16900Y25000D02*
X16734D01*
X10800Y32750D02*
Y33250D01*
X10550D01*
X10467Y33167D01*
Y33000D01*
X10550Y32917D01*
X10800D01*
X10633D02*
X10467Y32750D01*
X10300D02*
X10134D01*
X10217D01*
Y33250D01*
X10300Y33167D01*
X9884Y33250D02*
X9550D01*
Y33167D01*
X9884Y32833D01*
Y32750D01*
X8194Y28431D02*
X8694D01*
Y28681D01*
X8611Y28765D01*
X8444D01*
X8361Y28681D01*
Y28431D01*
Y28598D02*
X8194Y28765D01*
Y28931D02*
Y29098D01*
Y29015D01*
X8694D01*
X8611Y28931D01*
X8694Y29681D02*
X8611Y29514D01*
X8444Y29348D01*
X8278D01*
X8194Y29431D01*
Y29598D01*
X8278Y29681D01*
X8361D01*
X8444Y29598D01*
Y29348D01*
X16567Y26933D02*
Y27267D01*
X16650Y27350D01*
X16817D01*
X16900Y27267D01*
Y26933D01*
X16817Y26850D01*
X16650D01*
X16733Y27017D02*
X16567Y26850D01*
X16650D02*
X16567Y26933D01*
X16400Y26850D02*
X16234D01*
X16317D01*
Y27350D01*
X16400Y27267D01*
X4033Y29817D02*
X3950Y29900D01*
Y30067D01*
X4033Y30150D01*
X4367D01*
X4450Y30067D01*
Y29900D01*
X4367Y29817D01*
X4033Y29650D02*
X3950Y29567D01*
Y29400D01*
X4033Y29317D01*
X4117D01*
X4200Y29400D01*
Y29484D01*
Y29400D01*
X4283Y29317D01*
X4367D01*
X4450Y29400D01*
Y29567D01*
X4367Y29650D01*
X8767Y25067D02*
X8850Y25150D01*
X9017D01*
X9100Y25067D01*
Y24733D01*
X9017Y24650D01*
X8850D01*
X8767Y24733D01*
X8600Y25150D02*
X8267D01*
Y25067D01*
X8600Y24733D01*
Y24650D01*
X12417Y25783D02*
X12500Y25700D01*
Y25533D01*
X12417Y25450D01*
X12083D01*
X12000Y25533D01*
Y25700D01*
X12083Y25783D01*
X12000Y26283D02*
Y25950D01*
X12333Y26283D01*
X12417D01*
X12500Y26200D01*
Y26033D01*
X12417Y25950D01*
X12467Y33617D02*
X12550Y33700D01*
X12717D01*
X12800Y33617D01*
Y33283D01*
X12717Y33200D01*
X12550D01*
X12467Y33283D01*
X12300Y33200D02*
X12134D01*
X12217D01*
Y33700D01*
X12300Y33617D01*
X8150Y32700D02*
Y32200D01*
X7900D01*
X7817Y32283D01*
Y32617D01*
X7900Y32700D01*
X8150D01*
X7650Y32200D02*
X7484D01*
X7567D01*
Y32700D01*
X7650Y32617D01*
X7800Y30681D02*
X8300D01*
Y30931D01*
X8217Y31015D01*
X8050D01*
X7967Y30931D01*
Y30681D01*
Y30848D02*
X7800Y31015D01*
Y31514D02*
Y31181D01*
X8133Y31514D01*
X8217D01*
X8300Y31431D01*
Y31265D01*
X8217Y31181D01*
X25300Y25600D02*
Y25100D01*
X25050D01*
X24967Y25183D01*
Y25267D01*
X25050Y25350D01*
X25300D01*
X25050D01*
X24967Y25433D01*
Y25517D01*
X25050Y25600D01*
X25300D01*
X24800Y25100D02*
X24634D01*
X24717D01*
Y25600D01*
X24800Y25517D01*
X5400Y25600D02*
Y25100D01*
X5150D01*
X5067Y25183D01*
Y25267D01*
X5150Y25350D01*
X5400D01*
X5150D01*
X5067Y25433D01*
Y25517D01*
X5150Y25600D01*
X5400D01*
X4567Y25100D02*
X4900D01*
X4567Y25433D01*
Y25517D01*
X4650Y25600D01*
X4817D01*
X4900Y25517D01*
X24850Y34950D02*
Y34450D01*
X24600D01*
X24517Y34533D01*
Y34617D01*
X24600Y34700D01*
X24850D01*
X24600D01*
X24517Y34783D01*
Y34867D01*
X24600Y34950D01*
X24850D01*
X24350D02*
X24017D01*
Y34867D01*
X24350Y34533D01*
Y34450D01*
X24017D01*
X23850D02*
X23684D01*
X23767D01*
Y34950D01*
X23850Y34867D01*
X16217Y12283D02*
X16300Y12200D01*
Y12033D01*
X16217Y11950D01*
X15883D01*
X15800Y12033D01*
Y12200D01*
X15883Y12283D01*
X15800Y12700D02*
X16300D01*
X16050Y12450D01*
Y12783D01*
X13517Y12917D02*
X13600Y13000D01*
X13767D01*
X13850Y12917D01*
Y12583D01*
X13767Y12500D01*
X13600D01*
X13517Y12583D01*
X13017Y13000D02*
X13350D01*
Y12750D01*
X13184Y12833D01*
X13100D01*
X13017Y12750D01*
Y12583D01*
X13100Y12500D01*
X13267D01*
X13350Y12583D01*
X18500Y11000D02*
X19000D01*
Y11250D01*
X18917Y11333D01*
X18750D01*
X18667Y11250D01*
Y11000D01*
Y11167D02*
X18500Y11333D01*
Y11500D02*
Y11666D01*
Y11583D01*
X19000D01*
X18917Y11500D01*
Y11916D02*
X19000Y12000D01*
Y12166D01*
X18917Y12250D01*
X18583D01*
X18500Y12166D01*
Y12000D01*
X18583Y11916D01*
X18917D01*
X11750Y9750D02*
X12250D01*
Y10000D01*
X12167Y10083D01*
X12000D01*
X11917Y10000D01*
Y9750D01*
Y9917D02*
X11750Y10083D01*
Y10250D02*
Y10416D01*
Y10333D01*
X12250D01*
X12167Y10250D01*
X11750Y10666D02*
Y10833D01*
Y10750D01*
X12250D01*
X12167Y10666D01*
X11000Y9600D02*
X11500D01*
Y9850D01*
X11417Y9933D01*
X11250D01*
X11167Y9850D01*
Y9600D01*
Y9767D02*
X11000Y9933D01*
Y10100D02*
Y10266D01*
Y10183D01*
X11500D01*
X11417Y10100D01*
Y10516D02*
X11500Y10600D01*
Y10766D01*
X11417Y10850D01*
X11333D01*
X11250Y10766D01*
Y10683D01*
Y10766D01*
X11167Y10850D01*
X11083D01*
X11000Y10766D01*
Y10600D01*
X11083Y10516D01*
X4450Y28950D02*
X3950D01*
Y28700D01*
X4033Y28617D01*
X4200D01*
X4283Y28700D01*
Y28950D01*
Y28783D02*
X4450Y28617D01*
Y28450D02*
Y28284D01*
Y28367D01*
X3950D01*
X4033Y28450D01*
X4450Y27700D02*
Y28034D01*
X4117Y27700D01*
X4033D01*
X3950Y27784D01*
Y27950D01*
X4033Y28034D01*
X15967Y34467D02*
X16050Y34550D01*
X16217D01*
X16300Y34467D01*
Y34133D01*
X16217Y34050D01*
X16050D01*
X15967Y34133D01*
X15800Y34467D02*
X15717Y34550D01*
X15550D01*
X15467Y34467D01*
Y34383D01*
X15550Y34300D01*
X15467Y34217D01*
Y34133D01*
X15550Y34050D01*
X15717D01*
X15800Y34133D01*
Y34217D01*
X15717Y34300D01*
X15800Y34383D01*
Y34467D01*
X15717Y34300D02*
X15550D01*
X15167Y32683D02*
X15250Y32600D01*
Y32433D01*
X15167Y32350D01*
X14833D01*
X14750Y32433D01*
Y32600D01*
X14833Y32683D01*
Y32850D02*
X14750Y32933D01*
Y33100D01*
X14833Y33183D01*
X15167D01*
X15250Y33100D01*
Y32933D01*
X15167Y32850D01*
X15083D01*
X15000Y32933D01*
Y33183D01*
X16300Y30950D02*
X16800D01*
Y31200D01*
X16717Y31283D01*
X16550D01*
X16467Y31200D01*
Y30950D01*
Y31117D02*
X16300Y31283D01*
Y31450D02*
Y31616D01*
Y31533D01*
X16800D01*
X16717Y31450D01*
X16300Y32116D02*
X16800D01*
X16550Y31866D01*
Y32200D01*
X18100Y30950D02*
X18600D01*
Y31200D01*
X18517Y31283D01*
X18350D01*
X18267Y31200D01*
Y30950D01*
Y31117D02*
X18100Y31283D01*
Y31450D02*
Y31616D01*
Y31533D01*
X18600D01*
X18517Y31450D01*
X18600Y32200D02*
Y31866D01*
X18350D01*
X18433Y32033D01*
Y32116D01*
X18350Y32200D01*
X18183D01*
X18100Y32116D01*
Y31950D01*
X18183Y31866D01*
X18500Y33400D02*
Y32983D01*
X18417Y32900D01*
X18250D01*
X18167Y32983D01*
Y33400D01*
X18000Y33317D02*
X17917Y33400D01*
X17750D01*
X17667Y33317D01*
Y33233D01*
X17750Y33150D01*
X17834D01*
X17750D01*
X17667Y33067D01*
Y32983D01*
X17750Y32900D01*
X17917D01*
X18000Y32983D01*
X20400Y30900D02*
Y31400D01*
X20150D01*
X20067Y31317D01*
Y31150D01*
X20150Y31067D01*
X20400D01*
X20233D02*
X20067Y30900D01*
X19900Y31317D02*
X19817Y31400D01*
X19650D01*
X19567Y31317D01*
Y31233D01*
X19650Y31150D01*
X19734D01*
X19650D01*
X19567Y31067D01*
Y30983D01*
X19650Y30900D01*
X19817D01*
X19900Y30983D01*
X19433Y8317D02*
X19350Y8400D01*
Y8567D01*
X19433Y8650D01*
X19517D01*
X19600Y8567D01*
Y8400D01*
X19683Y8317D01*
X19767D01*
X19850Y8400D01*
Y8567D01*
X19767Y8650D01*
X19350Y8150D02*
Y7817D01*
X19433D01*
X19767Y8150D01*
X19850D01*
X19650Y12750D02*
X20150D01*
Y13000D01*
X20067Y13083D01*
X19900D01*
X19817Y13000D01*
Y12750D01*
Y12917D02*
X19650Y13083D01*
X20150Y13583D02*
Y13250D01*
X19900D01*
X19983Y13416D01*
Y13500D01*
X19900Y13583D01*
X19733D01*
X19650Y13500D01*
Y13333D01*
X19733Y13250D01*
X18950Y12750D02*
X19450D01*
Y13000D01*
X19367Y13083D01*
X19200D01*
X19117Y13000D01*
Y12750D01*
Y12917D02*
X18950Y13083D01*
Y13500D02*
X19450D01*
X19200Y13250D01*
Y13583D01*
D28*
X9730Y660D02*
G03*
X9730Y660I-150J0D01*
G01*
X11290Y2010D02*
G03*
X11290Y2010I-150J0D01*
G01*
X10770Y660D02*
G03*
X10770Y660I-150J0D01*
G01*
X9200Y2010D02*
G03*
X9200Y2010I-150J0D01*
G01*
X10250D02*
G03*
X10250Y2010I-150J0D01*
G01*
D66*
X13449Y660D02*
G03*
X13518Y729I0J69D01*
G01*
X12945Y826D02*
G03*
X13094Y975I0J149D01*
G01*
X13882Y1064D02*
G03*
X13675Y857I0J-207D01*
G01*
D02*
G03*
X13882Y650I207J0D01*
G01*
D02*
G03*
X14069Y837I0J187D01*
G01*
Y867D02*
G03*
X13872Y1064I-197J0D01*
G01*
X6000Y1550D02*
G03*
X7000Y550I1000J0D01*
G01*
X16000D02*
G03*
X17000Y1550I0J1000D01*
G01*
X13301Y660D02*
X13429D01*
X13518Y749D02*
Y778D01*
X14069Y837D02*
Y867D01*
X6500Y2300D02*
Y10300D01*
X16500Y2300D02*
Y10300D01*
X6500Y2300D02*
X7500Y2300D01*
X6500Y3300D02*
X7500D01*
X6500Y10300D02*
X7500D01*
X15500Y2300D02*
X16500Y2300D01*
X15500Y10300D02*
X16500D01*
X15500Y11300D02*
X16500Y10300D01*
X7500Y2300D02*
Y10300D01*
X15500Y2300D02*
Y10300D01*
D67*
X12159Y655D02*
G03*
X12297Y793I0J138D01*
G01*
Y818D01*
D98*
X10270Y31650D02*
G03*
X10270Y31650I-70J0D01*
G01*
X11810Y1780D02*
G03*
X11800Y1770I0J-10D01*
G01*
X13566Y1785D02*
G03*
X13385Y1605I0J-180D01*
G01*
D02*
G03*
X13555Y1435I170J0D01*
G01*
X13558Y1438D02*
G03*
X13555Y1435I0J-3D01*
G01*
X12140Y1440D02*
G03*
X12300Y1600I0J160D01*
G01*
D02*
G03*
X12120Y1780I-180J0D01*
G01*
X13140Y1915D02*
G03*
X13145Y1910I5J0D01*
G01*
X12300Y1970D02*
G03*
X12120Y2150I-180J0D01*
G01*
X12140Y1780D02*
G03*
X12300Y1940I0J160D01*
G01*
X13787Y1785D02*
G03*
X13951Y1950I0J164D01*
G01*
D02*
G03*
X13744Y2156I-207J0D01*
G01*
X11810Y1780D02*
X12120D01*
X11770Y1440D02*
X12140D01*
X11810Y2150D02*
X12120D01*
X13558Y1438D02*
X13724D01*
X13566Y1785D02*
X13645D01*
X13787D01*
X13665Y2156D02*
X13744D01*
X12570Y1850D02*
Y1930D01*
X13140Y1915D02*
Y1930D01*
D99*
X12810Y2170D02*
G03*
X12570Y1930I0J-240D01*
G01*
X13140D02*
G03*
X12900Y2170I-240J0D01*
G01*
X12810D02*
X12900D01*
D100*
X12068Y692D02*
X12143D01*
X13022Y2065D02*
X13053Y2029D01*
X13810Y616D02*
Y701D01*
X13850Y611D02*
Y691D01*
X13812Y700D02*
X13841Y692D01*
X13786Y714D02*
X13812Y700D01*
X13765Y733D02*
X13786Y714D01*
X13749Y758D02*
X13765Y733D01*
X13737Y787D02*
X13749Y758D01*
X13737Y933D02*
X13748Y961D01*
X13764Y985D02*
X13784Y1003D01*
X13809Y1016D01*
X13839Y1023D01*
X13873Y1026D01*
X13910Y1023D02*
Y1104D01*
X13909Y1023D02*
X13939Y1016D01*
X13965Y1003D01*
X13986Y985D01*
X14003Y962D01*
X14015Y934D01*
X14022Y901D01*
X14024Y862D01*
X14002Y759D02*
X14014Y788D01*
X13986Y734D02*
X14002Y759D01*
X13964Y714D02*
X13986Y734D01*
X13939Y701D02*
X13964Y714D01*
X13841Y692D02*
X13875Y689D01*
X13873Y1026D02*
X13909Y1023D01*
X13875Y689D02*
X13909Y692D01*
X13876Y1106D02*
X13932Y1102D01*
M02*
