G04*
G04 #@! TF.GenerationSoftware,Altium Limited,Altium Designer,19.1.8 (144)*
G04*
G04 Layer_Color=16711935*
%FSLAX24Y24*%
%MOIN*%
G70*
G01*
G75*
%ADD16C,0.0429*%
%ADD17R,0.0472X0.0472*%
%ADD18C,0.0472*%
%ADD19R,0.0669X0.0669*%
%ADD20C,0.0669*%
%ADD21C,0.0749*%
%ADD22C,0.0679*%
%ADD23R,0.0679X0.0679*%
%ADD24C,0.0299*%
%ADD25C,0.0379*%
%ADD26C,0.0260*%
%ADD27C,0.0579*%
%ADD74O,0.0295X0.0669*%
%ADD75O,0.0669X0.0295*%
%ADD76R,0.0639X0.0559*%
%ADD77R,0.0295X0.0531*%
%ADD78R,0.0335X0.0492*%
%ADD79R,0.0197X0.0335*%
%ADD80R,0.0472X0.0768*%
%ADD81R,0.0433X0.0394*%
%ADD82R,0.0189X0.0240*%
%ADD83R,0.0240X0.0189*%
%ADD84R,0.0394X0.0394*%
%ADD85R,0.0879X0.0339*%
%ADD86R,0.0199X0.0569*%
%ADD87R,0.0869X0.1259*%
%ADD88R,0.0394X0.0433*%
G04:AMPARAMS|DCode=89|XSize=182.9mil|YSize=87.9mil|CornerRadius=15.9mil|HoleSize=0mil|Usage=FLASHONLY|Rotation=180.000|XOffset=0mil|YOffset=0mil|HoleType=Round|Shape=RoundedRectangle|*
%AMROUNDEDRECTD89*
21,1,0.1829,0.0560,0,0,180.0*
21,1,0.1510,0.0879,0,0,180.0*
1,1,0.0319,-0.0755,0.0280*
1,1,0.0319,0.0755,0.0280*
1,1,0.0319,0.0755,-0.0280*
1,1,0.0319,-0.0755,-0.0280*
%
%ADD89ROUNDEDRECTD89*%
%ADD90R,0.2179X0.2679*%
%ADD91R,0.0335X0.0197*%
D16*
X18350Y9690D02*
D03*
Y7010D02*
D03*
D17*
X25000Y30750D02*
D03*
D18*
Y30250D02*
D03*
Y29750D02*
D03*
Y29250D02*
D03*
Y28750D02*
D03*
D19*
X3050Y28050D02*
D03*
D20*
Y29050D02*
D03*
Y30050D02*
D03*
Y31050D02*
D03*
Y32050D02*
D03*
Y33050D02*
D03*
D21*
X25090Y3150D02*
D03*
X910Y22350D02*
D03*
D22*
X7000Y4800D02*
D03*
Y8800D02*
D03*
X16000Y4800D02*
D03*
Y8800D02*
D03*
X7000Y5800D02*
D03*
Y3800D02*
D03*
Y7800D02*
D03*
Y6800D02*
D03*
X16000Y2800D02*
D03*
Y3800D02*
D03*
Y5800D02*
D03*
Y6800D02*
D03*
Y7800D02*
D03*
X7000Y9800D02*
D03*
X16000D02*
D03*
D23*
X7000Y2800D02*
D03*
D24*
X10900Y11950D02*
D03*
X15100Y33050D02*
D03*
X14450Y27100D02*
D03*
X1450Y11200D02*
D03*
X2450Y7050D02*
D03*
X4846Y11725D02*
D03*
X3150Y8750D02*
D03*
X4550Y7300D02*
D03*
X21400Y30700D02*
D03*
X18500Y29050D02*
D03*
X1900Y21150D02*
D03*
Y5300D02*
D03*
X2450Y21550D02*
D03*
X1450Y20600D02*
D03*
X19800Y5050D02*
D03*
X20050Y4350D02*
D03*
X21250Y30200D02*
D03*
X17100Y32300D02*
D03*
X17800Y32700D02*
D03*
X5550Y28000D02*
D03*
X3450Y21900D02*
D03*
X4250Y21725D02*
D03*
X4850Y24250D02*
D03*
X4500Y23300D02*
D03*
X4436Y4664D02*
D03*
X8600Y30150D02*
D03*
X19225Y10525D02*
D03*
X18250Y14050D02*
D03*
Y12750D02*
D03*
X14450Y22300D02*
D03*
X15469Y23469D02*
D03*
X15180Y12750D02*
D03*
X20950Y11150D02*
D03*
X18500Y30050D02*
D03*
X17600Y33950D02*
D03*
X16300Y32650D02*
D03*
X17100Y31000D02*
D03*
X20250Y6000D02*
D03*
X8000Y26000D02*
D03*
X14879Y23471D02*
D03*
X7050Y28000D02*
D03*
X17450Y32400D02*
D03*
X12150Y32550D02*
D03*
X14250Y10450D02*
D03*
X11650Y26450D02*
D03*
X6600Y28000D02*
D03*
X7050Y31900D02*
D03*
X16750Y32400D02*
D03*
X15550Y32150D02*
D03*
X14050Y32750D02*
D03*
Y32050D02*
D03*
X10600Y28100D02*
D03*
X14950Y25950D02*
D03*
X19900Y28100D02*
D03*
D25*
X10150Y12500D02*
D03*
X6500Y33150D02*
D03*
X4672Y32855D02*
D03*
X5000Y900D02*
D03*
X7750Y29100D02*
D03*
X10800Y22900D02*
D03*
X6500Y32050D02*
D03*
X5000Y1700D02*
D03*
X10000Y26050D02*
D03*
X9235Y26965D02*
D03*
X4250Y1700D02*
D03*
Y900D02*
D03*
D26*
X9500Y25326D02*
D03*
X12055Y22331D02*
D03*
X12715Y24281D02*
D03*
X13105D02*
D03*
X13500D02*
D03*
X12320D02*
D03*
X10550Y30250D02*
D03*
X11200Y25700D02*
D03*
X11530Y23381D02*
D03*
X13305Y23481D02*
D03*
X12515D02*
D03*
X11836Y30950D02*
D03*
X11200Y30850D02*
D03*
X11520Y30750D02*
D03*
X10885D02*
D03*
X11400Y30015D02*
D03*
Y29385D02*
D03*
X11500Y29070D02*
D03*
Y29700D02*
D03*
X9955Y23381D02*
D03*
X18050Y28631D02*
D03*
X13700Y23481D02*
D03*
X12910D02*
D03*
X16650Y24350D02*
D03*
X11650Y24400D02*
D03*
D27*
X10300Y34650D02*
D03*
X23000Y31650D02*
D03*
D74*
X10575Y31625D02*
D03*
X10890D02*
D03*
X11205D02*
D03*
X11520D02*
D03*
X11835D02*
D03*
X12150D02*
D03*
X12465D02*
D03*
X12780D02*
D03*
X13095D02*
D03*
X13410D02*
D03*
X13725D02*
D03*
X13725Y27137D02*
D03*
X13410D02*
D03*
X13095D02*
D03*
X12780D02*
D03*
X12465D02*
D03*
X12150D02*
D03*
X11835D02*
D03*
X11520D02*
D03*
X11205D02*
D03*
X10890D02*
D03*
X10575D02*
D03*
D75*
X14394Y30956D02*
D03*
Y30641D02*
D03*
Y30326D02*
D03*
Y30011D02*
D03*
Y29696D02*
D03*
Y29381D02*
D03*
Y29066D02*
D03*
Y28751D02*
D03*
Y28436D02*
D03*
Y28122D02*
D03*
Y27807D02*
D03*
X9906Y27807D02*
D03*
Y28122D02*
D03*
Y28436D02*
D03*
Y28751D02*
D03*
Y29066D02*
D03*
Y29381D02*
D03*
Y29696D02*
D03*
Y30011D02*
D03*
Y30326D02*
D03*
Y30641D02*
D03*
Y30956D02*
D03*
D76*
X17480Y8350D02*
D03*
X19220Y7370D02*
D03*
Y9330D02*
D03*
D77*
X14624Y11901D02*
D03*
X14250D02*
D03*
X13876D02*
D03*
Y10799D02*
D03*
X14250D02*
D03*
X14624D02*
D03*
D78*
X18276Y4097D02*
D03*
X19024D02*
D03*
X18650Y5003D02*
D03*
X18124Y27584D02*
D03*
X17376D02*
D03*
X17750Y26679D02*
D03*
D79*
X11005Y33226D02*
D03*
Y32774D02*
D03*
X11202Y33226D02*
D03*
Y32774D02*
D03*
X11398Y33226D02*
D03*
Y32774D02*
D03*
X11595Y33226D02*
D03*
Y32774D02*
D03*
D80*
X16959Y25750D02*
D03*
X18141D02*
D03*
D81*
X12700Y5485D02*
D03*
Y6115D02*
D03*
X19200Y12415D02*
D03*
Y11785D02*
D03*
X19900Y12415D02*
D03*
Y11785D02*
D03*
X17800Y31335D02*
D03*
Y31965D02*
D03*
X17100Y31335D02*
D03*
Y31965D02*
D03*
X15550Y32435D02*
D03*
Y33065D02*
D03*
X4750Y28615D02*
D03*
Y27985D02*
D03*
X11300Y11335D02*
D03*
Y11965D02*
D03*
X12000Y11965D02*
D03*
Y11335D02*
D03*
X18200Y12015D02*
D03*
Y11385D02*
D03*
X15500Y12135D02*
D03*
Y12765D02*
D03*
X8600Y30766D02*
D03*
Y31396D02*
D03*
X11650Y26165D02*
D03*
Y25535D02*
D03*
X4750Y30065D02*
D03*
Y29435D02*
D03*
X8000Y26335D02*
D03*
Y26965D02*
D03*
X7300Y27665D02*
D03*
Y27035D02*
D03*
X6600Y27665D02*
D03*
Y27035D02*
D03*
X5900Y27665D02*
D03*
Y27035D02*
D03*
X10150Y11285D02*
D03*
Y11915D02*
D03*
X10200Y6385D02*
D03*
Y7015D02*
D03*
X10950Y6385D02*
D03*
Y7015D02*
D03*
X11850Y5485D02*
D03*
Y6115D02*
D03*
D82*
X17295Y32935D02*
D03*
X17098D02*
D03*
X16902D02*
D03*
X16705D02*
D03*
Y33565D02*
D03*
X16902D02*
D03*
X17098D02*
D03*
X17295D02*
D03*
D83*
X16675Y33152D02*
D03*
Y33348D02*
D03*
X17325D02*
D03*
Y33152D02*
D03*
D84*
X7535Y31900D02*
D03*
X8165D02*
D03*
D85*
X16900Y11625D02*
D03*
Y10775D02*
D03*
D86*
X16650Y23881D02*
D03*
X14879D02*
D03*
X15076D02*
D03*
X15272D02*
D03*
X15469D02*
D03*
X15666D02*
D03*
X15863D02*
D03*
X16060D02*
D03*
X16257D02*
D03*
X16453D02*
D03*
X9170D02*
D03*
X9367D02*
D03*
X9564D02*
D03*
X9761D02*
D03*
X9957D02*
D03*
X10154D02*
D03*
X10351D02*
D03*
X10548D02*
D03*
X10745D02*
D03*
X10942D02*
D03*
X11138D02*
D03*
X11335D02*
D03*
X11532D02*
D03*
X11729D02*
D03*
X11926D02*
D03*
X16847D02*
D03*
X14682D02*
D03*
X14485D02*
D03*
X14288D02*
D03*
X14091D02*
D03*
X13894D02*
D03*
X13698D02*
D03*
X13501D02*
D03*
X13304D02*
D03*
X13107D02*
D03*
X12910D02*
D03*
X12713D02*
D03*
X12516D02*
D03*
X12320D02*
D03*
X12123D02*
D03*
D87*
X17431Y22966D02*
D03*
X8585D02*
D03*
D88*
X10125Y25600D02*
D03*
X9495D02*
D03*
X19435Y31750D02*
D03*
X20065D02*
D03*
X16585Y34300D02*
D03*
X17215D02*
D03*
X14245Y12750D02*
D03*
X14875D02*
D03*
X12135Y32900D02*
D03*
X12765D02*
D03*
X9485Y25050D02*
D03*
X10115D02*
D03*
X18065Y28281D02*
D03*
X17435D02*
D03*
D89*
X24300Y33765D02*
D03*
X17700Y35735D02*
D03*
D90*
X23000Y1750D02*
D03*
Y23750D02*
D03*
X3000D02*
D03*
Y1750D02*
D03*
D91*
X8174Y29236D02*
D03*
X8626D02*
D03*
X8174Y29433D02*
D03*
X8626D02*
D03*
X8174Y29630D02*
D03*
X8626D02*
D03*
X8174Y29827D02*
D03*
X8626D02*
D03*
M02*
